<svg width="32" height="32" viewBox="0 0 32 32" fill="none" xmlns="http://www.w3.org/2000/svg">
<rect x="30.7367" y="30.7367" width="29.4734" height="29.4734" rx="14.7367" transform="rotate(-180 30.7367 30.7367)" stroke="url(#paint0_linear)" stroke-width="2.52665"/>
<path d="M16.7889 20.6074L16.7884 20.6068C16.5544 20.3308 16.3205 20.0535 16.0868 19.7765L16.0859 19.7755C15.8524 19.4988 15.6192 19.2223 15.3859 18.9472C15.0274 18.5245 14.6703 18.102 14.3133 17.6796L14.313 17.6793C13.9558 17.2567 13.5989 16.8344 13.2406 16.412L13.2403 16.4116C13.0594 16.1975 12.9272 15.9737 12.9242 15.719C12.9212 15.462 13.0501 15.2388 13.2304 15.0274C13.7005 14.4723 14.1702 13.916 14.6402 13.3594C15.3685 12.4967 16.0975 11.6332 16.8299 10.7722C17.0042 10.5655 17.2249 10.4281 17.4696 10.3954C17.7177 10.3622 17.9603 10.4409 18.162 10.6107C18.3587 10.7764 18.4831 10.993 18.4939 11.2415C18.5045 11.4864 18.403 11.7221 18.2286 11.9284L16.7889 20.6074ZM16.7889 20.6074C16.9715 20.8214 17.1988 20.9673 17.4468 21.0105C17.6997 21.0545 17.9516 20.9874 18.1599 20.8155C18.3629 20.6488 18.4744 20.4202 18.4772 20.1699C18.48 19.9249 18.3791 19.6831 18.2049 19.4734C18.1271 19.3774 18.0428 19.2748 17.9578 19.1764C16.9898 18.0256 16.0219 16.8748 15.0358 15.7019C15.0653 15.6673 15.0935 15.635 15.1225 15.6028L15.1226 15.6028M16.7889 20.6074L15.1226 15.6028M15.1226 15.6028L15.1276 15.5969M15.1226 15.6028L15.1276 15.5969M15.1276 15.5969C15.6443 14.9848 16.1611 14.3738 16.678 13.7628M15.1276 15.5969L16.678 13.7628M16.678 13.7628L16.678 13.7627M16.678 13.7628L16.678 13.7627M16.678 13.7627C17.1948 13.1518 17.7117 12.5408 18.2286 11.9285L16.678 13.7627Z" fill="white"/>
<path d="M16.7889 20.6074L16.7884 20.6068C16.5544 20.3308 16.3205 20.0535 16.0868 19.7765L16.0859 19.7755C15.8524 19.4988 15.6192 19.2223 15.3859 18.9472C15.0274 18.5245 14.6703 18.102 14.3133 17.6796L14.313 17.6793C13.9558 17.2567 13.5989 16.8344 13.2406 16.412L13.2403 16.4116C13.0594 16.1975 12.9272 15.9737 12.9242 15.719C12.9212 15.462 13.0501 15.2388 13.2304 15.0274C13.7005 14.4723 14.1702 13.916 14.6402 13.3594C15.3685 12.4967 16.0975 11.6332 16.8299 10.7722C17.0042 10.5655 17.2249 10.4281 17.4696 10.3954C17.7177 10.3622 17.9603 10.4409 18.162 10.6107C18.3587 10.7764 18.4831 10.993 18.4939 11.2415C18.5045 11.4864 18.403 11.7221 18.2286 11.9284L16.7889 20.6074ZM16.7889 20.6074C16.9715 20.8214 17.1988 20.9673 17.4468 21.0105C17.6997 21.0545 17.9516 20.9874 18.1599 20.8155C18.3629 20.6488 18.4744 20.4202 18.4772 20.1699C18.48 19.9249 18.3791 19.6831 18.2049 19.4734C18.1271 19.3774 18.0428 19.2748 17.9578 19.1764C16.9898 18.0256 16.0219 16.8748 15.0358 15.7019C15.0653 15.6673 15.0935 15.635 15.1225 15.6028L15.1226 15.6028M16.7889 20.6074L15.1226 15.6028M15.1226 15.6028L15.1276 15.5969M15.1226 15.6028L15.1276 15.5969M15.1276 15.5969C15.6443 14.9848 16.1611 14.3738 16.678 13.7628M15.1276 15.5969L16.678 13.7628M16.678 13.7628L16.678 13.7627M16.678 13.7628L16.678 13.7627M16.678 13.7627C17.1948 13.1518 17.7117 12.5408 18.2286 11.9285L16.678 13.7627Z" fill="url(#paint1_linear)"/>
<path d="M16.7889 20.6074L16.7884 20.6068C16.5544 20.3308 16.3205 20.0535 16.0868 19.7765L16.0859 19.7755C15.8524 19.4988 15.6192 19.2223 15.3859 18.9472C15.0274 18.5245 14.6703 18.102 14.3133 17.6796L14.313 17.6793C13.9558 17.2567 13.5989 16.8344 13.2406 16.412L13.2403 16.4116C13.0594 16.1975 12.9272 15.9737 12.9242 15.719C12.9212 15.462 13.0501 15.2388 13.2304 15.0274C13.7005 14.4723 14.1702 13.916 14.6402 13.3594C15.3685 12.4967 16.0975 11.6332 16.8299 10.7722C17.0042 10.5655 17.2249 10.4281 17.4696 10.3954C17.7177 10.3622 17.9603 10.4409 18.162 10.6107C18.3587 10.7764 18.4831 10.993 18.4939 11.2415C18.5045 11.4864 18.403 11.7221 18.2286 11.9284L16.7889 20.6074ZM16.7889 20.6074C16.9715 20.8214 17.1988 20.9673 17.4468 21.0105C17.6997 21.0545 17.9516 20.9874 18.1599 20.8155C18.3629 20.6488 18.4744 20.4202 18.4772 20.1699C18.48 19.9249 18.3791 19.6831 18.2049 19.4734C18.1271 19.3774 18.0428 19.2748 17.9578 19.1764C16.9898 18.0256 16.0219 16.8748 15.0358 15.7019C15.0653 15.6673 15.0935 15.635 15.1225 15.6028L15.1226 15.6028M16.7889 20.6074L15.1226 15.6028M15.1226 15.6028L15.1276 15.5969M15.1226 15.6028L15.1276 15.5969M15.1276 15.5969C15.6443 14.9848 16.1611 14.3738 16.678 13.7628M15.1276 15.5969L16.678 13.7628M16.678 13.7628L16.678 13.7627M16.678 13.7628L16.678 13.7627M16.678 13.7627C17.1948 13.1518 17.7117 12.5408 18.2286 11.9285L16.678 13.7627Z" stroke="url(#paint2_linear)" stroke-width="0.50533"/>
<defs>
<linearGradient id="paint0_linear" x1="99.8019" y1="27.5663" x2="37.1681" y2="53.1378" gradientUnits="userSpaceOnUse">
<stop stop-color="#C99A6C"/>
<stop offset="0.2022" stop-color="#EFD7B9"/>
<stop offset="0.4438" stop-color="#DBBA95"/>
<stop offset="0.691" stop-color="#C09362"/>
<stop offset="0.8539" stop-color="#EFDBC0"/>
<stop offset="1" stop-color="#B98C5A"/>
</linearGradient>
<linearGradient id="paint1_linear" x1="17.5666" y1="23.0959" x2="11.0825" y2="15.5659" gradientUnits="userSpaceOnUse">
<stop offset="0.229167" stop-color="#DBBA95"/>
<stop offset="0.75" stop-color="#C09362"/>
<stop offset="1" stop-color="#B98C5A"/>
</linearGradient>
<linearGradient id="paint2_linear" x1="18.9437" y1="32.1048" x2="7.61072" y2="18.2255" gradientUnits="userSpaceOnUse">
<stop stop-color="#C99A6C"/>
<stop offset="0.2022" stop-color="#EFD7B9"/>
<stop offset="0.4438" stop-color="#DBBA95"/>
<stop offset="0.691" stop-color="#C09362"/>
<stop offset="0.8539" stop-color="#EFDBC0"/>
<stop offset="1" stop-color="#B98C5A"/>
</linearGradient>
</defs>
</svg>
