<svg width="32" height="32" viewBox="0 0 32 32" fill="none" xmlns="http://www.w3.org/2000/svg">
<rect x="1.26332" y="1.26332" width="29.4734" height="29.4734" rx="14.7367" stroke="url(#paint0_linear)" stroke-width="2.52665"/>
<path d="M15.2113 11.3926L15.2119 11.3932C15.4458 11.6692 15.6798 11.9465 15.9135 12.2235L15.9143 12.2245C16.1478 12.5012 16.3811 12.7777 16.6143 13.0528C16.9728 13.4755 17.33 13.898 17.687 14.3204L17.6873 14.3207C18.0444 14.7433 18.4014 15.1656 18.7596 15.588L18.76 15.5884C18.9409 15.8025 19.0731 16.0263 19.0761 16.281C19.0791 16.538 18.9501 16.7612 18.7698 16.9726C18.2997 17.5277 17.83 18.084 17.3601 18.6406C16.6318 19.5033 15.9027 20.3668 15.1704 21.2278C14.9961 21.4345 14.7753 21.5719 14.5306 21.6046C14.2825 21.6378 14.0399 21.5591 13.8383 21.3893C13.6415 21.2236 13.5171 21.007 13.5064 20.7585C13.4958 20.5136 13.5973 20.2779 13.7716 20.0716L15.2113 11.3926ZM15.2113 11.3926C15.0287 11.1786 14.8015 11.0327 14.5534 10.9895C14.3006 10.9455 14.0486 11.0126 13.8403 11.1845C13.6373 11.3512 13.5259 11.5798 13.523 11.8301C13.5203 12.0751 13.6211 12.3169 13.7954 12.5266C13.8732 12.6226 13.9575 12.7252 14.0425 12.8236C15.0104 13.9744 15.9783 15.1252 16.9644 16.2981C16.9349 16.3327 16.9067 16.365 16.8778 16.3972L16.8777 16.3971M15.2113 11.3926L16.8777 16.3971M16.8777 16.3971L16.8727 16.4031M16.8777 16.3971L16.8727 16.4031M16.8727 16.4031C16.3559 17.0152 15.8392 17.6262 15.3223 18.2372M16.8727 16.4031L15.3223 18.2372M15.3223 18.2372L15.3222 18.2373M15.3223 18.2372L15.3222 18.2373M15.3222 18.2373C14.8054 18.8482 14.2886 19.4592 13.7717 20.0715L15.3222 18.2373Z" fill="white"/>
<path d="M15.2113 11.3926L15.2119 11.3932C15.4458 11.6692 15.6798 11.9465 15.9135 12.2235L15.9143 12.2245C16.1478 12.5012 16.3811 12.7777 16.6143 13.0528C16.9728 13.4755 17.33 13.898 17.687 14.3204L17.6873 14.3207C18.0444 14.7433 18.4014 15.1656 18.7596 15.588L18.76 15.5884C18.9409 15.8025 19.0731 16.0263 19.0761 16.281C19.0791 16.538 18.9501 16.7612 18.7698 16.9726C18.2997 17.5277 17.83 18.084 17.3601 18.6406C16.6318 19.5033 15.9027 20.3668 15.1704 21.2278C14.9961 21.4345 14.7753 21.5719 14.5306 21.6046C14.2825 21.6378 14.0399 21.5591 13.8383 21.3893C13.6415 21.2236 13.5171 21.007 13.5064 20.7585C13.4958 20.5136 13.5973 20.2779 13.7716 20.0716L15.2113 11.3926ZM15.2113 11.3926C15.0287 11.1786 14.8015 11.0327 14.5534 10.9895C14.3006 10.9455 14.0486 11.0126 13.8403 11.1845C13.6373 11.3512 13.5259 11.5798 13.523 11.8301C13.5203 12.0751 13.6211 12.3169 13.7954 12.5266C13.8732 12.6226 13.9575 12.7252 14.0425 12.8236C15.0104 13.9744 15.9783 15.1252 16.9644 16.2981C16.9349 16.3327 16.9067 16.365 16.8778 16.3972L16.8777 16.3971M15.2113 11.3926L16.8777 16.3971M16.8777 16.3971L16.8727 16.4031M16.8777 16.3971L16.8727 16.4031M16.8727 16.4031C16.3559 17.0152 15.8392 17.6262 15.3223 18.2372M16.8727 16.4031L15.3223 18.2372M15.3223 18.2372L15.3222 18.2373M15.3223 18.2372L15.3222 18.2373M15.3222 18.2373C14.8054 18.8482 14.2886 19.4592 13.7717 20.0715L15.3222 18.2373Z" fill="url(#paint1_linear)"/>
<path d="M15.2113 11.3926L15.2119 11.3932C15.4458 11.6692 15.6798 11.9465 15.9135 12.2235L15.9143 12.2245C16.1478 12.5012 16.3811 12.7777 16.6143 13.0528C16.9728 13.4755 17.33 13.898 17.687 14.3204L17.6873 14.3207C18.0444 14.7433 18.4014 15.1656 18.7596 15.588L18.76 15.5884C18.9409 15.8025 19.0731 16.0263 19.0761 16.281C19.0791 16.538 18.9501 16.7612 18.7698 16.9726C18.2997 17.5277 17.83 18.084 17.3601 18.6406C16.6318 19.5033 15.9027 20.3668 15.1704 21.2278C14.9961 21.4345 14.7753 21.5719 14.5306 21.6046C14.2825 21.6378 14.0399 21.5591 13.8383 21.3893C13.6415 21.2236 13.5171 21.007 13.5064 20.7585C13.4958 20.5136 13.5973 20.2779 13.7716 20.0716L15.2113 11.3926ZM15.2113 11.3926C15.0287 11.1786 14.8015 11.0327 14.5534 10.9895C14.3006 10.9455 14.0486 11.0126 13.8403 11.1845C13.6373 11.3512 13.5259 11.5798 13.523 11.8301C13.5203 12.0751 13.6211 12.3169 13.7954 12.5266C13.8732 12.6226 13.9575 12.7252 14.0425 12.8236C15.0104 13.9744 15.9783 15.1252 16.9644 16.2981C16.9349 16.3327 16.9067 16.365 16.8778 16.3972L16.8777 16.3971M15.2113 11.3926L16.8777 16.3971M16.8777 16.3971L16.8727 16.4031M16.8777 16.3971L16.8727 16.4031M16.8727 16.4031C16.3559 17.0152 15.8392 17.6262 15.3223 18.2372M16.8727 16.4031L15.3223 18.2372M15.3223 18.2372L15.3222 18.2373M15.3223 18.2372L15.3222 18.2373M15.3222 18.2373C14.8054 18.8482 14.2886 19.4592 13.7717 20.0715L15.3222 18.2373Z" stroke="url(#paint2_linear)" stroke-width="0.50533"/>
<defs>
<linearGradient id="paint0_linear" x1="67.8019" y1="-4.43369" x2="5.16806" y2="21.1378" gradientUnits="userSpaceOnUse">
<stop stop-color="#C99A6C"/>
<stop offset="0.2022" stop-color="#EFD7B9"/>
<stop offset="0.4438" stop-color="#DBBA95"/>
<stop offset="0.691" stop-color="#C09362"/>
<stop offset="0.8539" stop-color="#EFDBC0"/>
<stop offset="1" stop-color="#B98C5A"/>
</linearGradient>
<linearGradient id="paint1_linear" x1="14.4337" y1="8.90407" x2="20.9178" y2="16.4341" gradientUnits="userSpaceOnUse">
<stop offset="0.229167" stop-color="#DBBA95"/>
<stop offset="0.75" stop-color="#C09362"/>
<stop offset="1" stop-color="#B98C5A"/>
</linearGradient>
<linearGradient id="paint2_linear" x1="13.0565" y1="-0.104821" x2="24.3895" y2="13.7745" gradientUnits="userSpaceOnUse">
<stop stop-color="#C99A6C"/>
<stop offset="0.2022" stop-color="#EFD7B9"/>
<stop offset="0.4438" stop-color="#DBBA95"/>
<stop offset="0.691" stop-color="#C09362"/>
<stop offset="0.8539" stop-color="#EFDBC0"/>
<stop offset="1" stop-color="#B98C5A"/>
</linearGradient>
</defs>
</svg>
