<svg width="90" height="90" viewBox="0 0 90 90" fill="none" xmlns="http://www.w3.org/2000/svg">
<g clip-path="url(#clip0)">
<path d="M0.311422 40.9556C0.658136 40.2411 0.949691 39.4926 1.36119 38.8175C6.63457 30.183 11.9255 21.5589 17.2128 12.9331C18.4062 10.9859 20.1004 10.2294 22.3654 10.5315C25.5445 10.9552 28.7306 11.3238 31.9123 11.7205C33.6485 11.9367 35.3847 12.1512 37.1191 12.3867C37.507 12.4393 37.8011 12.3666 38.1163 12.1179C44.3773 7.18078 51.386 3.76968 59.1275 1.86363C64.6828 0.496035 70.3178 0.0635186 76.0167 0.440876C79.018 0.639624 81.9852 1.10103 84.9078 1.81985C86.827 2.29177 88.0186 3.50702 88.4861 5.4297C89.8091 10.8738 90.2617 16.3985 89.8546 21.9765C89.0351 33.2071 85.1416 43.2714 78.2038 52.1467C77.9368 52.4891 77.8615 52.8016 77.9157 53.2219C78.3264 56.3878 78.7151 59.5573 79.11 62.7259C79.3262 64.4621 79.5215 66.2009 79.7631 67.9336C80.0731 70.1601 79.3315 71.8805 77.3992 73.0642C68.537 78.4952 59.6774 83.9306 50.8082 89.3502C50.3581 89.6251 49.8319 89.7765 49.3408 89.9858C49.0492 89.9858 48.7568 89.9858 48.4652 89.9858C48.4451 89.9657 48.4267 89.9315 48.4048 89.9289C46.4961 89.6496 45.0506 87.3802 46.328 85.173C46.75 84.4436 47.0985 83.6679 47.4356 82.8948C48.5834 80.2647 49.3565 77.5461 49.2444 74.6402C49.1998 73.4889 49.0081 72.3621 48.5825 71.2694C48.0397 71.3893 47.5266 71.4935 47.0188 71.6179C45.146 72.0749 43.5263 71.6362 42.1832 70.2459C41.9862 70.0428 41.8076 69.9902 41.5301 70.0611C39.1582 70.6661 36.782 71.251 34.4102 71.8569C34.1983 71.9112 33.9785 72.0364 33.8218 72.1896C32.8815 73.1063 31.9595 74.0405 31.0306 74.9685C30.254 75.7443 29.3224 76.0612 28.2385 75.8835C27.9277 75.8327 27.6274 75.7128 27.3096 75.6217C27.2675 75.8309 27.2325 76.0306 27.1861 76.2284C26.5189 79.0801 25.1443 81.4615 22.5781 83.0121C21.0565 83.9314 19.3728 84.4682 17.6629 84.912C13.5977 85.9662 9.45118 86.4819 5.27135 86.7717C4.12877 86.8505 3.41959 86.1693 3.53166 85.0259C3.75404 82.7635 3.95892 80.4967 4.26711 78.2448C4.65935 75.3836 5.24859 72.5608 6.26947 69.844C7.03557 67.8023 8.17639 66.0529 10.0317 64.8228C11.45 63.8825 12.9901 63.2678 14.6694 62.9938C14.6633 62.9299 14.6703 62.8826 14.6545 62.8449C14.053 61.3845 14.398 60.1509 15.516 59.0749C16.3986 58.2256 17.2592 57.3518 18.1129 56.4728C18.2652 56.3161 18.3869 56.0945 18.4412 55.8818C19.0305 53.5817 19.5952 51.2756 20.1897 48.9773C20.2956 48.5684 20.2545 48.2987 19.934 47.9818C18.7135 46.7771 18.2827 45.3035 18.6093 43.6181C18.7328 42.9807 18.8842 42.3477 19.0418 41.6263C18.2057 41.4547 17.4177 41.2428 16.6148 41.1386C14.0688 40.8085 11.6059 41.2577 9.2358 42.1507C7.7001 42.7294 6.22832 43.478 4.72939 44.1539C3.50276 44.7073 2.11591 44.5138 1.23512 43.52C0.820111 43.0516 0.612608 42.3994 0.310547 41.8303C0.311422 41.5387 0.311422 41.2471 0.311422 40.9556ZM45.801 68.7995C45.829 68.796 45.9743 68.7855 46.1161 68.7548C49.1 68.1201 52.0138 67.255 54.8374 66.0967C70.9692 59.4794 82.5263 45.49 85.9733 28.396C86.0084 28.2244 85.9243 27.96 85.8 27.8348C78.0296 20.046 70.2504 12.2668 62.4625 4.4955C62.3364 4.3703 62.0729 4.28449 61.9012 4.31864C58.3448 5.02257 54.9057 6.10474 51.5734 7.53275C36.1989 14.1221 24.9876 27.7997 21.5406 44.1776C21.404 44.8272 21.5503 45.3919 22.0239 45.863C22.4792 46.3148 22.9432 46.7595 23.3976 47.2131C27.5565 51.3701 31.7161 55.5272 35.8715 59.6869C38.6863 62.5052 41.4977 65.3271 44.3064 68.1507C44.6908 68.5377 45.1119 68.8214 45.801 68.7995ZM19.8587 38.7247C22.7112 29.606 27.623 21.7314 34.6046 15.1158C34.5082 15.0781 34.4723 15.0554 34.4338 15.051C30.2391 14.5257 26.0435 14.0074 21.8497 13.4733C20.9199 13.3551 20.2571 13.6606 19.7615 14.4758C17.2706 18.5742 14.7561 22.6586 12.2503 26.7473C9.34086 31.4954 6.43057 36.2434 3.5229 40.9924C3.44148 41.1254 3.38194 41.2725 3.3119 41.4126C3.53691 41.4056 3.6805 41.3435 3.81796 41.2699C5.55765 40.3418 7.36039 39.5644 9.24718 38.9865C11.7118 38.2318 14.222 37.8422 16.7987 38.1574C17.8065 38.2799 18.7984 38.5242 19.8587 38.7247ZM48.8207 86.8995C48.8513 86.9319 48.882 86.9643 48.9126 86.9958C49.0702 86.9074 49.2304 86.8251 49.3837 86.7314C58.1583 81.353 66.9321 75.9745 75.7059 70.5952C76.7443 69.9587 76.9527 69.4684 76.7977 68.2707C76.4168 65.3359 76.0605 62.3976 75.6936 59.461C75.5387 58.2239 75.3828 56.9867 75.2147 55.6541C68.5571 62.6838 60.6676 67.5956 51.499 70.4621C51.5603 70.6793 51.6058 70.8465 51.6548 71.0129C52.2073 72.869 52.3439 74.7628 52.1784 76.6846C51.9175 79.7043 50.9535 82.5166 49.6577 85.2307C49.3898 85.7928 49.1009 86.3436 48.8207 86.8995ZM6.61618 83.6504C6.76502 83.6504 6.86484 83.6609 6.96202 83.6486C8.9136 83.3982 10.8713 83.1837 12.815 82.8825C15.1352 82.5218 17.4378 82.0412 19.6109 81.1245C20.4462 80.7716 21.3217 80.3575 21.9696 79.749C23.8862 77.948 24.6217 75.6532 24.3686 73.0441C24.352 72.876 24.2347 72.6886 24.1103 72.5643C21.9915 70.4324 19.8675 68.3057 17.732 66.1895C17.5911 66.0494 17.3582 65.9277 17.1673 65.926C16.4117 65.9207 15.6369 65.8691 14.9032 66.0109C12.5445 66.4653 10.599 67.5764 9.54048 69.8449C9.10534 70.7782 8.75688 71.7606 8.4627 72.7482C7.6537 75.4667 7.23344 78.2632 6.8876 81.0719C6.78166 81.9212 6.70724 82.7731 6.61618 83.6504ZM86.6195 24.4569C86.6799 23.9018 86.7298 23.4842 86.771 23.0648C86.8147 22.6148 86.8585 22.1648 86.8883 21.7139C87.2297 16.4536 86.806 11.2564 85.5881 6.12575C85.4034 5.34827 84.9402 4.89124 84.1636 4.7065C78.6547 3.39845 73.0801 3.00621 67.4417 3.49826C66.9461 3.54116 66.4532 3.60945 65.8543 3.67775C72.8 10.6278 79.6642 17.4973 86.6195 24.4569ZM39.2186 67.5589C33.7176 62.057 28.2131 56.5524 22.7375 51.0768C22.3225 52.7333 21.8768 54.4818 21.4575 56.2373C21.4207 56.3913 21.5074 56.64 21.6247 56.7573C25.5856 60.7358 29.5579 64.7028 33.5215 68.6778C33.7133 68.8695 33.8849 68.9124 34.1405 68.8389C34.658 68.6892 35.1842 68.5736 35.7069 68.4423C36.9169 68.1385 38.126 67.8338 39.2186 67.5589ZM31.0455 70.611C27.2658 66.8313 23.4563 63.0209 19.7204 59.2841C18.9753 60.0196 18.1917 60.7936 17.3757 61.5991C21.1309 65.3814 24.9167 69.1944 28.6754 72.9793C29.5413 72.1143 30.3214 71.3351 31.0455 70.611Z" fill="#027F84"/>
<path d="M55.9415 55.0536C44.5149 55.0563 35.2429 45.7791 35.2429 34.3436C35.2429 22.9152 44.5245 13.6362 55.9512 13.6406C67.3805 13.645 76.6699 22.9389 76.6559 34.3533C76.6419 45.7957 67.3796 55.0519 55.9415 55.0536ZM55.9582 52.0707C65.7266 52.0619 73.6633 44.126 73.6712 34.3594C73.6791 24.5831 65.6986 16.6035 55.9363 16.6262C46.1364 16.649 38.2189 24.5875 38.2268 34.3822C38.2329 44.1365 46.1959 52.0794 55.9582 52.0707Z" fill="url(#paint0_linear)"/>
<path d="M48.6809 43.6493C48.4655 43.8884 48.2291 44.1878 47.9568 44.4487C47.3238 45.0537 46.4246 45.052 45.8363 44.4653C45.2488 43.8805 45.2453 42.9778 45.8485 42.3448C46.1085 42.0716 46.4071 41.8343 46.619 41.6435C46.1917 40.7277 45.7268 39.9414 45.4475 39.0948C44.7269 36.9138 44.8618 34.8116 46.288 32.9065C46.436 32.7086 46.6041 32.5221 46.7853 32.3549C47.3702 31.8147 48.2352 31.8191 48.8105 32.3514C49.3874 32.8855 49.4943 33.845 48.9225 34.3993C47.5278 35.7537 47.9822 38.1448 48.7973 39.2471C50.4661 37.574 52.1393 35.8956 53.7853 34.2452C53.4228 33.4484 52.964 32.6167 52.6585 31.7324C52.1296 30.2011 52.1139 28.6373 52.7084 27.1069C53.6925 24.5713 56.3672 23.0812 59.1366 23.483C60.4726 23.6765 61.7063 24.1231 62.8173 24.8892C63.0467 25.0476 63.1894 25.0284 63.3654 24.8261C63.5668 24.5958 63.7866 24.3796 64.0177 24.18C64.6411 23.6415 65.5114 23.68 66.0726 24.2579C66.6216 24.8226 66.6417 25.6684 66.1216 26.2839C66.112 26.2953 66.1024 26.3058 66.0927 26.3163C65.8196 26.614 65.359 26.8933 65.3258 27.2155C65.2925 27.5429 65.697 27.9054 65.8835 28.2661C66.8588 30.1564 67.1924 32.1176 66.4929 34.1795C66.2223 34.978 65.7819 35.6802 65.1857 36.2782C64.5728 36.8928 63.6666 36.9121 63.0651 36.3342C62.4811 35.7739 62.4207 34.8502 63.0143 34.2495C64.4021 32.8452 63.8654 30.4576 63.0739 29.4367C61.3981 31.1125 59.7197 32.7918 58.0194 34.4921C58.6857 35.449 59.183 36.5233 59.4509 37.7053C60.2056 41.0376 58.4922 44.1633 55.377 45.0222C53.2241 45.6158 51.2234 45.1237 49.3472 43.9978C49.1852 43.9006 49.0285 43.7929 48.8674 43.6922C48.8437 43.6765 48.8113 43.6774 48.6809 43.6493ZM56.0932 32.1395C57.7445 30.4944 59.3493 28.8965 60.9927 27.2584C60.0305 26.684 59.1042 26.3872 58.0842 26.4275C56.4846 26.4905 55.3604 27.6095 55.2789 29.2099C55.2282 30.2334 55.5136 31.165 56.0932 32.1395ZM50.9949 41.4999C51.7978 41.9753 52.6374 42.2634 53.5638 42.273C54.5146 42.2826 55.3402 41.9937 55.9706 41.2512C57.1228 39.8942 56.5529 37.5267 55.813 36.6835C54.2187 38.277 52.6226 39.8723 50.9949 41.4999Z" fill="url(#paint1_linear)"/>
</g>
<defs>
<linearGradient id="paint0_linear" x1="122.989" y1="7.90274" x2="41.9312" y2="40.9963" gradientUnits="userSpaceOnUse">
<stop stop-color="#C99A6C"/>
<stop offset="0.2022" stop-color="#EFD7B9"/>
<stop offset="0.4438" stop-color="#DBBA95"/>
<stop offset="0.691" stop-color="#C09362"/>
<stop offset="0.8539" stop-color="#EFDBC0"/>
<stop offset="1" stop-color="#B98C5A"/>
</linearGradient>
<linearGradient id="paint1_linear" x1="91.3048" y1="20.3895" x2="48.541" y2="37.8381" gradientUnits="userSpaceOnUse">
<stop stop-color="#C99A6C"/>
<stop offset="0.2022" stop-color="#EFD7B9"/>
<stop offset="0.4438" stop-color="#DBBA95"/>
<stop offset="0.691" stop-color="#C09362"/>
<stop offset="0.8539" stop-color="#EFDBC0"/>
<stop offset="1" stop-color="#B98C5A"/>
</linearGradient>
<clipPath id="clip0">
<rect width="89.6885" height="89.6754" fill="white" transform="translate(0.311523 0.310547)"/>
</clipPath>
</defs>
</svg>
