<svg width="90" height="97" viewBox="0 0 90 97" fill="none" xmlns="http://www.w3.org/2000/svg">
<g clip-path="url(#clip0)">
<path d="M14.8209 10.0732C14.8209 9.16349 14.8199 8.30642 14.8209 7.4484C14.8228 5.73715 15.3093 4.19252 16.5254 2.96103C18.3832 1.08029 20.6403 0.551683 23.1176 1.3781C25.5471 2.18824 26.9299 3.98089 27.2373 6.52144C27.3608 7.54512 27.2957 8.59179 27.3149 9.62889C27.3187 9.81562 27.3158 10.0024 27.3158 10.214C32.6784 10.214 37.9827 10.214 43.3453 10.214C43.3453 9.28415 43.3443 8.3792 43.3453 7.47426C43.3472 6.42376 43.5358 5.41731 43.9974 4.46353C45.2164 1.94597 47.9935 0.608183 50.8884 1.15498C53.5419 1.65581 55.6018 3.95887 55.7875 6.68615C55.8536 7.65525 55.8249 8.63105 55.8392 9.60399C55.8421 9.7936 55.8392 9.9832 55.8392 10.2408C56.0499 10.2408 56.2194 10.2408 56.3889 10.2408C58.2237 10.2408 60.0594 10.237 61.8942 10.2418C65.785 10.2532 69.0208 12.97 69.6978 16.8062C69.7773 17.2582 69.7907 17.7274 69.7916 18.188C69.7983 21.9217 69.7964 25.6564 69.7955 29.3902C69.7945 30.6331 69.2573 31.1752 68.0239 31.1752C46.2421 31.1761 24.4593 31.1761 2.67741 31.1752C1.39517 31.1752 0.864654 30.6494 0.864654 29.3844C0.863696 25.6181 0.852205 21.8528 0.867527 18.0865C0.883806 14.2666 3.22134 11.207 6.81238 10.3308C7.51718 10.1584 8.26221 10.0991 8.99095 10.0857C10.7453 10.0512 12.5016 10.0751 14.2569 10.0751C14.4283 10.0732 14.5997 10.0732 14.8209 10.0732ZM3.86868 28.1769C24.8538 28.1769 45.8092 28.1769 66.7943 28.1769C66.8049 28.0275 66.8211 27.903 66.8211 27.7795C66.8221 24.5245 66.824 21.2696 66.8183 18.0137C66.8173 17.7121 66.7991 17.4047 66.7388 17.1107C66.2906 14.9187 64.316 13.2544 62.0752 13.219C60.1131 13.1883 58.15 13.2104 56.1878 13.2104C56.0959 13.2104 56.0039 13.2228 55.8622 13.2333C55.8622 13.8587 55.8785 14.461 55.8584 15.0624C55.8249 16.0803 55.8938 17.1222 55.6994 18.1114C55.1115 21.1107 52.8017 23.0144 49.7421 23.1561C46.6328 23.3007 43.7503 20.8942 43.4362 17.7944C43.3003 16.4509 43.3596 15.0882 43.3309 13.7342C43.3271 13.5666 43.33 13.398 43.33 13.2343C37.9635 13.2343 32.6708 13.2343 27.3302 13.2343C27.3302 14.3394 27.3455 15.4205 27.3235 16.5007C27.3129 17.0236 27.2919 17.5589 27.176 18.0654C26.3831 21.5234 23.2517 23.5497 19.7564 22.8928C17.2379 22.4197 15.1187 20.1846 14.8985 17.6498C14.7816 16.3034 14.8257 14.9427 14.7979 13.5886C14.7941 13.4201 14.7979 13.2525 14.7979 13.0696C14.6514 13.0591 14.5738 13.0495 14.4972 13.0495C12.5504 13.0485 10.6036 13.0428 8.6577 13.0543C8.31009 13.0562 7.95577 13.105 7.61582 13.1835C5.33766 13.7093 3.85432 15.5958 3.84283 18.0176C3.82751 21.2562 3.83804 24.4958 3.83995 27.7354C3.83995 27.8724 3.85719 28.0112 3.86868 28.1769ZM52.8237 12.1752C52.8381 12.1752 52.8525 12.1752 52.8668 12.1752C52.8668 10.5961 52.8659 9.01697 52.8668 7.43787C52.8678 6.32513 52.5307 5.35411 51.6162 4.67037C50.5542 3.87651 49.3763 3.77117 48.1812 4.30839C46.9354 4.8686 46.3349 5.91527 46.3273 7.25018C46.311 10.4572 46.3292 13.6643 46.3675 16.8703C46.3732 17.3329 46.492 17.826 46.6845 18.2484C47.2926 19.5861 48.8008 20.2766 50.2832 19.9596C51.7809 19.6398 52.7921 18.4734 52.818 16.9623C52.8448 15.3669 52.8237 13.7715 52.8237 12.1752ZM17.7943 12.1254C17.8067 12.1254 17.8182 12.1254 17.8307 12.1254C17.8307 13.5934 17.822 15.0614 17.8364 16.5294C17.8402 16.924 17.8584 17.3319 17.959 17.7102C18.3459 19.1772 19.8426 20.1827 21.3413 20.019C22.9491 19.8428 24.2476 18.6065 24.2764 17.0628C24.3367 13.761 24.3482 10.4582 24.3261 7.15633C24.3175 5.88079 23.7037 4.88871 22.5287 4.32372C20.2678 3.23587 17.846 4.77858 17.801 7.34019C17.7713 8.93462 17.7943 10.53 17.7943 12.1254Z" fill="#027F84"/>
<path d="M45.7212 73.948C45.7413 61.7432 55.6851 51.7879 67.8746 51.8224C79.9041 51.8568 89.9878 61.3841 90.0002 73.9595C90.0136 86.2025 80.3168 96.0841 67.887 96.0985C55.3797 96.1119 45.7739 86.078 45.7212 73.948ZM66.3903 93.0341C66.3903 92.8608 66.3903 92.6904 66.3903 92.5189C66.3922 91.705 66.3769 90.891 66.4008 90.077C66.4219 89.3512 66.9792 88.7709 67.6821 88.6885C68.4175 88.6023 69.0975 89.0438 69.2832 89.7591C69.3464 90.0014 69.3551 90.2628 69.3579 90.5156C69.3665 91.3564 69.3608 92.1972 69.3608 93.0408C79.0537 92.4136 86.4963 84.2002 86.9215 75.4562C86.7644 75.4562 86.6074 75.4562 86.4513 75.4562C85.6689 75.4562 84.8866 75.4677 84.1051 75.4524C83.2136 75.4352 82.5749 74.7897 82.5845 73.9441C82.594 73.1139 83.2213 72.502 84.0994 72.4895C84.9134 72.478 85.7273 72.4886 86.5413 72.4847C86.6763 72.4838 86.8114 72.4646 86.9445 72.4531C86.2588 62.4298 77.6815 55.2219 69.3598 54.925C69.3598 55.8482 69.3675 56.7703 69.357 57.6925C69.3493 58.3954 68.9835 58.9355 68.3974 59.1577C67.4417 59.5187 66.4228 58.8503 66.397 57.8161C66.373 56.8479 66.3922 55.8778 66.3922 54.8484C61.3494 55.3224 57.1359 57.3439 53.7508 61.0164C50.7803 64.2388 49.1437 68.0625 48.7607 72.4867C49.7748 72.4867 50.7132 72.48 51.6517 72.4886C52.3527 72.4953 52.9081 72.908 53.0919 73.5333C53.3811 74.5158 52.6869 75.4323 51.6172 75.4505C50.6807 75.4667 49.7441 75.4533 48.8057 75.4533C49.3065 84.656 57.157 92.5075 66.3903 93.0341Z" fill="url(#paint0_linear)"/>
<path d="M0.864564 53.7883C0.864564 47.8674 0.863607 41.9474 0.867437 36.0265C0.867437 35.7411 0.869352 35.4443 0.945004 35.1742C1.12599 34.5278 1.77046 34.116 2.45324 34.1639C3.12261 34.2109 3.66845 34.6753 3.78624 35.3332C3.83412 35.5975 3.83603 35.8723 3.83603 36.1424C3.83795 47.7275 3.84274 59.3137 3.8322 70.8989C3.83029 72.6848 4.45848 74.1346 5.92746 75.1775C6.79984 75.7971 7.7881 76.048 8.85775 76.047C19.6452 76.0422 30.4327 76.0432 41.2212 76.048C41.4893 76.048 41.769 76.0604 42.0227 76.1341C42.717 76.3372 43.1211 76.995 43.0397 77.7247C42.9641 78.3999 42.3933 78.9495 41.6981 79.0089C41.5554 79.0213 41.4108 79.0166 41.2672 79.0166C30.4797 79.0166 19.6922 79.0185 8.90467 79.0156C4.80226 79.0146 1.65651 76.3831 0.962241 72.3564C0.873183 71.8412 0.869352 71.3078 0.868395 70.783C0.862649 65.1187 0.864564 59.4535 0.864564 53.7883Z" fill="#027F84"/>
<path d="M22.2029 35.9282C24.7559 35.9282 27.3079 35.9272 29.8609 35.9282C31.0512 35.9291 31.6229 36.497 31.6229 37.6883C31.6248 41.5168 31.6248 45.3463 31.6229 49.1748C31.622 50.3689 31.0522 50.9426 29.8676 50.9426C24.7463 50.9435 19.625 50.9435 14.5037 50.9426C13.3076 50.9426 12.7551 50.3881 12.7551 49.1815C12.7532 45.353 12.7532 41.5235 12.7551 37.695C12.7561 36.4663 13.3029 35.9282 14.5449 35.9282C17.0979 35.9282 19.6499 35.9282 22.2029 35.9282ZM28.6093 47.9481C28.6093 44.9211 28.6093 41.9219 28.6093 38.9293C24.2991 38.9293 20.031 38.9293 15.7591 38.9293C15.7591 41.9515 15.7591 44.9412 15.7591 47.9481C20.0598 47.9481 24.3259 47.9481 28.6093 47.9481Z" fill="#027F84"/>
<path d="M48.3526 35.9286C50.9056 35.9286 53.4576 35.9276 56.0106 35.9286C57.1999 35.9295 57.7726 36.5012 57.7736 37.6887C57.7745 41.5172 57.7755 45.3467 57.7736 49.1752C57.7726 50.3694 57.2028 50.943 56.0182 50.943C50.8807 50.9439 45.744 50.9439 40.6064 50.943C39.4765 50.943 38.9067 50.3703 38.9057 49.2298C38.9028 45.3534 38.9028 41.476 38.9057 37.5996C38.9067 36.5022 39.4899 35.9295 40.5988 35.9286C43.1834 35.9267 45.768 35.9286 48.3526 35.9286ZM54.7762 38.9297C50.4488 38.9297 46.1807 38.9297 41.9088 38.9297C41.9088 41.952 41.9088 44.9426 41.9088 47.9323C46.22 47.9323 50.4986 47.9323 54.7762 47.9323C54.7762 44.911 54.7762 41.9328 54.7762 38.9297Z" fill="#027F84"/>
<path d="M22.1965 56.2939C24.7485 56.2939 27.3015 56.292 29.8535 56.2949C31.0812 56.2958 31.6241 56.8484 31.6251 58.0856C31.6261 61.8826 31.6261 65.6785 31.6251 69.4755C31.6251 70.7443 31.086 71.2882 29.8257 71.2882C24.737 71.2901 19.6482 71.2901 14.5595 71.2882C13.283 71.2882 12.7563 70.7634 12.7554 69.4946C12.7544 65.6824 12.7544 61.8691 12.7554 58.0569C12.7554 56.8244 13.2926 56.2939 14.5394 56.293C17.0914 56.293 19.6435 56.2939 22.1965 56.2939ZM28.6182 68.2919C28.6182 65.2572 28.6182 62.2809 28.6182 59.2989C24.3137 59.2989 20.0437 59.2989 15.7699 59.2989C15.7699 62.3154 15.7699 65.3022 15.7699 68.2919C20.0696 68.2919 24.3281 68.2919 28.6182 68.2919Z" fill="#027F84"/>
<path d="M41.8754 59.27C41.8754 59.4759 41.8754 59.6166 41.8754 59.7574C41.8754 62.4693 41.8792 65.1823 41.8696 67.8942C41.8687 68.1968 41.9299 68.3644 42.2383 68.5004C42.8684 68.78 43.1681 69.4772 43.0197 70.1389C42.8751 70.7833 42.3446 71.2392 41.6541 71.2765C41.2251 71.3004 40.7923 71.2995 40.3623 71.2813C39.4871 71.243 38.9163 70.655 38.9087 69.7721C38.8972 68.4803 38.9048 67.1875 38.9048 65.8947C38.9048 63.2622 38.9029 60.6298 38.9058 57.9973C38.9068 56.853 39.4603 56.2985 40.6065 56.2966C42.6644 56.2927 44.7233 56.2889 46.7812 56.3023C47.5387 56.3071 48.1132 56.8156 48.2243 57.5147C48.3364 58.2252 47.9849 58.9003 47.3328 59.1369C47.0704 59.2317 46.7726 59.2613 46.4901 59.2642C45.1504 59.2767 43.8097 59.27 42.4691 59.27C42.2948 59.27 42.1215 59.27 41.8754 59.27Z" fill="#027F84"/>
<path d="M66.6852 41.5243C66.6852 39.6254 66.6833 37.7264 66.6861 35.8275C66.6871 34.8095 67.2846 34.1497 68.1838 34.1603C69.0648 34.1708 69.6538 34.8258 69.6547 35.8131C69.6576 39.611 69.6576 43.4099 69.6547 47.2077C69.6538 48.1845 69.0476 48.8481 68.1733 48.852C67.2894 48.8558 66.689 48.2027 66.6871 47.2212C66.6823 45.3222 66.6852 43.4233 66.6852 41.5243Z" fill="#027F84"/>
<path d="M69.3617 72.3258C69.5915 72.3258 69.7629 72.3258 69.9344 72.3258C71.6561 72.3258 73.3779 72.323 75.1007 72.3268C76.1157 72.3287 76.7746 72.9253 76.7707 73.8264C76.7669 74.7141 76.1282 75.2916 75.1304 75.2935C72.7708 75.2973 70.4112 75.2973 68.0507 75.2944C66.9638 75.2925 66.3921 74.7294 66.3912 73.6512C66.3874 70.3024 66.3874 66.9546 66.3902 63.6058C66.3912 62.5754 66.9725 61.9367 67.886 61.9434C68.7785 61.9511 69.3588 62.6128 69.3598 63.6403C69.3627 66.3187 69.3607 68.9972 69.3607 71.6766C69.3617 71.8671 69.3617 72.0577 69.3617 72.3258Z" fill="url(#paint1_linear)"/>
</g>
<defs>
<linearGradient id="paint0_linear" x1="139.54" y1="45.6877" x2="52.8739" y2="81.0731" gradientUnits="userSpaceOnUse">
<stop stop-color="#C99A6C"/>
<stop offset="0.2022" stop-color="#EFD7B9"/>
<stop offset="0.4438" stop-color="#DBBA95"/>
<stop offset="0.691" stop-color="#C09362"/>
<stop offset="0.8539" stop-color="#EFDBC0"/>
<stop offset="1" stop-color="#B98C5A"/>
</linearGradient>
<linearGradient id="paint1_linear" x1="88.3869" y1="60.0932" x2="66.8481" y2="66.9306" gradientUnits="userSpaceOnUse">
<stop stop-color="#C99A6C"/>
<stop offset="0.2022" stop-color="#EFD7B9"/>
<stop offset="0.4438" stop-color="#DBBA95"/>
<stop offset="0.691" stop-color="#C09362"/>
<stop offset="0.8539" stop-color="#EFDBC0"/>
<stop offset="1" stop-color="#B98C5A"/>
</linearGradient>
<clipPath id="clip0">
<rect width="89.1403" height="95.1004" fill="white" transform="translate(0.859863 0.998047)"/>
</clipPath>
</defs>
</svg>
