<svg width="89" height="88" viewBox="0 0 89 88" fill="none" xmlns="http://www.w3.org/2000/svg">
<g clip-path="url(#clip0)">
<path d="M39.3828 48.1894C38.2334 49.2366 36.9401 49.7239 35.4905 49.8679C32.3206 50.1842 29.2146 48.123 28.4505 45.033C28.1182 43.6892 28.0554 42.279 27.8795 40.8983C27.2777 36.2037 26.6821 31.5079 26.0779 26.8133C25.8404 24.9638 25.5279 23.1229 25.3568 21.2684C25.1513 19.0411 25.7949 17.0242 27.322 15.3789C30.7528 11.6811 34.2132 8.01031 37.6932 4.35677C40.462 1.45018 43.8842 -0.05972 47.9007 0.00180813C49.3823 0.0239583 50.8602 0.390666 52.3357 0.629395C58.8269 1.67906 65.3157 2.74104 71.8056 3.79563C76.8805 4.62011 81.9566 5.43966 87.0302 6.26537C87.8485 6.39827 88.3358 7.15999 88.2066 8.06445C88.0958 8.83356 87.3932 9.36762 86.5429 9.24456C84.8004 8.99107 83.0628 8.69819 81.324 8.41516C75.421 7.45163 69.5193 6.48318 63.615 5.51965C58.4799 4.68164 53.3497 3.81286 48.2071 3.03145C46.3699 2.75212 44.6004 3.27018 43.0166 4.18326C41.9473 4.79977 40.9136 5.5578 40.051 6.43642C36.6312 9.91891 33.294 13.4802 29.9099 16.9959C28.656 18.299 28.1785 19.7634 28.4701 21.5908C29.003 24.9281 29.3943 28.2888 29.8447 31.6383C30.1363 33.8103 30.4292 35.981 30.7159 38.1062C31.4752 37.9413 32.2 37.7038 32.9395 37.641C33.972 37.5537 34.602 38.1296 34.6525 39.0525C34.7079 40.0603 34.212 40.6128 33.1377 40.7457C31.9846 40.8885 31.7533 41.1383 31.5207 42.5005C31.2808 43.9034 31.9133 45.2767 33.1537 46.047C34.3682 46.8013 35.9163 46.7755 37.0349 45.9449C38.0218 45.2114 38.5275 44.2147 38.4845 42.9767C38.274 36.9113 38.0513 30.8459 37.8507 24.7792C37.8384 24.4125 37.6551 24.2919 37.3856 24.1614C35.7809 23.3887 34.1713 22.6232 32.5827 21.8172C32.2554 21.6511 31.9379 21.3668 31.7447 21.0567C31.4112 20.5214 31.5158 19.7831 31.8776 19.3869C32.3033 18.9205 33.0946 18.7494 33.7554 19.0509C34.8358 19.5444 35.8966 20.0797 36.9647 20.5965C37.5911 20.9005 38.2064 21.2327 38.8512 21.4899C39.0665 21.576 39.4197 21.5551 39.6104 21.4296C42.0457 19.836 44.4675 18.2227 46.8744 16.5873C47.0799 16.4483 47.2571 16.1086 47.2621 15.8588C47.2965 14.1988 47.2645 12.5363 47.2879 10.8763C47.3039 9.74294 48.057 9.11905 49.1325 9.29009C49.9398 9.4193 50.3963 9.94968 50.4062 10.8369C50.4222 12.3751 50.432 13.9133 50.4012 15.4503C50.3926 15.9056 50.5501 16.0828 50.9698 16.2145C53.4321 16.9811 55.8871 17.7711 58.3384 18.5735C58.6805 18.6854 59.0336 18.8503 59.3007 19.0829C59.8384 19.5518 59.943 20.3553 59.6157 20.9374C59.2281 21.6265 58.4565 21.9452 57.6616 21.6905C55.3813 20.9571 53.0765 20.2876 50.8442 19.4275C49.5226 18.918 48.5295 19.0386 47.3864 19.8963C45.4544 21.3447 43.3883 22.6159 41.3689 23.9461C41.0785 24.1368 40.9677 24.3337 40.9813 24.6918C41.1831 30.2035 41.3689 35.7164 41.5596 41.2294C41.5707 41.5481 41.6003 41.8656 41.6286 42.2741C43.3169 41.0349 45.0507 40.3999 47.0984 41.0078C47.1735 40.7494 47.2473 40.5009 47.3174 40.2523C47.646 39.0894 48.2158 38.0631 49.0095 37.1513C53.154 32.3865 57.3022 27.6242 61.4234 22.8386C62.2589 21.8677 62.697 20.6986 62.7056 19.3942C62.7069 19.1481 62.6982 18.902 62.7118 18.6559C62.7622 17.7342 63.3369 17.1632 64.234 17.1349C65.1286 17.1066 65.7771 17.6358 65.8386 18.5599C65.9826 20.7134 65.5913 22.7537 64.1565 24.4383C61.0985 28.0291 57.995 31.5793 54.91 35.1467C53.944 36.2628 52.9547 37.3605 52.0145 38.4987C51.1027 39.6013 50.3262 40.795 50.4025 42.3073C50.5071 44.3697 51.5112 45.9473 53.2894 46.9355C55.0245 47.9002 56.8285 47.8202 58.4602 46.6684C59.9319 45.6286 61.32 44.4694 62.7204 43.3324C62.8668 43.2142 62.9407 42.8598 62.8841 42.6605C62.3278 40.7064 60.6063 39.3478 58.5636 39.2075C57.461 39.1312 56.954 38.7965 56.7817 38.0299C56.5257 36.883 57.2013 36.0056 58.3876 36.045C61.5809 36.1496 63.8845 37.7001 65.4116 40.4676C65.5002 40.6288 65.5815 40.7937 65.6676 40.9562C65.6774 40.9734 65.6947 40.9869 65.7427 41.0374C68.0684 39.2383 70.3979 37.4368 72.9562 35.4568C72.5772 35.1774 72.2216 34.9682 71.9299 34.6914C71.2027 33.9986 70.4877 33.291 69.7986 32.56C69.1575 31.8808 69.1809 30.9788 69.8084 30.3586C70.4446 29.7297 71.3208 29.7174 72.005 30.3832C72.8824 31.2372 73.7241 32.1281 74.6544 33.0781C75.5059 31.3504 76.3009 29.742 77.0921 28.1312C77.689 26.9179 78.2759 25.7009 78.8765 24.4912C79.3256 23.5855 80.1735 23.241 81.0053 23.6102C81.804 23.9646 82.0882 24.8739 81.6809 25.8092C81.4323 26.3801 81.1678 26.945 80.8367 27.6759C82.2814 26.9794 83.5649 26.3605 84.8471 25.7403C85.1794 25.5803 85.5043 25.4055 85.839 25.2517C86.7225 24.8432 87.6455 25.1053 88.0195 25.8645C88.4232 26.6829 88.1081 27.5787 87.2234 28.0254C84.462 29.4184 81.6895 30.788 78.9343 32.1933C78.655 32.3361 78.3732 32.6191 78.2526 32.9046C77.1881 35.4162 75.5749 37.4614 73.3918 39.1214C68.9544 42.4981 64.6093 45.9953 60.1621 49.3572C57.6505 51.256 54.8977 51.2855 52.1056 49.911C51.9247 49.8224 51.7512 49.7178 51.5432 49.6046C51.4214 49.815 51.3131 50.0094 51.1974 50.1989C50.3692 51.5599 49.2211 52.5296 47.7149 53.0809C47.5377 53.1461 47.3002 53.3861 47.3002 53.5448C47.2805 58.7538 47.2867 63.9628 47.2916 69.1717C47.2916 69.2283 47.3261 69.2862 47.3704 69.4215C48.8372 69.0585 50.3053 68.7127 51.7647 68.3325C57.3724 66.8706 62.98 65.4124 68.6935 64.4082C70.3474 64.1178 72.0099 63.8705 73.6712 63.6231C74.583 63.4878 75.3349 64.012 75.458 64.8229C75.5859 65.672 74.8845 66.5912 73.9394 66.7635C73.174 66.9026 72.3988 66.9875 71.6297 67.1093C65.878 68.0212 60.2384 69.4363 54.6073 70.8921C52.3283 71.4815 50.0358 72.018 47.7494 72.5792C47.5513 72.6284 47.3556 72.685 47.107 72.7514C47.107 73.8417 47.107 74.9258 47.107 76.01C47.107 77.2811 47.1107 78.5523 47.107 79.8247C47.1021 81.0971 46.5828 81.7038 45.5171 81.6952C44.4896 81.6866 43.9789 81.0774 43.9789 79.8358C43.9765 71.2231 43.9728 62.6104 43.99 53.9977C43.9912 53.4316 43.8522 53.1683 43.2849 52.9505C41.1388 52.1297 39.9255 50.4832 39.3828 48.1894ZM45.5294 50.0611C47.1279 50.05 48.4114 49.1025 48.74 47.6406C48.8052 47.3502 48.7744 46.9884 48.6575 46.7152C48.393 46.0999 48.0496 45.5191 47.7285 44.9284C47.6337 44.7549 47.5439 44.5506 47.3937 44.4387C46.413 43.6991 44.8809 43.7471 43.8288 44.5273C42.7336 45.3394 42.2795 46.7423 42.6979 48.0245C43.1065 49.2772 44.2078 50.0697 45.5294 50.0611Z" fill="#027F84"/>
<path d="M15.7746 71.6238C16.8969 71.7383 17.9539 71.8478 19.011 71.9536C19.5007 72.0028 19.9905 72.0484 20.4803 72.0878C21.4696 72.169 22.1526 72.9492 22.0628 73.9016C21.984 74.7458 21.1398 75.3463 20.1714 75.2429C18.867 75.1039 17.5638 74.9624 16.2594 74.8258C16.1228 74.811 15.9838 74.8233 15.7734 74.8233C15.7734 75.0903 15.7734 75.3303 15.7734 75.5703C15.7734 78.072 15.7844 80.5737 15.7684 83.0742C15.7598 84.4303 14.8431 85.1465 13.6506 84.7712C12.9788 84.5595 12.6219 84.0414 12.6182 83.2059C12.6096 81.2579 12.6145 79.3099 12.6145 77.3619C12.6145 68.5253 12.6096 59.6874 12.6268 50.8507C12.628 50.2933 12.5185 50.0127 11.9414 49.785C9.18124 48.6972 7.64919 46.0958 7.94206 43.1375C8.2054 40.4734 10.3564 38.2227 13.1338 37.7083C16.2397 37.1324 19.3986 39.1284 20.2465 42.2023C21.1214 45.3698 19.4761 48.7157 16.46 49.8133C15.9321 50.0053 15.7574 50.2293 15.7586 50.8003C15.782 57.4638 15.7734 64.1273 15.7734 70.792C15.7746 71.0381 15.7746 71.283 15.7746 71.6238ZM17.3263 43.9017C17.3214 42.1765 15.9309 40.7736 14.2105 40.7589C12.4841 40.7441 11.0271 42.1937 11.0345 43.9189C11.0418 45.6491 12.5074 47.0926 14.2265 47.063C15.9518 47.031 17.3313 45.6257 17.3263 43.9017Z" fill="#027F84"/>
<path d="M28.4002 72.1787C30.4749 72.0446 32.498 71.9523 34.5136 71.7727C35.9608 71.6434 37.3944 71.3678 38.8403 71.2263C39.282 71.1832 39.7816 71.2866 40.1914 71.4687C40.7956 71.737 41.0688 72.4384 40.9482 73.0734C40.8301 73.6973 40.3452 74.2042 39.6537 74.3039C37.5248 74.6079 35.3959 74.9229 33.2597 75.1518C31.6562 75.3241 30.0393 75.3708 28.367 75.4766C28.367 75.6895 28.367 75.9086 28.367 76.1276C28.367 79.5104 28.3719 82.8932 28.3645 86.2748C28.362 87.4919 27.6483 88.1293 26.499 87.9767C25.8714 87.893 25.3976 87.4759 25.2807 86.8495C25.2216 86.5296 25.2118 86.1973 25.2118 85.8712C25.2081 78.3069 25.2044 70.7414 25.2192 63.1772C25.2204 62.6751 25.0826 62.4438 24.5928 62.2506C21.8437 61.1689 20.1788 58.4518 20.5209 55.699C20.8925 52.7149 23.1408 50.4532 26.1003 50.0852C29.125 49.7099 32.1042 51.7637 32.8856 54.7626C33.683 57.8205 32.0611 61.0938 29.1828 62.2321C28.9355 62.3293 28.6832 62.4118 28.4014 62.5127C28.4002 65.6801 28.4002 68.8464 28.4002 72.1787ZM26.7844 53.3733C25.0494 53.377 23.6687 54.7515 23.6564 56.4891C23.6441 58.2426 25.0543 59.6639 26.8004 59.6602C28.506 59.6565 29.9322 58.2389 29.9482 56.5334C29.9642 54.8044 28.5282 53.3696 26.7844 53.3733Z" fill="url(#paint0_linear)"/>
<path d="M81.9124 62.8256C83.5552 62.8256 85.1119 62.8059 86.6661 62.8329C87.6271 62.8489 88.1735 63.4088 88.2018 64.3108C88.2326 65.2916 87.6788 65.9032 86.6944 65.945C85.3432 66.0029 83.9908 66.0435 82.6384 66.0952C82.4169 66.1038 82.1967 66.1235 81.9124 66.1419C81.9124 66.4053 81.9124 66.6243 81.9124 66.8433C81.9124 71.2303 81.9161 75.6185 81.9087 80.0054C81.9062 81.1757 81.2491 81.7873 80.1453 81.6901C79.4094 81.6261 78.8914 81.1351 78.8089 80.3992C78.7769 80.115 78.7806 79.8258 78.7806 79.5391C78.7794 70.9903 78.7757 62.4404 78.7905 53.8917C78.7917 53.3871 78.6477 53.1607 78.1616 52.9712C75.5061 51.9375 73.8461 49.3534 74.0565 46.6707C74.2792 43.8294 76.2149 41.5651 78.9714 40.9203C82.1622 40.1746 85.4281 42.0943 86.3818 45.2765C87.3355 48.4563 85.6176 51.9252 82.5178 53.0032C82.0478 53.1669 81.8939 53.3539 81.8989 53.8535C81.9259 56.6826 81.9124 59.5117 81.9124 62.3407C81.9124 62.5241 81.9124 62.705 81.9124 62.8256ZM80.3151 50.1988C82.0687 50.2098 83.4949 48.8008 83.4937 47.0584C83.4924 45.3466 82.0859 43.9278 80.3742 43.913C78.6256 43.897 77.208 45.306 77.2067 47.0608C77.2067 48.7922 78.5886 50.1877 80.3151 50.1988Z" fill="url(#paint1_linear)"/>
<path d="M9.48258 71.9495C9.49734 72.9474 8.62118 73.703 7.56536 73.5086C5.47217 73.1234 3.38637 72.6976 1.30426 72.2522C0.394874 72.0577 -0.107196 71.296 0.0183215 70.442C0.142608 69.5954 0.877254 68.9715 1.79033 69.1302C3.98689 69.5129 6.1736 69.9596 8.35415 70.4285C9.0445 70.5774 9.47273 71.248 9.48258 71.9495Z" fill="#027F84"/>
</g>
<defs>
<linearGradient id="paint0_linear" x1="63.9113" y1="44.7818" x2="19.2695" y2="54.6249" gradientUnits="userSpaceOnUse">
<stop stop-color="#C99A6C"/>
<stop offset="0.2022" stop-color="#EFD7B9"/>
<stop offset="0.4438" stop-color="#DBBA95"/>
<stop offset="0.691" stop-color="#C09362"/>
<stop offset="0.8539" stop-color="#EFDBC0"/>
<stop offset="1" stop-color="#B98C5A"/>
</linearGradient>
<linearGradient id="paint1_linear" x1="104.05" y1="35.0874" x2="72.3377" y2="39.5668" gradientUnits="userSpaceOnUse">
<stop stop-color="#C99A6C"/>
<stop offset="0.2022" stop-color="#EFD7B9"/>
<stop offset="0.4438" stop-color="#DBBA95"/>
<stop offset="0.691" stop-color="#C09362"/>
<stop offset="0.8539" stop-color="#EFDBC0"/>
<stop offset="1" stop-color="#B98C5A"/>
</linearGradient>
<clipPath id="clip0">
<rect width="88.2252" height="88" fill="white"/>
</clipPath>
</defs>
</svg>
