<svg width="93" height="99" viewBox="0 0 93 99" fill="none" xmlns="http://www.w3.org/2000/svg">
<g clip-path="url(#clip0)">
<path d="M73.8041 25.0817C73.8041 24.8583 73.8041 24.643 73.8041 24.4286C73.796 20.5052 73.7829 16.5817 73.7829 12.6583C73.7829 9.03668 73.797 5.4151 73.8051 1.79353C73.8071 0.55078 74.3354 0.00336729 75.5711 0.00236102C80.7524 -0.00267034 85.9337 -0.00367661 91.115 0.00135475C92.3305 0.00236102 92.887 0.578955 92.888 1.8056C92.891 5.31045 92.89 8.81429 92.888 12.3191C92.887 13.6082 92.3507 14.1355 91.0445 14.1355C86.5334 14.1365 82.0233 14.1355 77.5122 14.1355C77.2958 14.1355 77.0785 14.1355 76.8058 14.1355C76.7856 14.3558 76.7524 14.547 76.7524 14.7382C76.7494 18.4101 76.7514 22.083 76.7494 25.7549C76.7484 26.894 76.7675 28.0341 76.7212 29.1712C76.689 29.952 75.9907 30.5226 75.2209 30.4884C74.438 30.4542 73.8393 29.8565 73.8081 29.0655C73.796 28.7697 73.8061 28.4738 73.8061 28.1226C72.5543 28.3249 71.4343 28.6338 70.5125 29.4217C69.7568 30.0678 69.7669 30.6474 70.5377 31.2984C71.396 32.025 72.4375 32.351 73.5193 32.5331C75.1806 32.8129 76.839 32.7616 78.4208 32.1487C79.0618 31.9012 79.6767 31.5128 80.207 31.073C80.7524 30.6212 80.7081 30.106 80.204 29.5938C79.9705 29.3563 79.6827 29.1752 79.4281 28.9579C78.8556 28.4708 78.7278 27.6738 79.1132 27.0479C79.4996 26.421 80.2804 26.1725 80.9577 26.4613C82.463 27.1033 83.6303 28.9397 83.5448 30.5729C83.4864 31.6869 82.9571 32.5865 82.1662 33.3372C80.9456 34.4954 79.4412 35.081 77.8211 35.394C75.3467 35.872 72.9185 35.7109 70.5749 34.7389C69.2446 34.1875 68.1287 33.3673 67.3931 32.0823C67.3096 31.9374 67.0137 31.8448 66.8155 31.8438C62.5731 31.8308 58.3306 31.8338 54.0882 31.8338C53.2328 31.8338 52.3775 31.8237 51.5232 31.8438C51.3682 31.8479 51.1468 31.9324 51.0724 32.0521C50.2432 33.3794 48.9964 34.0647 47.5172 34.3797C45.6264 34.7822 43.8121 34.5849 42.1457 33.5515C39.5797 31.9596 39.5435 28.8612 42.0572 27.1929C44.1905 25.778 47.5232 25.7499 49.6354 27.1908C50.1486 27.541 50.5662 28.0482 50.9738 28.5282C51.1519 28.7375 51.2857 28.8633 51.5735 28.8633C56.6713 28.8552 61.769 28.8592 66.8658 28.8492C67.0389 28.8492 67.3015 28.7797 67.371 28.657C68.3792 26.8749 70.0285 26.0226 71.9022 25.4993C72.512 25.3323 73.1389 25.2266 73.8041 25.0817ZM89.9175 11.1448C89.9175 10.9164 89.9175 10.7514 89.9175 10.5863C89.9175 8.23971 89.9064 5.89308 89.9276 3.54645C89.9316 3.09162 89.8129 2.95275 89.3439 2.95476C85.338 2.97288 81.332 2.96483 77.327 2.96684C77.1519 2.96684 76.9758 2.98697 76.7947 2.99803C76.7947 5.74516 76.7947 8.43191 76.7947 11.1438C81.172 11.1448 85.507 11.1448 89.9175 11.1448ZM45.878 31.5943C46.6649 31.6023 47.4126 31.4494 48.0697 30.9966C48.7056 30.5578 48.7026 30.1603 48.0847 29.7095C46.9628 28.8914 44.7228 28.9005 43.6099 29.7266C43.0232 30.1624 43.0272 30.5608 43.639 30.9895C44.3102 31.4594 45.076 31.6013 45.878 31.5943Z" fill="url(#paint0_linear)"/>
<path d="M32.8811 62.8355C27.2973 62.8355 21.7135 62.8315 16.1287 62.8365C12.9609 62.8395 10.3526 65.1127 9.91391 68.2382C9.48122 71.3124 11.4495 74.2758 14.4985 75.0758C15.1063 75.2358 15.7563 75.2972 16.3873 75.3012C20.0934 75.3213 23.7995 75.3063 27.5046 75.3173C27.888 75.3183 28.1395 75.2177 28.385 74.8947C29.347 73.6288 30.7196 73.0643 32.2361 72.864C33.7223 72.6678 35.1814 72.8248 36.5409 73.5292C37.6045 74.0806 38.4427 74.8494 38.806 76.0288C39.1904 77.2755 38.8956 78.4015 38.0332 79.3414C36.5912 80.9122 34.7125 81.3298 32.6738 81.202C31.4502 81.1245 30.2829 80.7884 29.3128 80.0156C28.8379 79.6372 28.4313 79.1482 28.0832 78.6471C27.8819 78.3573 27.7038 78.2476 27.3667 78.2486C23.6948 78.2577 20.0219 78.2375 16.35 78.2597C13.6613 78.2758 11.3277 77.4053 9.49027 75.4441C6.97157 72.7564 6.23599 69.5735 7.42138 66.0908C8.60274 62.6202 11.1456 60.6207 14.742 59.9676C15.2331 59.8781 15.7433 59.866 16.2454 59.866C27.3969 59.861 38.5484 59.862 49.6989 59.862C49.8166 59.862 49.9334 59.86 50.0511 59.863C50.9839 59.8861 51.6662 60.5382 51.644 61.3845C51.6219 62.2227 50.9567 62.8335 50.037 62.8345C46.7002 62.8395 43.3634 62.8365 40.0256 62.8365C37.6428 62.8355 35.2619 62.8355 32.8811 62.8355ZM33.3037 78.2667C34.0987 78.2597 34.8815 78.1117 35.5568 77.6167C36.1364 77.191 36.1253 76.8207 35.5487 76.385C34.4267 75.5387 32.1676 75.5447 31.0346 76.3981C30.465 76.8267 30.461 77.2061 31.0466 77.6277C31.7108 78.1067 32.4766 78.2556 33.3037 78.2667Z" fill="#027F84"/>
<path d="M59.315 47.4342C53.7473 47.4342 48.1796 47.4362 42.6119 47.4321C41.4597 47.4311 40.7342 46.5607 41.0139 45.5373C41.2011 44.851 41.7857 44.4546 42.633 44.4546C45.8692 44.4526 49.1063 44.4536 52.3425 44.4536C60.0737 44.4536 67.8049 44.4465 75.5351 44.4566C79.9587 44.4626 83.6004 47.3697 84.5925 51.6524C85.8031 56.882 82.1292 62.1096 76.7889 62.7446C76.2908 62.804 75.7866 62.8301 75.2855 62.8311C71.8813 62.8382 68.4771 62.8402 65.0729 62.8271C64.7146 62.8261 64.5134 62.9307 64.3061 63.2346C63.4427 64.5035 62.1627 65.1224 60.6966 65.3911C58.7746 65.7433 56.9472 65.4937 55.3181 64.3586C53.0238 62.7607 53.0127 59.9391 55.2667 58.2878C57.395 56.7281 60.9965 56.6747 63.1338 58.2254C63.6359 58.5897 64.0032 59.1381 64.45 59.5849C64.5748 59.7097 64.7629 59.8485 64.9219 59.8485C68.6451 59.8586 72.3683 59.8908 76.0905 59.8334C78.8286 59.7902 81.3916 57.3942 81.7679 54.6602C82.3154 50.6834 79.4907 47.4402 75.4646 47.4362C70.0821 47.4301 64.6985 47.4342 59.315 47.4342ZM59.2133 62.5695C60.0747 62.5604 60.8737 62.4095 61.5559 61.8892C62.0863 61.4857 62.0752 61.1366 61.5529 60.719C60.4501 59.8365 58.0763 59.8405 56.9573 60.727C56.4411 61.1366 56.435 61.4928 56.9673 61.8973C57.6345 62.4055 58.4184 62.5504 59.2133 62.5695Z" fill="#027F84"/>
<path d="M59.6107 75.3103C64.9269 75.3103 70.243 75.3053 75.5591 75.3123C80.2453 75.3194 84.0219 78.5737 84.7333 83.2015C85.4971 88.1725 81.963 92.9463 76.9951 93.6336C76.4336 93.711 75.86 93.7362 75.2925 93.7372C71.9053 93.7463 68.5172 93.7473 65.1291 93.7332C64.7508 93.7312 64.5374 93.8459 64.3211 94.1669C63.4074 95.5233 62.0378 96.1533 60.4771 96.3827C58.5732 96.6624 56.7579 96.4018 55.1751 95.2174C53.077 93.6466 53.0639 90.9699 55.1237 89.3509C57.3235 87.6221 61.1594 87.602 63.3571 89.3398C63.7576 89.6558 64.0494 90.1066 64.4126 90.4739C64.5495 90.6117 64.7477 90.7818 64.9178 90.7818C68.6903 90.7838 72.4669 90.8593 76.2353 90.7194C79.6557 90.5936 82.3052 87.1703 81.8061 83.7821C81.312 80.4282 78.7883 78.2517 75.4032 78.2517C64.6199 78.2527 53.8367 78.2527 43.0525 78.2497C42.7707 78.2497 42.4739 78.2476 42.2082 78.1681C41.525 77.9629 41.1205 77.2655 41.2231 76.5511C41.3257 75.8346 41.9164 75.3204 42.7053 75.3164C45.1707 75.3043 47.6361 75.3103 50.1014 75.3093C53.2712 75.3093 56.441 75.3103 59.6107 75.3103ZM59.2475 93.544C60.0736 93.4917 60.8836 93.3759 61.5639 92.8466C62.0751 92.4482 62.0731 92.1181 61.585 91.7075C60.4932 90.7918 58.0651 90.7828 56.9511 91.6894C56.4369 92.108 56.4369 92.4522 56.9723 92.8607C57.6414 93.3719 58.4344 93.4907 59.2475 93.544Z" fill="#027F84"/>
<path d="M26.1129 31.8381C22.7932 31.8381 19.4735 31.835 16.1538 31.8391C12.9378 31.8431 10.2611 34.1917 9.9049 37.3132C9.52755 40.6208 11.4908 43.5118 14.6545 44.2796C15.1053 44.3893 15.5813 44.4436 16.0452 44.4457C19.9183 44.4587 23.7915 44.4567 27.6646 44.4436C27.8689 44.4426 28.1547 44.3662 28.2653 44.2202C29.2907 42.8739 30.7116 42.26 32.3226 42.0628C33.8642 41.8736 35.3696 42.0688 36.7502 42.8507C37.7947 43.4434 38.5897 44.2575 38.8664 45.467C39.1874 46.8678 38.6944 48.0209 37.6549 48.9336C36.2219 50.1935 34.4881 50.5537 32.6386 50.4098C31.257 50.3032 29.972 49.8815 28.9305 48.9226C28.5914 48.6096 28.2865 48.2302 28.0651 47.8277C27.889 47.5077 27.6998 47.4252 27.3627 47.4262C23.6576 47.4363 19.9515 47.4363 16.2464 47.4303C11.84 47.4232 8.20631 44.6036 7.1618 40.3934C5.8466 35.0883 9.31019 29.8195 14.6766 28.9742C15.1546 28.8987 15.6447 28.8635 16.1287 28.8635C22.8858 28.8565 29.6429 28.8615 36.4001 28.8555C37.0883 28.8545 37.6609 29.0396 37.992 29.6877C38.5142 30.7131 37.7837 31.829 36.5762 31.833C33.8763 31.8421 31.1775 31.8361 28.4777 31.8361C27.6898 31.8381 26.9008 31.8381 26.1129 31.8381ZM33.2937 47.4745C34.1229 47.4675 34.9047 47.3155 35.5759 46.8144C36.1314 46.3998 36.1193 46.0396 35.5689 45.6149C34.4479 44.7495 32.1314 44.7526 31.0145 45.621C30.4741 46.0416 30.4671 46.4129 31.0256 46.8235C31.6998 47.3186 32.4816 47.4715 33.2937 47.4745Z" fill="#027F84"/>
<path d="M33.6489 93.7435C28.1325 93.7435 22.6171 93.7475 17.1007 93.7345C16.6932 93.7335 16.496 93.8512 16.3138 94.2336C15.5098 95.9221 14.092 96.9425 12.3853 97.5492C9.12501 98.7095 5.92507 98.5686 2.89317 96.8187C1.38678 95.9493 0.292961 94.6975 0.0474305 92.8912C-0.228288 90.8626 0.690439 89.3451 2.23205 88.1668C4.07755 86.756 6.22393 86.2569 8.51119 86.278C10.6918 86.2981 12.7234 86.8174 14.5035 88.1315C15.2844 88.7071 15.9335 89.4115 16.3168 90.3081C16.4859 90.7036 16.7043 90.8052 17.1078 90.8052C24.7695 90.7941 32.4313 90.7962 40.093 90.7962C43.4631 90.7962 46.8331 90.7921 50.2031 90.7982C51.4217 90.8002 52.1703 91.8014 51.7276 92.8339C51.4539 93.4728 50.9387 93.7455 50.2453 93.7445C47.2607 93.7375 44.2771 93.7425 41.2925 93.7425C38.7457 93.7435 36.1968 93.7435 33.6489 93.7435ZM8.3532 95.3012C9.76702 95.3002 11.1205 95.0436 12.3431 94.295C14.2892 93.1035 14.3184 91.3597 12.3219 90.2508C9.7318 88.8118 7.04304 88.8128 4.45289 90.2477C2.4323 91.3677 2.47255 93.1277 4.45692 94.3141C5.65337 95.0285 6.97059 95.3002 8.3532 95.3012Z" fill="#027F84"/>
</g>
<defs>
<linearGradient id="paint0_linear" x1="151.844" y1="-4.94214" x2="63.6291" y2="48.2833" gradientUnits="userSpaceOnUse">
<stop stop-color="#C99A6C"/>
<stop offset="0.2022" stop-color="#EFD7B9"/>
<stop offset="0.4438" stop-color="#DBBA95"/>
<stop offset="0.691" stop-color="#C09362"/>
<stop offset="0.8539" stop-color="#EFDBC0"/>
<stop offset="1" stop-color="#B98C5A"/>
</linearGradient>
<clipPath id="clip0">
<rect width="92.89" height="98.3018" fill="white"/>
</clipPath>
</defs>
</svg>
