<svg width="84" height="81" viewBox="0 0 84 81" fill="none" xmlns="http://www.w3.org/2000/svg">
<g clip-path="url(#clip0)">
<path d="M39.01 0C51.3622 0 63.7143 0 76.0665 0C77.3441 0 77.8834 0.538379 77.8834 1.81703C77.8834 19.5284 77.8844 55.442 77.8834 73.1533C77.8834 74.4955 77.3619 75.0171 76.0188 75.0171C51.3145 75.0171 26.6102 75.0171 1.9059 75.0161C0.692744 75.0161 0.1357 74.4581 0.1357 73.2458C0.134766 55.5046 0.134766 19.5602 0.134766 1.81703C0.134766 0.540248 0.674985 0 1.95357 0C14.3057 0 26.6579 0 39.01 0ZM74.8748 72.0242C74.8748 55.0559 74.8748 19.9322 74.8748 3.00875C50.9444 3.00875 27.0448 3.00875 3.1443 3.00875C3.1443 19.9621 3.1443 55.0859 3.1443 72.0242C27.0635 72.0242 50.9519 72.0242 74.8748 72.0242Z" fill="#027F84"/>
<path d="M80.8874 78.023C80.8874 77.7145 80.8874 77.4677 80.8874 77.221C80.8874 59.6657 80.8874 23.9092 80.8874 6.35391C80.8874 5.18556 81.4435 4.48922 82.3753 4.48828C83.309 4.48735 83.8651 5.18275 83.8651 6.35111C83.8651 24.5756 83.8651 61.0023 83.8651 79.2268C83.8651 80.197 83.481 80.7719 82.6996 80.9551C82.5351 80.9934 82.3604 80.9981 82.1903 80.9981C57.3934 80.9999 32.5966 80.9999 7.79978 80.999C6.80159 80.999 6.1193 80.3924 6.11744 79.5156C6.11557 78.6221 6.80439 78.022 7.83717 78.022C31.8704 78.022 55.9046 78.022 79.9378 78.022C80.2322 78.0229 80.5266 78.023 80.8874 78.023Z" fill="#027F84"/>
<path d="M16.3134 18.9514C15.9003 20.1889 15.489 21.4274 15.075 22.6649C14.7656 23.5903 14.3151 23.9155 13.3515 23.9165C11.9963 23.9174 10.642 23.9183 9.28678 23.9155C8.2942 23.9137 7.61005 23.3005 7.61378 22.4228C7.61752 21.5442 8.29887 20.9404 9.2952 20.9386C10.2298 20.9367 11.1645 20.9236 12.0982 20.947C12.4178 20.9554 12.5552 20.8563 12.6552 20.5497C13.4609 18.0812 14.2833 15.6183 15.1068 13.1554C15.4292 12.1918 16.2517 11.7469 17.0975 12.0675C17.6415 12.2731 17.9247 12.6937 18.0602 13.2414C18.7453 16.0034 19.436 18.7645 20.1248 21.5246C20.4678 22.8977 20.8108 24.2698 21.1557 25.6428C21.1782 25.7307 21.2155 25.8148 21.2838 26.0092C21.4726 25.4559 21.6296 24.9998 21.7829 24.5427C22.0651 23.7024 22.3362 22.8584 22.6278 22.0219C22.8801 21.2975 23.3792 20.9451 24.1419 20.9404C25.184 20.9339 26.2261 20.9386 27.314 20.9386C27.5365 19.8459 27.7589 18.7701 27.9739 17.6933C28.6655 14.2313 29.3534 10.7682 30.046 7.30617C30.2077 6.49954 30.775 5.99481 31.5124 5.98453C32.2648 5.97424 32.8518 6.49113 33.0163 7.31552C33.8939 11.7076 34.7696 16.1006 35.6482 20.4927C35.6753 20.6292 35.7145 20.7638 35.7585 20.9386C35.9286 20.9386 36.0968 20.9386 36.266 20.9386C38.1194 20.9386 39.9728 20.9367 41.8261 20.9395C42.8159 20.9414 43.4963 21.562 43.4851 22.4443C43.4739 23.3108 42.8066 23.9137 41.8383 23.9146C39.455 23.9183 37.0726 23.9174 34.6893 23.9146C33.7453 23.9137 33.2135 23.4678 33.0293 22.5471C32.5658 20.2291 32.1003 17.9111 31.6349 15.5931C31.6199 15.5202 31.5984 15.4491 31.4835 15.365C31.3769 15.8651 31.2647 16.3642 31.1647 16.8652C30.7834 18.772 30.4077 20.6787 30.0264 22.5855C29.8525 23.4529 29.3048 23.9099 28.4272 23.9146C27.4776 23.9202 26.5261 23.9352 25.5775 23.9052C25.2102 23.894 25.0775 24.0258 24.969 24.3604C24.1699 26.8149 23.3493 29.2619 22.5296 31.7099C22.2091 32.667 21.3763 33.1119 20.5323 32.7838C19.9912 32.5735 19.7136 32.1501 19.5771 31.6014C18.707 28.101 17.8312 24.6016 16.9564 21.1012C16.776 20.3805 16.5928 19.6608 16.4106 18.9411C16.3797 18.9449 16.3461 18.9477 16.3134 18.9514Z" fill="url(#paint0_linear)"/>
<path d="M25.5018 38.8697C21.0791 38.8697 16.6555 38.8716 12.2328 38.8678C11.0542 38.8669 10.3065 37.8565 10.7112 36.8311C10.9477 36.232 11.4898 35.8927 12.2375 35.8927C14.9161 35.8899 17.5948 35.8909 20.2735 35.8909C26.4561 35.8909 32.6396 35.8899 38.8223 35.8918C40.0279 35.8918 40.7766 36.8414 40.4027 37.8845C40.1775 38.5136 39.6335 38.8669 38.8643 38.8678C35.952 38.8706 33.0397 38.8688 30.1273 38.8697C28.5852 38.8706 27.044 38.8706 25.5018 38.8697Z" fill="#027F84"/>
<path d="M25.5429 47.8436C21.1043 47.8436 16.6657 47.8455 12.2271 47.8417C11.0514 47.8408 10.3046 46.8257 10.713 45.7994C10.9504 45.2021 11.4916 44.8666 12.2421 44.8657C15.0769 44.8629 17.9107 44.8638 20.7454 44.8638C26.7262 44.8638 32.706 44.8638 38.6867 44.8647C38.811 44.8647 38.9363 44.8601 39.0606 44.8675C39.8793 44.9161 40.4999 45.5629 40.4962 46.3602C40.4924 47.1585 39.87 47.8146 39.0456 47.8352C38.096 47.8585 37.1455 47.8427 36.1959 47.8427C32.6452 47.8436 29.0936 47.8436 25.5429 47.8436Z" fill="#027F84"/>
<path d="M25.5429 56.6776C21.1043 56.6776 16.6657 56.6794 12.2271 56.6757C11.0514 56.6748 10.3046 55.6597 10.713 54.6334C10.9504 54.0361 11.4916 53.7006 12.2421 53.6996C15.0769 53.6968 17.9107 53.6978 20.7454 53.6978C26.7262 53.6978 60.9194 53.6978 66.9002 53.6987C67.0245 53.6987 67.1497 53.694 67.274 53.7015C68.0928 53.7501 68.7134 54.3969 68.7096 55.1942C68.7059 55.9924 68.0834 56.6486 67.2591 56.6692C66.3095 56.6925 37.1455 56.6766 36.1959 56.6766C32.6452 56.6776 29.0936 56.6776 25.5429 56.6776Z" fill="#027F84"/>
<path d="M25.5429 65.7772C21.1043 65.7772 16.6657 65.7791 12.2271 65.7753C11.0514 65.7744 10.3046 64.7593 10.713 63.733C10.9504 63.1357 11.4916 62.8002 12.2421 62.7993C15.0769 62.7964 17.9107 62.7974 20.7454 62.7974C26.7262 62.7974 60.9194 62.7974 66.9002 62.7983C67.0245 62.7983 67.1497 62.7936 67.274 62.8011C68.0928 62.8497 68.7134 63.4965 68.7096 64.2938C68.7059 65.0921 68.0834 65.7482 67.2591 65.7688C66.3095 65.7921 37.1455 65.7762 36.1959 65.7762C32.6452 65.7772 29.0936 65.7772 25.5429 65.7772Z" fill="#027F84"/>
<path d="M58.4019 11.9501C55.4588 11.9501 52.5156 11.9557 49.5724 11.9473C48.4424 11.9445 47.72 10.964 48.0826 9.95734C48.2938 9.37129 48.8238 8.98714 49.4808 8.97499C50.1968 8.96284 50.9136 8.97218 51.6296 8.97218C56.8467 8.97218 62.0629 8.97031 67.28 8.97405C68.4596 8.97499 69.2063 9.98164 68.8026 11.0089C68.568 11.608 68.025 11.9482 67.2782 11.9492C64.3201 11.952 61.361 11.9501 58.4019 11.9501Z" fill="#027F84"/>
<path d="M58.4485 17.9468C61.4076 17.9468 64.3657 17.9421 67.3248 17.9496C68.4697 17.9524 69.1997 18.9693 68.8034 19.9816C68.5688 20.5807 68.0267 20.9228 67.2809 20.9237C64.7265 20.9265 62.1731 20.9256 59.6187 20.9256C56.2708 20.9256 52.922 20.9303 49.5742 20.9228C48.4302 20.92 47.6993 19.9021 48.0946 18.8908C48.3292 18.2907 48.8732 17.9486 49.6172 17.9477C52.5622 17.9449 55.5054 17.9468 58.4485 17.9468Z" fill="#027F84"/>
<path d="M58.4607 29.8957C55.5016 29.8957 52.5435 29.9004 49.5845 29.8929C48.4171 29.8901 47.6703 28.8414 48.1143 27.8282C48.404 27.1674 48.9498 26.9131 49.6555 26.9141C53.5959 26.9215 57.5354 26.9178 61.4758 26.9178C63.4376 26.9178 65.4004 26.9159 67.3622 26.9197C67.9931 26.9206 68.4763 27.1926 68.7557 27.7665C69.0268 28.3245 68.9492 28.8619 68.5697 29.3424C68.2361 29.7648 67.7725 29.9004 67.2444 29.8985C64.3162 29.8929 61.388 29.8966 58.4607 29.8957Z" fill="#027F84"/>
<path d="M58.4982 35.8925C61.4414 35.8925 64.3846 35.8868 67.3277 35.8953C68.4568 35.8981 69.1783 36.8785 68.8157 37.8861C68.6054 38.4713 68.0745 38.8554 67.4165 38.8676C66.6847 38.8806 65.9529 38.8704 65.2211 38.8704C60.0198 38.8704 54.8186 38.8722 49.6173 38.8685C48.4387 38.8676 47.691 37.8581 48.0957 36.8327C48.3322 36.2336 48.8743 35.8943 49.621 35.8934C52.581 35.8915 55.5401 35.8934 58.4982 35.8925Z" fill="#027F84"/>
<path d="M58.4972 44.8649C61.4404 44.8649 64.3835 44.8602 67.3267 44.8668C68.4707 44.8696 69.1988 45.8874 68.8025 46.9016C68.5679 47.5007 68.0258 47.8409 67.2781 47.8409C64.4751 47.8437 61.6722 47.8419 58.8692 47.8428C55.7699 47.8428 52.6716 47.8475 49.5724 47.84C48.4293 47.8372 47.6993 46.8175 48.0966 45.8052C48.3321 45.2051 48.8732 44.8658 49.621 44.8649C52.58 44.864 55.5381 44.8658 58.4972 44.8649Z" fill="#027F84"/>
</g>
<defs>
<linearGradient id="paint0_linear" x1="83.6186" y1="2.25641" x2="20.4257" y2="36.6524" gradientUnits="userSpaceOnUse">
<stop stop-color="#C99A6C"/>
<stop offset="0.2022" stop-color="#EFD7B9"/>
<stop offset="0.4438" stop-color="#DBBA95"/>
<stop offset="0.691" stop-color="#C09362"/>
<stop offset="0.8539" stop-color="#EFDBC0"/>
<stop offset="1" stop-color="#B98C5A"/>
</linearGradient>
<clipPath id="clip0">
<rect width="83.7303" height="81" fill="white" transform="translate(0.134766)"/>
</clipPath>
</defs>
</svg>
