<svg width="67" height="81" viewBox="0 0 67 81" fill="none" xmlns="http://www.w3.org/2000/svg">
<g clip-path="url(#clip0)">
<path d="M6.575 9.20236C5.79826 9.16105 5.06282 9.17362 4.34176 9.07485C2.31504 8.79737 0.759766 6.94577 0.759766 4.87146C0.759766 2.79446 2.31145 0.965306 4.33906 0.660895C4.64796 0.614201 4.96315 0.582772 5.27564 0.582772C24.282 0.580078 43.2884 0.580078 62.2956 0.580078C64.6905 0.580078 66.4029 2.03748 66.7693 4.38117C67.0998 6.49409 65.4448 8.76684 63.3175 9.06676C62.5668 9.17183 61.8009 9.16195 60.9819 9.20774C60.9244 9.83542 60.8688 10.4847 60.8041 11.1321C60.4072 15.1083 59.4563 18.9264 57.5544 22.4725C55.7369 25.8614 53.1597 28.5787 50.0968 30.8532C48.3439 32.1553 46.5399 33.3873 44.7781 34.6777C43.7625 35.4221 42.8178 36.2518 42.0797 37.289C40.5639 39.4162 40.5505 42.12 42.0528 44.2545C42.9642 45.5485 44.2007 46.4949 45.4561 47.4189C47.5034 48.9257 49.6181 50.3481 51.5928 51.9447C56.3376 55.7817 59.098 60.8265 60.2429 66.7728C60.5554 68.3972 60.691 70.0558 60.9065 71.6991C60.9352 71.9209 60.9595 72.1436 60.9909 72.4174C61.4462 72.4174 61.8916 72.4165 62.336 72.4174C64.6941 72.4237 66.4029 73.8883 66.7684 76.2149C67.0998 78.3279 65.4466 80.5862 63.322 80.9104C62.9835 80.9616 62.6387 80.9957 62.2956 80.9957C43.3036 81.0002 24.3125 81.0002 5.32054 80.9993C3.1717 80.9993 1.46467 79.7897 0.936665 77.9022C0.173393 75.1751 2.12108 72.5198 4.96135 72.4228C5.48307 72.4049 6.00569 72.4201 6.58128 72.4201C6.64414 71.7305 6.69982 71.066 6.76716 70.4042C7.1479 66.6426 8.02611 63.0184 9.74303 59.625C11.5219 56.1086 14.0964 53.271 17.2267 50.9237C18.9858 49.6055 20.8212 48.3887 22.5732 47.0615C23.4738 46.3782 24.3503 45.6257 25.0902 44.7762C27.1789 42.3804 27.151 39.2277 25.1063 36.7933C24.0755 35.5658 22.777 34.6507 21.4956 33.7151C19.6234 32.3484 17.7035 31.04 15.9085 29.5781C11.2031 25.7438 8.46163 20.7215 7.3275 14.8075C6.99076 13.051 6.84619 11.2569 6.61361 9.47983C6.60194 9.39183 6.58937 9.30383 6.575 9.20236ZM9.45478 9.1853C9.45478 9.43134 9.43233 9.62799 9.45837 9.81836C9.65503 11.2838 9.79601 12.7601 10.0753 14.2094C10.9705 18.8474 12.9694 22.9215 16.3898 26.2449C18.1372 27.942 20.1181 29.3366 22.1107 30.7176C23.8456 31.92 25.5751 33.1269 27.0127 34.6983C30.1215 38.098 30.3181 42.8465 27.3935 46.3961C26.5557 47.4135 25.5401 48.3133 24.4957 49.1251C22.7609 50.4729 20.92 51.6843 19.1537 52.9926C16.1267 55.2348 13.66 57.962 12.0248 61.3922C10.5656 64.4534 9.8418 67.7031 9.52572 71.0579C9.48441 71.497 9.45927 71.937 9.42335 72.4156C10.3447 72.4156 11.1959 72.4264 12.0454 72.4022C12.1505 72.3995 12.304 72.2271 12.3426 72.104C12.9443 70.1896 13.8656 68.4349 14.9854 66.7809C17.655 62.8352 21.008 59.5469 24.7831 56.6725C26.7505 55.1747 28.8176 53.8412 31.1057 52.8651C32.634 52.2132 34.1399 52.1351 35.6601 52.8328C36.4468 53.1938 37.2513 53.5305 37.9985 53.9633C42.7819 56.7308 46.8488 60.3353 50.3132 64.6249C51.9367 66.6354 53.3115 68.8013 54.2319 71.233C54.3783 71.6191 54.4205 72.1579 54.7006 72.3501C54.988 72.5476 55.5079 72.4129 55.9255 72.4147C56.6528 72.4183 57.3802 72.4156 58.1165 72.4156C58.1165 72.1597 58.1398 71.964 58.1129 71.7754C57.8866 70.1635 57.7295 68.5373 57.4026 66.9461C56.4597 62.3611 54.3908 58.3714 50.9615 55.128C49.127 53.3931 47.0544 51.9716 44.99 50.5376C43.4159 49.443 41.875 48.3115 40.5657 46.8918C37.3878 43.4463 37.2594 38.521 40.3341 34.983C41.1333 34.0635 42.0591 33.2302 43.0271 32.4884C44.7943 31.1334 46.654 29.8987 48.4445 28.5715C51.8667 26.0338 54.5219 22.8802 56.1221 18.8887C57.074 16.5145 57.6289 14.0442 57.9441 11.5155C58.0393 10.7505 58.086 9.98 58.1578 9.1835C41.8857 9.1853 25.6855 9.1853 9.45478 9.1853ZM51.714 72.3941C51.3027 71.5231 50.9624 70.6969 50.5359 69.9175C49.0659 67.2263 47.0841 64.9311 44.8939 62.8101C42.1973 60.1988 39.2897 57.8569 35.9789 56.0583C33.7376 54.8397 33.0767 54.8541 30.8408 56.0879C27.2624 58.0625 24.1329 60.6235 21.2693 63.5204C19.1672 65.6468 17.2895 67.9474 15.9534 70.6457C15.6795 71.1998 15.4586 71.7799 15.1928 72.395C27.3917 72.3941 39.4891 72.3941 51.714 72.3941ZM33.7834 6.32707C38.0029 6.32707 42.2225 6.32707 46.4411 6.32707C51.7822 6.32707 57.1242 6.32796 62.4654 6.32527C63.2349 6.32527 63.8554 5.81163 63.9632 5.10853C64.0745 4.38117 63.6489 3.68704 62.9314 3.47961C62.7078 3.41496 62.4591 3.41765 62.222 3.41765C43.3997 3.41496 24.5774 3.41586 5.75516 3.41586C5.48577 3.41586 5.21638 3.40508 4.94699 3.41945C4.22771 3.45716 3.62428 4.07497 3.59465 4.79065C3.55783 5.70478 4.21784 6.32707 5.23523 6.32707C14.751 6.32796 24.2676 6.32707 33.7834 6.32707ZM33.734 78.1644C37.9383 78.1644 42.1426 78.1644 46.3469 78.1644C51.7032 78.1644 57.0596 78.1644 62.416 78.1635C63.1909 78.1635 63.7961 77.7253 63.9434 77.0384C64.176 75.959 63.2565 75.2353 62.3163 75.2362C44.137 75.2586 25.9585 75.2532 7.77917 75.2532C6.85157 75.2532 5.92397 75.2415 4.99637 75.2577C4.20975 75.2712 3.59195 75.9285 3.59375 76.7133C3.59644 77.5789 4.25286 78.1644 5.23074 78.1644C14.7321 78.1653 24.2326 78.1644 33.734 78.1644Z" fill="#1A7F84"/>
<path d="M15.2416 15.0581C19.8186 15.1577 24.2492 16.0988 28.6456 17.2985C31.6538 18.1192 34.6826 18.8789 37.7303 19.5389C40.7277 20.1881 43.7844 20.4683 46.8501 20.6057C47.7023 20.6443 48.5544 20.6713 49.4057 20.7054C49.9714 20.7278 50.4303 20.9326 50.6548 21.4875C50.8703 22.02 50.7033 22.4708 50.3405 22.8883C48.8274 24.6304 47.0476 26.0653 45.1493 27.3548C42.4114 29.2145 39.898 31.3202 37.8004 33.8956C36.8719 35.036 36.017 36.2312 35.542 37.6392C35.3633 38.1699 35.2645 38.7392 35.2133 39.2987C35.1352 40.1491 34.5506 40.783 33.7658 40.7695C32.9882 40.7561 32.3982 40.1455 32.3686 39.3059C32.33 38.1915 31.8738 37.219 31.3215 36.2905C29.9063 33.9127 28.0628 31.886 25.9715 30.1044C24.5634 28.9047 23.0369 27.8415 21.5427 26.7442C19.1227 24.9671 16.9137 22.9817 15.4168 20.339C14.8088 19.265 14.3158 18.1192 13.8507 16.9734C13.3622 15.7693 13.9531 14.997 15.2416 15.0581ZM45.6414 23.4873C45.6226 23.4487 45.6028 23.411 45.584 23.3723C44.721 23.3023 43.8563 23.2466 42.9951 23.1595C39.0351 22.759 35.1397 22.0173 31.2991 20.9721C27.5573 19.9538 23.8478 18.7936 19.9847 18.2845C19.1361 18.1731 18.284 18.0914 17.3555 17.9872C17.4327 18.1677 17.4542 18.2548 17.5018 18.324C18.1627 19.2812 18.7617 20.2896 19.5034 21.1795C20.9824 22.9539 22.8887 24.2398 24.761 25.558C28.2442 28.0094 31.2416 30.9395 33.5476 34.5439C33.5979 34.6221 33.6715 34.6849 33.7568 34.7801C34.7087 33.1431 35.8706 31.7225 37.1449 30.39C39.2102 28.2276 41.5368 26.3823 44.008 24.7076C44.571 24.3278 45.0982 23.8959 45.6414 23.4873Z" fill="url(#paint0_linear)"/>
<path d="M35.201 46.5438C35.201 47.0062 35.2109 47.4696 35.1992 47.932C35.1768 48.7564 34.5742 49.3769 33.7993 49.3894C33.0118 49.402 32.3814 48.7653 32.3697 47.9204C32.3572 46.9946 32.3554 46.0688 32.3697 45.1429C32.3823 44.3222 32.9965 43.6954 33.767 43.6838C34.5491 43.6721 35.1786 44.3132 35.1983 45.1546C35.21 45.618 35.201 46.0813 35.201 46.5438Z" fill="url(#paint1_linear)"/>
</g>
<defs>
<linearGradient id="paint0_linear" x1="92.2251" y1="11.4918" x2="29.3519" y2="48.4961" gradientUnits="userSpaceOnUse">
<stop stop-color="#C99A6C"/>
<stop offset="0.2022" stop-color="#EFD7B9"/>
<stop offset="0.4438" stop-color="#DBBA95"/>
<stop offset="0.691" stop-color="#C09362"/>
<stop offset="0.8539" stop-color="#EFDBC0"/>
<stop offset="1" stop-color="#B98C5A"/>
</linearGradient>
<linearGradient id="paint1_linear" x1="38.3883" y1="42.893" x2="32.1494" y2="44.1631" gradientUnits="userSpaceOnUse">
<stop stop-color="#C99A6C"/>
<stop offset="0.2022" stop-color="#EFD7B9"/>
<stop offset="0.4438" stop-color="#DBBA95"/>
<stop offset="0.691" stop-color="#C09362"/>
<stop offset="0.8539" stop-color="#EFDBC0"/>
<stop offset="1" stop-color="#B98C5A"/>
</linearGradient>
<clipPath id="clip0">
<rect width="66.0518" height="80.4201" fill="white" transform="translate(0.759766 0.580078)"/>
</clipPath>
</defs>
</svg>
