<svg width="407" height="593" viewBox="0 0 407 593" fill="none" xmlns="http://www.w3.org/2000/svg">
<path d="M-86.5649 216.797H-86.3149V216.764H308.565C322.387 216.764 333.603 227.919 333.603 241.582V350.383C333.603 364.08 322.387 375.202 308.565 375.202H205.169V358.245H308.565C312.931 358.245 316.528 354.72 316.528 350.383V241.582C316.528 237.246 312.931 233.72 308.565 233.72H-86.5649C-90.9328 233.72 -94.4937 237.247 -94.4937 241.582V350.417C-94.4937 354.752 -90.9328 358.279 -86.5649 358.279H159.552V375.236H-86.5649C-100.387 375.236 -111.604 364.08 -111.604 350.417V241.616C-111.604 227.92 -100.387 216.797 -86.5649 216.797Z" stroke="url(#paint0_linear)" stroke-width="0.5"/>
<path d="M56.5598 73.3965H165.373C179.075 73.3965 190.203 84.6469 190.236 98.4357V493.565C190.236 507.387 179.109 518.603 165.407 518.603H56.5598C42.8913 518.603 31.7642 507.353 31.7642 493.565V247.754H48.7284V493.565C48.7284 497.931 52.2215 501.493 56.5598 501.493H165.407C169.744 501.493 173.272 497.933 173.272 493.565V98.4351C173.272 94.0671 169.744 90.5063 165.407 90.5063H56.5598C52.2561 90.5063 48.7284 94.0678 48.7284 98.4351V201.899H31.7642V98.4351C31.7642 84.6127 42.8911 73.3965 56.5598 73.3965Z" stroke="#1A7F84" stroke-width="0.5"/>
<path d="M221.043 21.3289C226.714 23.6085 232.248 26.0363 237.725 28.6648L237.725 28.665C337.578 76.3329 406.75 178.22 406.75 296.04C406.75 447.128 292.975 572.081 146.611 589.96L146.607 589.961C107.859 595.281 75.5585 587.949 51.9903 578.434L51.8967 578.666L51.9902 578.434C24.2576 567.247 3.83652 550.264 -4.36406 539.887C-26.5065 511.778 -42.3584 477.851 -42.3584 439.367C-42.3584 422.317 -39.3462 405.975 -34.1299 390.612H-13.6378C-19.6096 405.742 -22.9806 422.15 -22.9806 439.367C-22.9806 513.133 37.0039 573.11 110.744 573.178C263.484 573.042 387.713 448.794 387.713 296.04C387.713 198.077 336.504 111.942 259.521 62.6533C257.979 61.6479 256.705 60.3741 255.663 58.863C255.663 58.8626 255.663 58.8623 255.663 58.8619L255.457 59.0037C248.216 48.2464 239.267 37.7624 228.816 28.4052C228.643 28.2503 228.47 28.0956 228.297 27.941C225.761 25.6724 223.266 23.4406 220.26 21.0157L221.043 21.3289Z" stroke="url(#paint1_linear)" stroke-width="0.5"/>
<path d="M234.583 62.8438L234.583 62.8439L234.59 62.8536C253.276 88.154 264.358 119.318 264.358 153.108C264.358 170.16 261.312 186.503 256.095 201.834H235.601C235.608 201.817 235.614 201.801 235.621 201.784L235.622 201.781C235.673 201.655 235.724 201.525 235.776 201.387C241.627 186.368 244.98 170.149 244.98 153.108C244.98 79.3362 184.996 19.354 111.255 19.2856C-41.4849 19.4223 -165.714 143.681 -165.714 296.449C-165.714 390.866 -118.196 474.343 -45.9293 524.421C-44.1091 525.702 -42.5605 527.251 -41.3153 529.102C-33.5194 540.727 -23.9762 552.324 -13.2989 561.563L-13.2982 561.564C-12.0251 562.658 -11.1523 563.501 -10.6067 564.132C-10.3337 564.448 -10.1487 564.705 -10.0365 564.908C-9.92047 565.117 -9.89995 565.238 -9.90604 565.296C-9.90889 565.323 -9.91428 565.346 -9.98065 565.373C-10.0646 565.407 -10.2124 565.427 -10.4402 565.412C-10.8898 565.384 -11.5405 565.231 -12.3383 564.978C-15.5222 563.969 -20.7398 561.476 -23.7449 559.923L-23.8598 560.145L-23.7453 559.923C-119.264 510.715 -184.75 411.106 -184.75 296.449C-184.75 133.302 -52.1401 0.525233 110.944 0.250007C158.072 1.71623 190.925 19.2837 213.152 39.2399L213.141 39.2568C216.96 42.701 220.609 46.3157 224.087 50.1011L224.095 50.1086C224.175 50.1886 224.247 50.2692 224.325 50.3552C224.358 50.3917 224.391 50.4291 224.426 50.4672C224.471 50.5162 224.518 50.566 224.568 50.6162C227.84 54.2285 230.942 58.0464 233.909 61.9679L233.914 61.975L233.92 61.9817C234.153 62.2477 234.385 62.5464 234.583 62.8438Z" stroke="#1A7F84" stroke-width="0.5"/>
<defs>
<linearGradient id="paint0_linear" x1="832.514" y1="194.488" x2="391.955" y2="698.777" gradientUnits="userSpaceOnUse">
<stop stop-color="#C99A6C"/>
<stop offset="0.2022" stop-color="#EFD7B9"/>
<stop offset="0.4438" stop-color="#DBBA95"/>
<stop offset="0.691" stop-color="#C09362"/>
<stop offset="0.8539" stop-color="#EFDBC0"/>
<stop offset="1" stop-color="#B98C5A"/>
</linearGradient>
<linearGradient id="paint1_linear" x1="910.025" y1="-58.7031" x2="-20.673" y2="240.22" gradientUnits="userSpaceOnUse">
<stop stop-color="#C99A6C"/>
<stop offset="0.2022" stop-color="#EFD7B9"/>
<stop offset="0.4438" stop-color="#DBBA95"/>
<stop offset="0.691" stop-color="#C09362"/>
<stop offset="0.8539" stop-color="#EFDBC0"/>
<stop offset="1" stop-color="#B98C5A"/>
</linearGradient>
</defs>
</svg>
