<svg width="82" height="63" viewBox="0 0 82 63" fill="none" xmlns="http://www.w3.org/2000/svg">
<g clip-path="url(#clip0)">
<path d="M70.1627 41.6281C70.1627 43.7875 70.1627 45.8417 70.1627 47.8958C70.1627 48.2338 70.1756 48.5737 70.159 48.9118C70.0888 50.2898 68.8973 50.9068 67.7594 50.1106C65.9195 48.8231 64.1129 47.4875 62.2916 46.1705C60.4222 44.8183 58.5694 43.4403 56.6704 42.1287C56.2511 41.8387 55.6655 41.6503 55.1557 41.6484C49.3369 41.6152 43.5181 41.6263 37.7011 41.6281C32.7191 41.63 28.851 37.7932 28.8473 32.826C28.8399 24.6686 28.984 16.5075 28.7974 8.35379C28.6737 2.97832 33.1643 0.122492 37.0731 0.144659C45.1695 0.188993 53.266 0.15759 61.3624 0.15759C65.7348 0.15759 70.1054 0.135423 74.476 0.166826C77.9746 0.192688 80.8305 2.28376 81.6802 5.42592C81.8778 6.15742 81.9702 6.94065 81.972 7.70171C81.9924 16.2286 81.9573 24.7573 81.9961 33.2841C82.0127 37.1449 78.8872 41.944 73.5597 41.6373C72.4662 41.5745 71.3634 41.6281 70.1627 41.6281ZM67.2699 46.2111C67.2699 44.1404 67.2588 42.3005 67.2736 40.4588C67.2828 39.2895 67.8074 38.763 68.9601 38.752C70.4988 38.739 72.0376 38.7483 73.5763 38.7464C76.8497 38.7427 79.083 36.5445 79.0867 33.2786C79.0959 24.7222 79.0904 16.1639 79.0848 7.60751C79.0848 7.21035 79.0737 6.80211 78.9869 6.41788C78.5085 4.33604 76.7222 3.05406 74.2986 3.05221C62.9399 3.04852 51.5813 3.05037 40.2244 3.05037C38.9923 3.05037 37.7602 3.02266 36.5318 3.06145C33.7443 3.15012 31.7419 5.21164 31.7419 7.96033C31.7419 16.3025 31.7401 24.6446 31.7438 32.9849C31.7438 36.127 34.3465 38.7427 37.4831 38.7446C43.0544 38.7501 48.6275 38.8185 54.197 38.7076C56.1218 38.6688 57.6642 39.1325 59.1808 40.3258C61.7318 42.3411 64.4344 44.1662 67.2699 46.2111Z" fill="#1A7F84"/>
<path d="M15.6418 57.8858C17.0327 56.8883 18.2501 56.0183 19.4619 55.1427C21.383 53.7554 23.2783 52.3312 25.2345 50.9956C25.7295 50.6576 26.413 50.4322 27.0115 50.4285C33.2293 50.3879 39.4508 50.3251 45.6668 50.4396C48.4598 50.4913 51.1069 47.6669 51.179 45.3431C51.2104 44.3345 51.8957 43.6953 52.7269 43.7674C53.5748 43.8394 54.1031 44.5543 54.0496 45.5573C53.8371 49.5899 49.9875 53.2751 45.9069 53.2917C39.8739 53.3157 33.8389 53.2862 27.8058 53.3213C27.272 53.325 26.655 53.5263 26.2191 53.8367C22.7038 56.3267 19.2236 58.8649 15.7268 61.3826C15.0876 61.8445 14.478 62.4577 13.571 61.9904C12.6419 61.5119 12.749 60.6437 12.749 59.8143C12.7508 57.6919 12.749 55.5712 12.749 53.2991C11.5187 53.2991 10.3328 53.301 9.14688 53.2991C5.28431 53.2936 2.22158 50.9734 1.22408 47.2365C1.02827 46.5031 0.939601 45.7199 0.937754 44.9588C0.917434 36.4929 0.919281 28.027 0.928517 19.5611C0.932212 15.185 4.01156 12.0226 8.4006 11.9949C15.6344 11.9505 15.4811 11.9801 22.7149 11.9838C23.814 11.9838 24.4974 12.5509 24.5011 13.4209C24.5048 14.2928 23.8214 14.871 22.7278 14.871C15.5236 14.8765 15.7101 14.8692 8.50589 14.8784C6.18945 14.8821 4.44751 16.1438 3.9506 18.1683C3.849 18.5803 3.82684 19.0199 3.82684 19.4466C3.81945 28.0049 3.8176 36.5631 3.82499 45.1214C3.82684 48.1675 6.08047 50.4008 9.12102 50.4008C10.6912 50.4008 12.2613 50.3934 13.8315 50.4045C15.1079 50.4137 15.6344 50.9328 15.6418 52.1945C15.651 54.0103 15.6418 55.8243 15.6418 57.8858Z" fill="#1A7F84"/>
<path d="M46.9239 20.8452C46.9202 24.0871 44.2842 26.7138 41.0534 26.6954C37.8207 26.6769 35.218 24.0335 35.2364 20.7879C35.2549 17.5331 37.8761 14.9229 41.1106 14.9395C44.3452 14.9562 46.9294 17.5792 46.9239 20.8452ZM41.0608 17.8323C39.4149 17.8415 38.059 19.203 38.0719 20.8341C38.0849 22.4726 39.4444 23.8044 41.0977 23.8007C42.7528 23.797 44.0773 22.4559 44.0644 20.7971C44.0514 19.1309 42.7251 17.8231 41.0608 17.8323Z" fill="url(#paint0_linear)"/>
<path d="M60.963 20.8192C60.963 24.0722 58.351 26.6971 55.1202 26.6934C51.8875 26.6898 49.2755 24.0611 49.2773 20.8118C49.2792 17.5644 51.8986 14.9339 55.1257 14.9395C58.3658 14.9432 60.963 17.5607 60.963 20.8192ZM55.1165 23.8007C56.7827 23.7988 58.0998 22.4854 58.1053 20.8192C58.1108 19.1604 56.7864 17.8322 55.1257 17.8322C53.4798 17.8322 52.1166 19.1807 52.1147 20.8118C52.1092 22.4429 53.4761 23.8025 55.1165 23.8007Z" fill="url(#paint1_linear)"/>
<path d="M75.0001 20.7952C75.0075 24.0556 72.4158 26.6824 69.1813 26.6935C65.9487 26.7045 63.3274 24.0888 63.3145 20.8359C63.3016 17.5903 65.9117 14.9469 69.1407 14.9395C72.3808 14.9321 74.9946 17.5441 75.0001 20.7952ZM69.209 17.8322C67.5484 17.8138 66.1943 19.1142 66.15 20.7638C66.1075 22.382 67.4652 23.7785 69.1037 23.8007C70.77 23.8228 72.1129 22.5261 72.1443 20.8673C72.1739 19.2121 70.8586 17.8507 69.209 17.8322Z" fill="url(#paint2_linear)"/>
</g>
<defs>
<linearGradient id="paint0_linear" x1="60.0001" y1="13.3106" x2="37.0859" y2="22.6114" gradientUnits="userSpaceOnUse">
<stop stop-color="#C99A6C"/>
<stop offset="0.2022" stop-color="#EFD7B9"/>
<stop offset="0.4438" stop-color="#DBBA95"/>
<stop offset="0.691" stop-color="#C09362"/>
<stop offset="0.8539" stop-color="#EFDBC0"/>
<stop offset="1" stop-color="#B98C5A"/>
</linearGradient>
<linearGradient id="paint1_linear" x1="74.037" y1="13.3109" x2="51.1266" y2="22.6101" gradientUnits="userSpaceOnUse">
<stop stop-color="#C99A6C"/>
<stop offset="0.2022" stop-color="#EFD7B9"/>
<stop offset="0.4438" stop-color="#DBBA95"/>
<stop offset="0.691" stop-color="#C09362"/>
<stop offset="0.8539" stop-color="#EFDBC0"/>
<stop offset="1" stop-color="#B98C5A"/>
</linearGradient>
<linearGradient id="paint2_linear" x1="88.0742" y1="13.3109" x2="65.1638" y2="22.6102" gradientUnits="userSpaceOnUse">
<stop stop-color="#C99A6C"/>
<stop offset="0.2022" stop-color="#EFD7B9"/>
<stop offset="0.4438" stop-color="#DBBA95"/>
<stop offset="0.691" stop-color="#C09362"/>
<stop offset="0.8539" stop-color="#EFDBC0"/>
<stop offset="1" stop-color="#B98C5A"/>
</linearGradient>
<clipPath id="clip0">
<rect width="81.079" height="62.0118" fill="white" transform="translate(0.921875 0.144531)"/>
</clipPath>
</defs>
</svg>
