<svg width="450" height="283" viewBox="0 0 450 283" fill="none" xmlns="http://www.w3.org/2000/svg">
<rect x="2" y="247" width="218" height="35.067" rx="2.92225" fill="#FBFBFB"/>
<path d="M18.5837 264.053H21.2947V265.637H18.5837V268.726H16.8999V265.637H14.1746V264.053H16.8999V261.163H18.5837V264.053ZM28.8715 259.38L31.8679 267.342L34.8572 259.38H37.1902V269.768H35.3923V266.343L35.5707 261.763L32.5029 269.768H31.2115L28.1509 261.77L28.3293 266.343V269.768H26.5314V259.38H28.8715ZM45.4019 265.13H41.1355V268.326H46.1225V269.768H39.3305V259.38H46.0725V260.835H41.1355V263.703H45.4019V265.13ZM55.8324 269.768H54.0274L49.3971 262.398V269.768H47.5921V259.38H49.3971L54.0416 266.778V259.38H55.8324V269.768ZM65.2569 260.835H62.0179V269.768H60.2272V260.835H57.0167V259.38H65.2569V260.835ZM74.7171 264.845C74.7171 265.863 74.5412 266.757 74.1892 267.527C73.8372 268.293 73.3331 268.883 72.6767 269.297C72.0251 269.706 71.2736 269.91 70.4222 269.91C69.5804 269.91 68.8289 269.706 68.1678 269.297C67.5114 268.883 67.0025 268.296 66.641 267.535C66.2843 266.774 66.1035 265.896 66.0988 264.902V264.317C66.0988 263.304 66.2771 262.41 66.6339 261.634C66.9953 260.859 67.5019 260.267 68.1535 259.858C68.8099 259.444 69.5614 259.237 70.408 259.237C71.2546 259.237 72.0037 259.442 72.6553 259.851C73.3117 260.255 73.8182 260.84 74.1749 261.606C74.5317 262.367 74.7124 263.254 74.7171 264.267V264.845ZM72.9121 264.303C72.9121 263.152 72.6934 262.269 72.2558 261.656C71.823 261.042 71.207 260.735 70.408 260.735C69.6279 260.735 69.0168 261.042 68.5744 261.656C68.1368 262.265 67.9133 263.128 67.9038 264.246V264.845C67.9038 265.986 68.125 266.869 68.5673 267.492C69.0144 268.115 69.6327 268.426 70.4222 268.426C71.2213 268.426 71.8348 268.122 72.2629 267.513C72.6957 266.904 72.9121 266.015 72.9121 264.845V264.303ZM80.3319 265.765H78.32V269.768H76.515V259.38H80.1678C81.3664 259.38 82.2915 259.649 82.9431 260.186C83.5947 260.724 83.9205 261.501 83.9205 262.519C83.9205 263.213 83.7517 263.796 83.414 264.267C83.0811 264.733 82.6149 265.092 82.0156 265.344L84.3486 269.675V269.768H82.4152L80.3319 265.765ZM78.32 264.317H80.175C80.7838 264.317 81.2594 264.165 81.6019 263.86C81.9443 263.551 82.1155 263.13 82.1155 262.598C82.1155 262.041 81.9562 261.611 81.6375 261.306C81.3236 261.002 80.8527 260.845 80.2249 260.835H78.32V264.317ZM87.5377 269.768H85.7398V259.38H87.5377V269.768ZM95.6994 267.349H91.6756L90.8338 269.768H88.9574L92.8813 259.38H94.5009L98.4319 269.768H96.5484L95.6994 267.349ZM92.1822 265.894H95.1929L93.6875 261.584L92.1822 265.894ZM103.255 269.768V259.38H106.323C107.241 259.38 108.054 259.584 108.763 259.993C109.476 260.402 110.028 260.983 110.418 261.734C110.808 262.486 111.003 263.347 111.003 264.317V264.838C111.003 265.822 110.805 266.688 110.411 267.435C110.021 268.181 109.462 268.757 108.734 269.161C108.011 269.565 107.181 269.768 106.244 269.768H103.255ZM105.06 260.835V268.326H106.237C107.183 268.326 107.909 268.032 108.413 267.442C108.922 266.847 109.181 265.996 109.191 264.888V264.31C109.191 263.183 108.946 262.322 108.456 261.727C107.966 261.133 107.255 260.835 106.323 260.835H105.06ZM118.872 265.13H114.606V268.326H119.593V269.768H112.801V259.38H119.543V260.835H114.606V263.703H118.872V265.13ZM127.041 259.38L130.037 267.342L133.027 259.38H135.36V269.768H133.562V266.343L133.74 261.763L130.672 269.768H129.381L126.32 261.77L126.499 266.343V269.768H124.701V259.38H127.041ZM143.443 267.349H139.419L138.577 269.768H136.701L140.625 259.38H142.244L146.175 269.768H144.292L143.443 267.349ZM139.926 265.894H142.936L141.431 261.584L139.926 265.894ZM151.177 265.765H149.165V269.768H147.36V259.38H151.012C152.211 259.38 153.136 259.649 153.788 260.186C154.439 260.724 154.765 261.501 154.765 262.519C154.765 263.213 154.596 263.796 154.259 264.267C153.926 264.733 153.46 265.092 152.86 265.344L155.193 269.675V269.768H153.26L151.177 265.765ZM149.165 264.317H151.02C151.628 264.317 152.104 264.165 152.446 263.86C152.789 263.551 152.96 263.13 152.96 262.598C152.96 262.041 152.801 261.611 152.482 261.306C152.168 261.002 151.697 260.845 151.07 260.835H149.165V264.317ZM159.46 265.28L158.282 266.529V269.768H156.477V259.38H158.282V264.253L159.281 263.018L162.321 259.38H164.504L160.644 263.982L164.725 269.768H162.584L159.46 265.28ZM171.766 265.13H167.5V268.326H172.487V269.768H165.695V259.38H172.437V260.835H167.5V263.703H171.766V265.13ZM181.605 260.835H178.366V269.768H176.575V260.835H173.365V259.38H181.605V260.835ZM184.879 269.768H183.082V259.38H184.879V269.768ZM195.339 269.768H193.534L188.903 262.398V269.768H187.098V259.38H188.903L193.548 266.778V259.38H195.339V269.768ZM205.434 268.419C205.058 268.909 204.537 269.28 203.871 269.532C203.205 269.784 202.449 269.91 201.603 269.91C200.732 269.91 199.962 269.713 199.291 269.318C198.62 268.923 198.102 268.36 197.736 267.627C197.374 266.89 197.186 266.032 197.172 265.052V264.238C197.172 262.669 197.548 261.444 198.299 260.564C199.051 259.68 200.1 259.237 201.446 259.237C202.601 259.237 203.519 259.523 204.199 260.093C204.88 260.664 205.289 261.487 205.427 262.562H203.657C203.457 261.311 202.732 260.685 201.481 260.685C200.673 260.685 200.057 260.978 199.633 261.563C199.215 262.143 198.998 262.997 198.984 264.124V264.923C198.984 266.046 199.22 266.919 199.691 267.542C200.166 268.16 200.825 268.469 201.667 268.469C202.589 268.469 203.246 268.26 203.636 267.841V265.808H201.496V264.438H205.434V268.419Z" fill="#1A7F84"/>
<rect x="230" y="247" width="218" height="35.067" rx="2.92225" fill="#FBFBFB"/>
<path d="M246.584 264.053H249.295V265.637H246.584V268.726H244.9V265.637H242.175V264.053H244.9V261.163H246.584V264.053ZM256.871 259.38L259.868 267.342L262.857 259.38H265.19V269.768H263.392V266.343L263.571 261.763L260.503 269.768H259.212L256.151 261.77L256.329 266.343V269.768H254.531V259.38H256.871ZM273.402 265.13H269.136V268.326H274.122V269.768H267.331V259.38H274.073V260.835H269.136V263.703H273.402V265.13ZM283.832 269.768H282.027L277.397 262.398V269.768H275.592V259.38H277.397L282.042 266.778V259.38H283.832V269.768ZM293.257 260.835H290.018V269.768H288.227V260.835H285.017V259.38H293.257V260.835ZM302.717 264.845C302.717 265.863 302.541 266.757 302.189 267.527C301.837 268.293 301.333 268.883 300.677 269.297C300.025 269.706 299.274 269.91 298.422 269.91C297.58 269.91 296.829 269.706 296.168 269.297C295.511 268.883 295.002 268.296 294.641 267.535C294.284 266.774 294.104 265.896 294.099 264.902V264.317C294.099 263.304 294.277 262.41 294.634 261.634C294.995 260.859 295.502 260.267 296.153 259.858C296.81 259.444 297.561 259.237 298.408 259.237C299.255 259.237 300.004 259.442 300.655 259.851C301.312 260.255 301.818 260.84 302.175 261.606C302.532 262.367 302.712 263.254 302.717 264.267V264.845ZM300.912 264.303C300.912 263.152 300.693 262.269 300.256 261.656C299.823 261.042 299.207 260.735 298.408 260.735C297.628 260.735 297.017 261.042 296.574 261.656C296.137 262.265 295.913 263.128 295.904 264.246V264.845C295.904 265.986 296.125 266.869 296.567 267.492C297.014 268.115 297.633 268.426 298.422 268.426C299.221 268.426 299.835 268.122 300.263 267.513C300.696 266.904 300.912 266.015 300.912 264.845V264.303ZM308.332 265.765H306.32V269.768H304.515V259.38H308.168C309.366 259.38 310.292 259.649 310.943 260.186C311.595 260.724 311.921 261.501 311.921 262.519C311.921 263.213 311.752 263.796 311.414 264.267C311.081 264.733 310.615 265.092 310.016 265.344L312.349 269.675V269.768H310.415L308.332 265.765ZM306.32 264.317H308.175C308.784 264.317 309.259 264.165 309.602 263.86C309.944 263.551 310.116 263.13 310.116 262.598C310.116 262.041 309.956 261.611 309.638 261.306C309.324 261.002 308.853 260.845 308.225 260.835H306.32V264.317ZM315.538 269.768H313.74V259.38H315.538V269.768ZM323.699 267.349H319.676L318.834 269.768H316.957L320.881 259.38H322.501L326.432 269.768H324.548L323.699 267.349ZM320.182 265.894H323.193L321.688 261.584L320.182 265.894ZM331.255 269.768V259.38H334.323C335.241 259.38 336.054 259.584 336.763 259.993C337.476 260.402 338.028 260.983 338.418 261.734C338.808 262.486 339.003 263.347 339.003 264.317V264.838C339.003 265.822 338.805 266.688 338.411 267.435C338.021 268.181 337.462 268.757 336.734 269.161C336.011 269.565 335.181 269.768 334.244 269.768H331.255ZM333.06 260.835V268.326H334.237C335.183 268.326 335.909 268.032 336.413 267.442C336.922 266.847 337.181 265.996 337.191 264.888V264.31C337.191 263.183 336.946 262.322 336.456 261.727C335.966 261.133 335.255 260.835 334.323 260.835H333.06ZM349.091 264.845C349.091 265.863 348.915 266.757 348.563 267.527C348.211 268.293 347.707 268.883 347.05 269.297C346.399 269.706 345.647 269.91 344.796 269.91C343.954 269.91 343.203 269.706 342.541 269.297C341.885 268.883 341.376 268.296 341.015 267.535C340.658 266.774 340.477 265.896 340.472 264.902V264.317C340.472 263.304 340.651 262.41 341.008 261.634C341.369 260.859 341.876 260.267 342.527 259.858C343.183 259.444 343.935 259.237 344.782 259.237C345.628 259.237 346.377 259.442 347.029 259.851C347.685 260.255 348.192 260.84 348.549 261.606C348.905 262.367 349.086 263.254 349.091 264.267V264.845ZM347.286 264.303C347.286 263.152 347.067 262.269 346.629 261.656C346.197 261.042 345.581 260.735 344.782 260.735C344.002 260.735 343.39 261.042 342.948 261.656C342.51 262.265 342.287 263.128 342.277 264.246V264.845C342.277 265.986 342.499 266.869 342.941 267.492C343.388 268.115 344.006 268.426 344.796 268.426C345.595 268.426 346.208 268.122 346.637 267.513C347.069 266.904 347.286 266.015 347.286 264.845V264.303ZM356.867 259.38L359.864 267.342L362.853 259.38H365.186V269.768H363.388V266.343L363.566 261.763L360.499 269.768H359.207L356.147 261.77L356.325 266.343V269.768H354.527V259.38H356.867ZM373.398 265.13H369.131V268.326H374.118V269.768H367.326V259.38H374.068V260.835H369.131V263.703H373.398V265.13ZM375.588 269.768V259.38H378.656C379.574 259.38 380.387 259.584 381.096 259.993C381.809 260.402 382.361 260.983 382.751 261.734C383.141 262.486 383.336 263.347 383.336 264.317V264.838C383.336 265.822 383.139 266.688 382.744 267.435C382.354 268.181 381.795 268.757 381.067 269.161C380.344 269.565 379.514 269.768 378.577 269.768H375.588ZM377.393 260.835V268.326H378.57C379.517 268.326 380.242 268.032 380.746 267.442C381.255 266.847 381.514 265.996 381.524 264.888V264.31C381.524 263.183 381.279 262.322 380.789 261.727C380.299 261.133 379.588 260.835 378.656 260.835H377.393ZM393.06 266.386C392.955 267.494 392.546 268.36 391.833 268.983C391.12 269.601 390.171 269.91 388.986 269.91C388.159 269.91 387.429 269.715 386.796 269.325C386.168 268.93 385.683 268.372 385.341 267.649C384.998 266.926 384.82 266.086 384.806 265.13V264.16C384.806 263.18 384.979 262.317 385.326 261.57C385.674 260.823 386.171 260.248 386.818 259.844C387.469 259.439 388.221 259.237 389.072 259.237C390.218 259.237 391.141 259.549 391.84 260.172C392.539 260.795 392.946 261.675 393.06 262.812H391.262C391.177 262.065 390.958 261.527 390.606 261.199C390.259 260.866 389.747 260.7 389.072 260.7C388.287 260.7 387.683 260.988 387.26 261.563C386.841 262.134 386.627 262.973 386.618 264.081V265.002C386.618 266.124 386.818 266.98 387.217 267.57C387.621 268.16 388.211 268.455 388.986 268.455C389.695 268.455 390.228 268.296 390.584 267.977C390.941 267.658 391.167 267.128 391.262 266.386H393.06ZM402.927 269.768H401.129V265.152H396.485V269.768H394.68V259.38H396.485V263.703H401.129V259.38H402.927V269.768ZM406.972 269.768H405.174V259.38H406.972V269.768ZM417.431 269.768H415.626L410.996 262.398V269.768H409.191V259.38H410.996L415.641 266.778V259.38H417.431V269.768ZM425.507 267.349H421.484L420.642 269.768H418.765L422.689 259.38H424.309L428.24 269.768H426.356L425.507 267.349ZM421.99 265.894H425.001L423.495 261.584L421.99 265.894Z" fill="#1A7F84"/>
<g filter="url(#filter0_d)">
<mask id="path-5-outside-1" maskUnits="userSpaceOnUse" x="11" y="8" width="428" height="215" fill="black">
<rect fill="white" x="11" y="8" width="428" height="215"/>
<path d="M67.4782 85.2518C71.3147 84.5032 75.011 83.9886 78.5668 83.7079C82.1227 83.4271 85.585 83.2868 88.9537 83.2868C99.7148 83.2868 109.213 84.9243 117.447 88.1995C125.682 91.4746 132.606 95.9662 138.221 101.674C143.835 107.289 148.046 113.933 150.854 121.606C153.754 129.185 155.205 137.326 155.205 146.029C155.205 156.977 153.24 166.99 149.31 176.066C145.473 185.05 140.092 192.816 133.168 199.367C126.243 205.917 117.962 211.017 108.324 214.666C98.779 218.222 88.2986 220 76.8825 220C70.2386 220 63.8755 219.298 57.7931 217.895C51.8043 216.491 46.143 214.619 40.8093 212.28C35.5691 209.847 30.7032 207.087 26.2116 203.999C21.7199 200.817 17.6494 197.448 14 193.893L27.4748 175.926C28.8784 174.055 30.516 172.651 32.3875 171.715C34.259 170.686 36.2709 170.171 38.4231 170.171C41.2304 170.171 43.8505 170.967 46.2834 172.557C48.8099 174.055 51.5236 175.739 54.4244 177.61C57.4188 179.388 60.8811 181.026 64.8113 182.523C68.7414 184.02 73.6073 184.769 79.409 184.769C85.2107 184.769 90.1701 183.833 94.2874 181.962C98.4047 179.997 101.727 177.377 104.253 174.101C106.873 170.733 108.745 166.849 109.868 162.451C111.084 157.96 111.692 153.187 111.692 148.134C111.692 138.215 108.885 130.683 103.271 125.536C97.6561 120.296 89.7023 117.676 79.409 117.676C70.2386 117.676 61.2554 119.407 52.4594 122.869L25.5097 115.57L42.9147 13.2458H147.625V31.2122C147.625 34.2066 147.157 36.9203 146.222 39.3533C145.286 41.7862 143.789 43.9384 141.73 45.8099C139.765 47.5879 137.145 48.9915 133.87 50.0208C130.595 50.9566 126.664 51.4244 122.079 51.4244H73.233L67.4782 85.2518Z"/>
<path d="M325.206 115.43C325.206 133.303 323.288 148.789 319.451 161.89C315.614 174.99 310.281 185.845 303.45 194.454C296.712 203.063 288.665 209.473 279.307 213.684C270.043 217.895 259.984 220 249.129 220C238.275 220 228.215 217.895 218.951 213.684C209.781 209.473 201.827 203.063 195.09 194.454C188.352 185.845 183.065 174.99 179.229 161.89C175.486 148.789 173.614 133.303 173.614 115.43C173.614 97.557 175.486 82.0703 179.229 68.9698C183.065 55.8693 188.352 45.0146 195.09 36.4056C201.827 27.7967 209.781 21.4336 218.951 17.3163C228.215 13.1054 238.275 11 249.129 11C259.984 11 270.043 13.1054 279.307 17.3163C288.665 21.4336 296.712 27.7967 303.45 36.4056C310.281 45.0146 315.614 55.8693 319.451 68.9698C323.288 82.0703 325.206 97.557 325.206 115.43ZM280.29 115.43C280.29 101.3 279.401 89.7435 277.623 80.7602C275.845 71.6835 273.459 64.5717 270.464 59.4251C267.564 54.2785 264.242 50.7694 260.499 48.8979C256.756 46.9328 252.966 45.9503 249.129 45.9503C245.293 45.9503 241.503 46.9328 237.76 48.8979C234.111 50.7694 230.835 54.2785 227.935 59.4251C225.127 64.5717 222.835 71.6835 221.057 80.7602C219.372 89.7435 218.53 101.3 218.53 115.43C218.53 129.653 219.372 141.257 221.057 150.24C222.835 159.223 225.127 166.335 227.935 171.575C230.835 176.722 234.111 180.277 237.76 182.242C241.503 184.114 245.293 185.05 249.129 185.05C252.966 185.05 256.756 184.114 260.499 182.242C264.242 180.277 267.564 176.722 270.464 171.575C273.459 166.335 275.845 159.223 277.623 150.24C279.401 141.257 280.29 129.653 280.29 115.43Z"/>
<path d="M381.06 145.378C381.06 148.875 380.426 152.065 379.159 154.95C377.891 157.834 376.208 160.325 374.111 162.423C372.013 164.477 369.565 166.073 366.768 167.209C364.015 168.345 361.13 168.914 358.114 168.914C354.793 168.914 351.733 168.345 348.936 167.209C346.183 166.073 343.779 164.477 341.725 162.423C339.715 160.325 338.141 157.834 337.005 154.95C335.868 152.065 335.3 148.875 335.3 145.378C335.3 141.751 335.868 138.473 337.005 135.545C338.141 132.573 339.715 130.038 341.725 127.94C343.779 125.842 346.183 124.225 348.936 123.089C351.733 121.909 354.793 121.319 358.114 121.319C361.436 121.319 364.495 121.909 367.293 123.089C370.133 124.225 372.559 125.842 374.569 127.94C376.624 130.038 378.219 132.573 379.355 135.545C380.492 138.473 381.06 141.751 381.06 145.378ZM365.457 145.378C365.457 143.149 365.26 141.314 364.867 139.871C364.517 138.385 364.015 137.205 363.359 136.331C362.703 135.457 361.917 134.845 360.999 134.496C360.125 134.146 359.163 133.971 358.114 133.971C357.065 133.971 356.104 134.146 355.23 134.496C354.356 134.845 353.613 135.457 353.001 136.331C352.389 137.205 351.908 138.385 351.559 139.871C351.209 141.314 351.034 143.149 351.034 145.378C351.034 147.476 351.209 149.224 351.559 150.623C351.908 152.021 352.389 153.136 353.001 153.966C353.613 154.797 354.356 155.387 355.23 155.736C356.104 156.086 357.065 156.261 358.114 156.261C359.163 156.261 360.125 156.086 360.999 155.736C361.917 155.387 362.703 154.797 363.359 153.966C364.015 153.136 364.517 152.021 364.867 150.623C365.26 149.224 365.457 147.476 365.457 145.378ZM411.085 125.252C411.741 124.509 412.549 123.832 413.511 123.22C414.472 122.564 415.805 122.236 417.51 122.236H432.326L360.343 214.87C359.688 215.7 358.857 216.399 357.852 216.967C356.891 217.492 355.711 217.754 354.312 217.754H339.103L411.085 125.252ZM435.997 195.333C435.997 198.83 435.363 202.042 434.096 204.97C432.829 207.855 431.146 210.346 429.048 212.444C426.95 214.498 424.503 216.093 421.706 217.23C418.952 218.366 416.068 218.934 413.052 218.934C409.73 218.934 406.671 218.366 403.874 217.23C401.12 216.093 398.717 214.498 396.662 212.444C394.652 210.346 393.079 207.855 391.942 204.97C390.806 202.042 390.238 198.83 390.238 195.333C390.238 191.706 390.806 188.428 391.942 185.5C393.079 182.528 394.652 179.993 396.662 177.895C398.717 175.797 401.12 174.18 403.874 173.044C406.671 171.864 409.73 171.274 413.052 171.274C416.374 171.274 419.433 171.864 422.23 173.044C425.071 174.18 427.497 175.797 429.507 177.895C431.561 179.993 433.156 182.528 434.293 185.5C435.429 188.428 435.997 191.706 435.997 195.333ZM420.394 195.333C420.394 193.148 420.198 191.334 419.804 189.892C419.455 188.406 418.952 187.226 418.297 186.352C417.641 185.478 416.854 184.866 415.937 184.516C415.062 184.167 414.101 183.992 413.052 183.992C412.003 183.992 411.041 184.167 410.167 184.516C409.293 184.866 408.55 185.478 407.938 186.352C407.327 187.226 406.846 188.406 406.496 189.892C406.147 191.334 405.972 193.148 405.972 195.333C405.972 197.431 406.147 199.179 406.496 200.578C406.846 201.977 407.327 203.091 407.938 203.921C408.55 204.752 409.293 205.342 410.167 205.692C411.041 206.041 412.003 206.216 413.052 206.216C414.101 206.216 415.062 206.041 415.937 205.692C416.854 205.342 417.641 204.752 418.297 203.921C418.952 203.091 419.455 201.977 419.804 200.578C420.198 199.179 420.394 197.431 420.394 195.333Z"/>
</mask>
<path d="M67.4782 85.2518C71.3147 84.5032 75.011 83.9886 78.5668 83.7079C82.1227 83.4271 85.585 83.2868 88.9537 83.2868C99.7148 83.2868 109.213 84.9243 117.447 88.1995C125.682 91.4746 132.606 95.9662 138.221 101.674C143.835 107.289 148.046 113.933 150.854 121.606C153.754 129.185 155.205 137.326 155.205 146.029C155.205 156.977 153.24 166.99 149.31 176.066C145.473 185.05 140.092 192.816 133.168 199.367C126.243 205.917 117.962 211.017 108.324 214.666C98.779 218.222 88.2986 220 76.8825 220C70.2386 220 63.8755 219.298 57.7931 217.895C51.8043 216.491 46.143 214.619 40.8093 212.28C35.5691 209.847 30.7032 207.087 26.2116 203.999C21.7199 200.817 17.6494 197.448 14 193.893L27.4748 175.926C28.8784 174.055 30.516 172.651 32.3875 171.715C34.259 170.686 36.2709 170.171 38.4231 170.171C41.2304 170.171 43.8505 170.967 46.2834 172.557C48.8099 174.055 51.5236 175.739 54.4244 177.61C57.4188 179.388 60.8811 181.026 64.8113 182.523C68.7414 184.02 73.6073 184.769 79.409 184.769C85.2107 184.769 90.1701 183.833 94.2874 181.962C98.4047 179.997 101.727 177.377 104.253 174.101C106.873 170.733 108.745 166.849 109.868 162.451C111.084 157.96 111.692 153.187 111.692 148.134C111.692 138.215 108.885 130.683 103.271 125.536C97.6561 120.296 89.7023 117.676 79.409 117.676C70.2386 117.676 61.2554 119.407 52.4594 122.869L25.5097 115.57L42.9147 13.2458H147.625V31.2122C147.625 34.2066 147.157 36.9203 146.222 39.3533C145.286 41.7862 143.789 43.9384 141.73 45.8099C139.765 47.5879 137.145 48.9915 133.87 50.0208C130.595 50.9566 126.664 51.4244 122.079 51.4244H73.233L67.4782 85.2518Z" stroke="url(#paint0_linear)" stroke-width="5.52573" stroke-linejoin="round" mask="url(#path-5-outside-1)"/>
<path d="M325.206 115.43C325.206 133.303 323.288 148.789 319.451 161.89C315.614 174.99 310.281 185.845 303.45 194.454C296.712 203.063 288.665 209.473 279.307 213.684C270.043 217.895 259.984 220 249.129 220C238.275 220 228.215 217.895 218.951 213.684C209.781 209.473 201.827 203.063 195.09 194.454C188.352 185.845 183.065 174.99 179.229 161.89C175.486 148.789 173.614 133.303 173.614 115.43C173.614 97.557 175.486 82.0703 179.229 68.9698C183.065 55.8693 188.352 45.0146 195.09 36.4056C201.827 27.7967 209.781 21.4336 218.951 17.3163C228.215 13.1054 238.275 11 249.129 11C259.984 11 270.043 13.1054 279.307 17.3163C288.665 21.4336 296.712 27.7967 303.45 36.4056C310.281 45.0146 315.614 55.8693 319.451 68.9698C323.288 82.0703 325.206 97.557 325.206 115.43ZM280.29 115.43C280.29 101.3 279.401 89.7435 277.623 80.7602C275.845 71.6835 273.459 64.5717 270.464 59.4251C267.564 54.2785 264.242 50.7694 260.499 48.8979C256.756 46.9328 252.966 45.9503 249.129 45.9503C245.293 45.9503 241.503 46.9328 237.76 48.8979C234.111 50.7694 230.835 54.2785 227.935 59.4251C225.127 64.5717 222.835 71.6835 221.057 80.7602C219.372 89.7435 218.53 101.3 218.53 115.43C218.53 129.653 219.372 141.257 221.057 150.24C222.835 159.223 225.127 166.335 227.935 171.575C230.835 176.722 234.111 180.277 237.76 182.242C241.503 184.114 245.293 185.05 249.129 185.05C252.966 185.05 256.756 184.114 260.499 182.242C264.242 180.277 267.564 176.722 270.464 171.575C273.459 166.335 275.845 159.223 277.623 150.24C279.401 141.257 280.29 129.653 280.29 115.43Z" stroke="url(#paint1_linear)" stroke-width="5.52573" stroke-linejoin="round" mask="url(#path-5-outside-1)"/>
<path d="M381.06 145.378C381.06 148.875 380.426 152.065 379.159 154.95C377.891 157.834 376.208 160.325 374.111 162.423C372.013 164.477 369.565 166.073 366.768 167.209C364.015 168.345 361.13 168.914 358.114 168.914C354.793 168.914 351.733 168.345 348.936 167.209C346.183 166.073 343.779 164.477 341.725 162.423C339.715 160.325 338.141 157.834 337.005 154.95C335.868 152.065 335.3 148.875 335.3 145.378C335.3 141.751 335.868 138.473 337.005 135.545C338.141 132.573 339.715 130.038 341.725 127.94C343.779 125.842 346.183 124.225 348.936 123.089C351.733 121.909 354.793 121.319 358.114 121.319C361.436 121.319 364.495 121.909 367.293 123.089C370.133 124.225 372.559 125.842 374.569 127.94C376.624 130.038 378.219 132.573 379.355 135.545C380.492 138.473 381.06 141.751 381.06 145.378ZM365.457 145.378C365.457 143.149 365.26 141.314 364.867 139.871C364.517 138.385 364.015 137.205 363.359 136.331C362.703 135.457 361.917 134.845 360.999 134.496C360.125 134.146 359.163 133.971 358.114 133.971C357.065 133.971 356.104 134.146 355.23 134.496C354.356 134.845 353.613 135.457 353.001 136.331C352.389 137.205 351.908 138.385 351.559 139.871C351.209 141.314 351.034 143.149 351.034 145.378C351.034 147.476 351.209 149.224 351.559 150.623C351.908 152.021 352.389 153.136 353.001 153.966C353.613 154.797 354.356 155.387 355.23 155.736C356.104 156.086 357.065 156.261 358.114 156.261C359.163 156.261 360.125 156.086 360.999 155.736C361.917 155.387 362.703 154.797 363.359 153.966C364.015 153.136 364.517 152.021 364.867 150.623C365.26 149.224 365.457 147.476 365.457 145.378ZM411.085 125.252C411.741 124.509 412.549 123.832 413.511 123.22C414.472 122.564 415.805 122.236 417.51 122.236H432.326L360.343 214.87C359.688 215.7 358.857 216.399 357.852 216.967C356.891 217.492 355.711 217.754 354.312 217.754H339.103L411.085 125.252ZM435.997 195.333C435.997 198.83 435.363 202.042 434.096 204.97C432.829 207.855 431.146 210.346 429.048 212.444C426.95 214.498 424.503 216.093 421.706 217.23C418.952 218.366 416.068 218.934 413.052 218.934C409.73 218.934 406.671 218.366 403.874 217.23C401.12 216.093 398.717 214.498 396.662 212.444C394.652 210.346 393.079 207.855 391.942 204.97C390.806 202.042 390.238 198.83 390.238 195.333C390.238 191.706 390.806 188.428 391.942 185.5C393.079 182.528 394.652 179.993 396.662 177.895C398.717 175.797 401.12 174.18 403.874 173.044C406.671 171.864 409.73 171.274 413.052 171.274C416.374 171.274 419.433 171.864 422.23 173.044C425.071 174.18 427.497 175.797 429.507 177.895C431.561 179.993 433.156 182.528 434.293 185.5C435.429 188.428 435.997 191.706 435.997 195.333ZM420.394 195.333C420.394 193.148 420.198 191.334 419.804 189.892C419.455 188.406 418.952 187.226 418.297 186.352C417.641 185.478 416.854 184.866 415.937 184.516C415.062 184.167 414.101 183.992 413.052 183.992C412.003 183.992 411.041 184.167 410.167 184.516C409.293 184.866 408.55 185.478 407.938 186.352C407.327 187.226 406.846 188.406 406.496 189.892C406.147 191.334 405.972 193.148 405.972 195.333C405.972 197.431 406.147 199.179 406.496 200.578C406.846 201.977 407.327 203.091 407.938 203.921C408.55 204.752 409.293 205.342 410.167 205.692C411.041 206.041 412.003 206.216 413.052 206.216C414.101 206.216 415.062 206.041 415.937 205.692C416.854 205.342 417.641 204.752 418.297 203.921C418.952 203.091 419.455 201.977 419.804 200.578C420.198 199.179 420.394 197.431 420.394 195.333Z" stroke="url(#paint2_linear)" stroke-width="5.52573" stroke-linejoin="round" mask="url(#path-5-outside-1)"/>
</g>
<path d="M347.155 99.5476C347.155 100.544 346.994 101.46 346.673 102.296C346.352 103.131 345.904 103.851 345.328 104.454C344.758 105.052 344.08 105.52 343.294 105.857C342.508 106.189 341.65 106.355 340.72 106.355H336.495L337.972 94.3504H342.206C342.97 94.3504 343.657 94.4805 344.265 94.7407C344.88 95.0008 345.4 95.3605 345.826 95.8199C346.252 96.2793 346.579 96.8273 346.806 97.4638C347.038 98.1003 347.155 98.7949 347.155 99.5476ZM344.946 99.5975C344.946 99.0606 344.88 98.5735 344.747 98.1363C344.614 97.699 344.42 97.3282 344.166 97.0238C343.917 96.7138 343.61 96.4758 343.244 96.3098C342.879 96.1437 342.461 96.0607 341.991 96.0607H339.932L338.869 104.637H340.936C341.539 104.637 342.087 104.521 342.58 104.288C343.073 104.056 343.493 103.724 343.842 103.292C344.196 102.855 344.467 102.326 344.656 101.706C344.849 101.081 344.946 100.378 344.946 99.5975ZM353.348 96.069L352.925 99.4812H356.719L356.511 101.133H352.717L352.285 104.637H357.134L356.918 106.355H349.911L351.389 94.3504H358.388L358.172 96.069H353.348ZM367.647 96.509C367.569 96.6197 367.492 96.7027 367.414 96.7581C367.342 96.8079 367.251 96.8328 367.14 96.8328C367.03 96.8328 366.916 96.7885 366.8 96.7C366.684 96.6114 366.545 96.5146 366.385 96.4094C366.224 96.2987 366.033 96.1991 365.812 96.1105C365.591 96.022 365.325 95.9777 365.015 95.9777C364.716 95.9777 364.45 96.022 364.218 96.1105C363.986 96.1991 363.789 96.3208 363.629 96.4758C363.474 96.6308 363.355 96.8134 363.272 97.0238C363.194 97.2341 363.155 97.461 363.155 97.7045C363.155 97.9591 363.219 98.1722 363.346 98.3438C363.479 98.5099 363.651 98.6565 363.861 98.7838C364.071 98.9111 364.312 99.0246 364.583 99.1242C364.854 99.2239 365.128 99.329 365.405 99.4397C365.687 99.5504 365.964 99.6777 366.235 99.8216C366.507 99.9655 366.747 100.143 366.958 100.353C367.168 100.563 367.337 100.818 367.464 101.117C367.597 101.41 367.663 101.767 367.663 102.188C367.663 102.774 367.561 103.328 367.356 103.848C367.151 104.368 366.861 104.825 366.484 105.218C366.108 105.606 365.649 105.915 365.106 106.148C364.564 106.375 363.958 106.488 363.288 106.488C362.939 106.488 362.596 106.45 362.259 106.372C361.921 106.3 361.603 106.195 361.304 106.057C361.005 105.918 360.728 105.752 360.474 105.558C360.219 105.365 359.998 105.149 359.81 104.911L360.573 103.881C360.634 103.804 360.712 103.74 360.806 103.69C360.9 103.641 360.994 103.616 361.088 103.616C361.177 103.616 361.262 103.643 361.345 103.699C361.434 103.754 361.528 103.823 361.628 103.906C361.733 103.984 361.844 104.072 361.96 104.172C362.082 104.266 362.217 104.355 362.367 104.438C362.522 104.515 362.696 104.582 362.89 104.637C363.089 104.692 363.313 104.72 363.562 104.72C364.193 104.72 364.686 104.543 365.04 104.189C365.394 103.834 365.571 103.345 365.571 102.719C365.571 102.442 365.508 102.215 365.38 102.038C365.253 101.861 365.084 101.712 364.874 101.59C364.664 101.468 364.423 101.363 364.152 101.275C363.886 101.18 363.615 101.084 363.338 100.984C363.061 100.879 362.787 100.76 362.516 100.627C362.25 100.489 362.012 100.314 361.802 100.104C361.592 99.888 361.423 99.6251 361.296 99.3152C361.168 99.0052 361.105 98.6233 361.105 98.1695C361.105 97.6547 361.199 97.1594 361.387 96.6834C361.581 96.2074 361.855 95.7895 362.209 95.4297C362.569 95.0644 363 94.7739 363.504 94.558C364.013 94.3366 364.586 94.2259 365.223 94.2259C365.549 94.2259 365.862 94.2591 366.161 94.3255C366.465 94.392 366.747 94.486 367.008 94.6078C367.268 94.7296 367.506 94.8763 367.722 95.0478C367.943 95.2139 368.134 95.3993 368.294 95.6041L367.647 96.509ZM375.744 104.662C376.081 104.662 376.375 104.637 376.624 104.587C376.873 104.532 377.091 104.463 377.279 104.38C377.468 104.297 377.625 104.211 377.753 104.122C377.886 104.028 378.002 103.94 378.101 103.856C378.201 103.773 378.29 103.707 378.367 103.657C378.445 103.602 378.522 103.574 378.6 103.574C378.671 103.574 378.73 103.588 378.774 103.616C378.818 103.643 378.854 103.671 378.882 103.699L379.637 104.637C379.117 105.235 378.505 105.694 377.803 106.015C377.1 106.331 376.292 106.488 375.378 106.488C374.637 106.488 373.978 106.358 373.402 106.098C372.827 105.832 372.34 105.467 371.941 105.002C371.548 104.537 371.247 103.987 371.036 103.35C370.831 102.714 370.729 102.019 370.729 101.266C370.729 100.574 370.804 99.9212 370.953 99.3069C371.103 98.687 371.316 98.1169 371.592 97.5966C371.869 97.0708 372.199 96.6003 372.58 96.1852C372.968 95.7701 373.397 95.4159 373.867 95.1226C374.343 94.8292 374.852 94.605 375.395 94.4501C375.943 94.2951 376.513 94.2176 377.105 94.2176C377.542 94.2176 377.941 94.2591 378.301 94.3421C378.66 94.4196 378.984 94.5303 379.272 94.6742C379.565 94.8181 379.828 94.9925 380.061 95.1973C380.299 95.3965 380.512 95.6207 380.7 95.8698L379.953 96.7664C379.897 96.8328 379.831 96.8909 379.754 96.9407C379.682 96.9906 379.59 97.0155 379.48 97.0155C379.358 97.0155 379.242 96.9656 379.131 96.866C379.02 96.7664 378.879 96.6585 378.707 96.5422C378.541 96.4205 378.323 96.3098 378.052 96.2101C377.786 96.1105 377.434 96.0607 376.997 96.0607C376.422 96.0607 375.885 96.1797 375.387 96.4177C374.894 96.6502 374.465 96.985 374.1 97.4223C373.734 97.8595 373.447 98.3881 373.236 99.008C373.031 99.6224 372.929 100.314 372.929 101.084C372.929 101.643 372.998 102.143 373.137 102.586C373.281 103.029 373.477 103.405 373.726 103.715C373.981 104.02 374.28 104.255 374.623 104.421C374.966 104.582 375.34 104.662 375.744 104.662ZM393.817 99.5476C393.817 100.212 393.743 100.846 393.593 101.449C393.449 102.047 393.242 102.603 392.971 103.118C392.699 103.632 392.37 104.097 391.983 104.512C391.595 104.927 391.161 105.282 390.679 105.575C390.203 105.868 389.686 106.095 389.127 106.256C388.568 106.411 387.981 106.488 387.367 106.488C386.603 106.488 385.916 106.353 385.308 106.081C384.699 105.81 384.178 105.437 383.747 104.961C383.321 104.485 382.994 103.923 382.767 103.275C382.54 102.628 382.427 101.925 382.427 101.167C382.427 100.502 382.499 99.8714 382.643 99.2737C382.792 98.6704 383.002 98.1114 383.274 97.5966C383.55 97.0819 383.88 96.617 384.262 96.2018C384.649 95.7867 385.081 95.4325 385.557 95.1392C386.038 94.8403 386.558 94.6133 387.117 94.4584C387.676 94.2979 388.266 94.2176 388.886 94.2176C389.65 94.2176 390.336 94.3532 390.945 94.6244C391.554 94.8956 392.071 95.2692 392.497 95.7452C392.924 96.2212 393.25 96.7858 393.477 97.4389C393.704 98.0864 393.817 98.7894 393.817 99.5476ZM391.609 99.5975C391.609 99.055 391.54 98.5624 391.401 98.1197C391.269 97.6769 391.072 97.2977 390.812 96.9823C390.557 96.6668 390.245 96.4232 389.874 96.2517C389.503 96.0801 389.085 95.9943 388.62 95.9943C388.022 95.9943 387.477 96.1161 386.985 96.3596C386.498 96.6031 386.08 96.949 385.731 97.3974C385.382 97.8457 385.111 98.3853 384.917 99.0163C384.729 99.6473 384.635 100.347 384.635 101.117C384.635 101.659 384.702 102.152 384.834 102.595C384.967 103.037 385.161 103.416 385.416 103.732C385.67 104.042 385.98 104.283 386.345 104.454C386.716 104.62 387.137 104.703 387.607 104.703C388.211 104.703 388.759 104.582 389.251 104.338C389.744 104.094 390.164 103.751 390.513 103.309C390.862 102.866 391.13 102.332 391.318 101.706C391.512 101.075 391.609 100.372 391.609 99.5975ZM407.424 94.3504L405.946 106.355H404.833C404.667 106.355 404.529 106.328 404.418 106.272C404.313 106.212 404.213 106.115 404.119 105.982L399.47 97.7793C399.459 97.9176 399.448 98.0505 399.437 98.1778C399.426 98.2995 399.415 98.4158 399.404 98.5265L398.457 106.355H396.556L398.034 94.3504H399.163C399.257 94.3504 399.334 94.356 399.395 94.367C399.462 94.3726 399.52 94.3892 399.57 94.4169C399.619 94.439 399.664 94.4722 399.702 94.5165C399.741 94.5608 399.783 94.6217 399.827 94.6991L404.501 102.893C404.512 102.727 404.523 102.57 404.534 102.42C404.551 102.265 404.568 102.124 404.584 101.997L405.522 94.3504H407.424ZM419.109 96.1188H415.83L414.568 106.355H412.426L413.671 96.1188H410.375L410.591 94.3504H419.334L419.109 96.1188ZM432.154 99.5476C432.154 100.212 432.079 100.846 431.929 101.449C431.786 102.047 431.578 102.603 431.307 103.118C431.036 103.632 430.706 104.097 430.319 104.512C429.931 104.927 429.497 105.282 429.015 105.575C428.539 105.868 428.022 106.095 427.463 106.256C426.904 106.411 426.317 106.488 425.703 106.488C424.939 106.488 424.253 106.353 423.644 106.081C423.035 105.81 422.515 105.437 422.083 104.961C421.657 104.485 421.33 103.923 421.103 103.275C420.876 102.628 420.763 101.925 420.763 101.167C420.763 100.502 420.835 99.8714 420.979 99.2737C421.128 98.6704 421.339 98.1114 421.61 97.5966C421.886 97.0819 422.216 96.617 422.598 96.2018C422.985 95.7867 423.417 95.4325 423.893 95.1392C424.374 94.8403 424.895 94.6133 425.454 94.4584C426.013 94.2979 426.602 94.2176 427.222 94.2176C427.986 94.2176 428.672 94.3532 429.281 94.6244C429.89 94.8956 430.407 95.2692 430.834 95.7452C431.26 96.2212 431.586 96.7858 431.813 97.4389C432.04 98.0864 432.154 98.7894 432.154 99.5476ZM429.945 99.5975C429.945 99.055 429.876 98.5624 429.738 98.1197C429.605 97.6769 429.408 97.2977 429.148 96.9823C428.894 96.6668 428.581 96.4232 428.21 96.2517C427.839 96.0801 427.421 95.9943 426.956 95.9943C426.359 95.9943 425.813 96.1161 425.321 96.3596C424.834 96.6031 424.416 96.949 424.067 97.3974C423.719 97.8457 423.447 98.3853 423.254 99.0163C423.065 99.6473 422.971 100.347 422.971 101.117C422.971 101.659 423.038 102.152 423.171 102.595C423.303 103.037 423.497 103.416 423.752 103.732C424.006 104.042 424.316 104.283 424.682 104.454C425.052 104.62 425.473 104.703 425.944 104.703C426.547 104.703 427.095 104.582 427.587 104.338C428.08 104.094 428.501 103.751 428.849 103.309C429.198 102.866 429.466 102.332 429.655 101.706C429.848 101.075 429.945 100.372 429.945 99.5975Z" fill="white"/>
<defs>
<filter id="filter0_d" x="0.764798" y="0.755967" width="448.468" height="235.471" filterUnits="userSpaceOnUse" color-interpolation-filters="sRGB">
<feFlood flood-opacity="0" result="BackgroundImageFix"/>
<feColorMatrix in="SourceAlpha" type="matrix" values="0 0 0 0 0 0 0 0 0 0 0 0 0 0 0 0 0 0 127 0"/>
<feOffset dy="2.99215"/>
<feGaussianBlur stdDeviation="5.23625"/>
<feColorMatrix type="matrix" values="0 0 0 0 0 0 0 0 0 0 0 0 0 0 0 0 0 0 0.15 0"/>
<feBlend mode="multiply" in2="BackgroundImageFix" result="effect1_dropShadow"/>
<feBlend mode="normal" in="SourceGraphic" in2="effect1_dropShadow" result="shape"/>
</filter>
<linearGradient id="paint0_linear" x1="908.131" y1="-17.9575" x2="334.373" y2="455.019" gradientUnits="userSpaceOnUse">
<stop stop-color="#C99A6C"/>
<stop offset="0.2022" stop-color="#EFD7B9"/>
<stop offset="0.4438" stop-color="#DBBA95"/>
<stop offset="0.691" stop-color="#C09362"/>
<stop offset="0.8539" stop-color="#EFDBC0"/>
<stop offset="1" stop-color="#B98C5A"/>
</linearGradient>
<linearGradient id="paint1_linear" x1="908.131" y1="-17.9575" x2="334.373" y2="455.019" gradientUnits="userSpaceOnUse">
<stop stop-color="#C99A6C"/>
<stop offset="0.2022" stop-color="#EFD7B9"/>
<stop offset="0.4438" stop-color="#DBBA95"/>
<stop offset="0.691" stop-color="#C09362"/>
<stop offset="0.8539" stop-color="#EFDBC0"/>
<stop offset="1" stop-color="#B98C5A"/>
</linearGradient>
<linearGradient id="paint2_linear" x1="908.131" y1="-17.9575" x2="334.373" y2="455.019" gradientUnits="userSpaceOnUse">
<stop stop-color="#C99A6C"/>
<stop offset="0.2022" stop-color="#EFD7B9"/>
<stop offset="0.4438" stop-color="#DBBA95"/>
<stop offset="0.691" stop-color="#C09362"/>
<stop offset="0.8539" stop-color="#EFDBC0"/>
<stop offset="1" stop-color="#B98C5A"/>
</linearGradient>
</defs>
</svg>
