<svg width="1440" height="636" viewBox="0 0 1440 636" fill="none" xmlns="http://www.w3.org/2000/svg">
<path d="M1184 4.12693C1360 18.0952 1423.5 50.127 1440 55.627L1440 636L0 636L5.2836e-05 31.6268C29.0001 23.6268 152 12.1268 349 55.6269C546 99.1269 728.5 64.8111 871.5 31.6269C989 4.36019 1047 -6.74613 1184 4.12693Z" fill="#E8F1F1"/>
<path d="M256 4.12685C80.0001 18.0951 16.5001 50.1268 6.06166e-05 55.6268L0 636L1440 636L1440 31.627C1411 23.627 1288 12.1269 1091 55.6269C894 99.1269 711.5 64.8111 568.5 31.6269C451 4.36015 393 -6.74618 256 4.12685Z" fill="#1A7F84"/>
</svg>
