<svg width="211" height="205" viewBox="0 0 211 205" fill="none" xmlns="http://www.w3.org/2000/svg">
<path d="M-57.2694 117.019C-64.8481 117.019 -71 123.236 -71 130.896V191.123C-71 198.764 -64.8481 205 -57.2694 205H76.4977V195.337H-57.2694C-59.5671 195.337 -61.4386 193.445 -61.4386 191.123V130.877C-61.4386 128.555 -59.5671 126.663 -57.2694 126.663H157.269C159.567 126.663 161.457 128.555 161.457 130.877V191.104C161.457 193.426 159.567 195.318 157.269 195.318H100.994V204.981H157.269C164.848 204.981 171 198.764 171 191.104V130.877C171 123.236 164.848 117 157.269 117H-57.2694V117.019Z" fill="url(#paint0_linear)"/>
<path d="M80.0984 40H19.8642C12.2201 40 6 46.1519 6 53.7306V110.043H15.6675V53.7306C15.6675 51.4329 17.5597 49.5614 19.8642 49.5614H80.1171C82.4403 49.5614 84.3325 51.4329 84.3325 53.7306V268.269C84.3325 270.567 82.4403 272.439 80.1171 272.439H19.8642C17.541 272.439 15.6675 270.567 15.6675 268.269V134.669H6V268.269C6 275.83 12.2201 282 19.8642 282H80.1171C87.7799 282 94 275.848 94 268.269V53.7306C93.9813 46.1704 87.7611 40 80.0984 40Z" fill="white"/>
<path d="M113.905 15.3113C119.6 20.4031 124.476 26.1082 128.421 31.9619C128.998 32.7981 129.706 33.5043 130.562 34.0618C172.474 60.8588 200.354 107.689 200.354 160.948C200.354 243.997 132.721 311.547 49.565 311.621C9.45753 311.584 -23.1682 279.008 -23.1682 238.942C-23.1682 229.52 -21.307 220.545 -18.0128 212.275H-29.4774C-32.3436 220.675 -34 229.613 -34 238.942C-34 259.923 -25.3457 278.413 -13.2669 293.726C-8.7816 299.393 2.36661 308.648 17.4977 314.743C30.3581 319.928 47.9831 323.923 69.1256 321.024C148.95 311.287 211 243.235 211 160.948C211 96.7803 173.275 41.2907 118.818 15.3299C115.561 13.7689 112.267 12.338 108.879 11C110.796 12.5238 112.323 13.899 113.905 15.3113Z" fill="url(#paint1_linear)"/>
<path d="M134 83.0952C134 64.7264 127.951 47.7849 117.752 34.0314C117.641 33.8646 117.51 33.6978 117.38 33.5495C115.761 31.4179 114.067 29.3419 112.281 27.3771C112.187 27.2844 112.113 27.1918 112.02 27.0991C110.122 25.0416 108.13 23.0769 106.046 21.2048L106.083 21.2233C93.9483 10.3614 76.007 0.797032 50.2675 0C-38.6762 0.148285 -111 72.2704 -111 160.889C-111 223.169 -75.2848 277.274 -23.1916 304.003C-19.916 305.69 -11.7828 309.434 -17.3476 304.67C-23.1544 299.666 -28.3469 293.382 -32.5903 287.08C-33.2789 286.06 -34.1351 285.208 -35.1401 284.503C-74.4845 257.349 -100.354 212.085 -100.354 160.889C-100.354 78.0536 -32.7206 10.6765 50.435 10.6024C90.5425 10.6395 123.168 43.1324 123.168 83.0952C123.168 92.326 121.344 101.112 118.162 109.249C118.106 109.397 118.05 109.527 117.994 109.675H129.459C132.325 101.316 134 92.4001 134 83.0952Z" fill="white"/>
<defs>
<linearGradient id="paint0_linear" x1="441.752" y1="104.807" x2="197.289" y2="379.277" gradientUnits="userSpaceOnUse">
<stop stop-color="#C99A6C"/>
<stop offset="0.2022" stop-color="#EFD7B9"/>
<stop offset="0.4438" stop-color="#DBBA95"/>
<stop offset="0.691" stop-color="#C09362"/>
<stop offset="0.8539" stop-color="#EFDBC0"/>
<stop offset="1" stop-color="#B98C5A"/>
</linearGradient>
<linearGradient id="paint1_linear" x1="485.108" y1="-32.0899" x2="-21.9153" y2="130.983" gradientUnits="userSpaceOnUse">
<stop stop-color="#C99A6C"/>
<stop offset="0.2022" stop-color="#EFD7B9"/>
<stop offset="0.4438" stop-color="#DBBA95"/>
<stop offset="0.691" stop-color="#C09362"/>
<stop offset="0.8539" stop-color="#EFDBC0"/>
<stop offset="1" stop-color="#B98C5A"/>
</linearGradient>
</defs>
</svg>
