<svg width="36" height="37" viewBox="0 0 36 37" fill="none" xmlns="http://www.w3.org/2000/svg">
<rect x="34.5889" y="2.07512" width="32.92" height="32.92" rx="16.46" transform="rotate(90 34.5889 2.07512)" stroke="url(#paint0_linear)" stroke-width="2.82211"/>
<path d="M23.2758 17.6542L23.2752 17.6548C22.9669 17.9161 22.6572 18.1773 22.3479 18.4384L22.3478 18.4385L22.3474 18.4388C22.038 18.6998 21.729 18.9605 21.4214 19.2212L23.2758 17.6542ZM23.2758 17.6542C23.5149 17.4503 23.6778 17.1964 23.7261 16.9194C23.7753 16.637 23.7003 16.3556 23.5084 16.123C23.3221 15.8961 23.0668 15.7716 22.7871 15.7685C22.5136 15.7654 22.2434 15.878 22.0093 16.0726C21.902 16.1596 21.7873 16.2537 21.6775 16.3487C20.3921 17.4298 19.1067 18.5109 17.7967 19.6123C17.7581 19.5793 17.722 19.5479 17.686 19.5155L17.6861 19.5154M23.2758 17.6542L17.6861 19.5154M18.5899 21.6174L18.5894 21.6178C18.3502 21.8199 18.1003 21.9675 17.8158 21.9709C17.5288 21.9743 17.2794 21.8302 17.0433 21.6288C16.4233 21.1037 15.8019 20.5791 15.1801 20.0542C14.2166 19.2407 13.2522 18.4264 12.2906 17.6085C12.0597 17.4137 11.9062 17.1672 11.8696 16.8939C11.8326 16.6167 11.9204 16.3458 12.1101 16.1206C12.2952 15.9008 12.5371 15.7619 12.8147 15.7499C13.0882 15.738 13.3515 15.8514 13.5819 16.0461L18.5899 21.6174ZM18.5899 21.6174C19.0616 21.2173 19.5333 20.8186 20.0053 20.4197M18.5899 21.6174L20.0053 20.4197M17.6861 19.5154L17.6794 19.5098M17.6861 19.5154L17.6794 19.5098M17.6794 19.5098C16.9957 18.9326 16.3133 18.3554 15.6309 17.7781M17.6794 19.5098L15.6309 17.7781M20.0053 20.4197L20.0063 20.4188M20.0053 20.4197L20.0063 20.4188M20.0063 20.4188C20.4779 20.0202 20.9496 19.6215 21.4214 19.2213L20.0063 20.4188ZM15.6309 17.7781L15.6308 17.778M15.6309 17.7781L15.6308 17.778M15.6308 17.778C14.9484 17.2008 14.2659 16.6235 13.582 16.0462L15.6308 17.778Z" fill="white"/>
<path d="M23.2758 17.6542L23.2752 17.6548C22.9669 17.9161 22.6572 18.1773 22.3479 18.4384L22.3478 18.4385L22.3474 18.4388C22.038 18.6998 21.729 18.9605 21.4214 19.2212L23.2758 17.6542ZM23.2758 17.6542C23.5149 17.4503 23.6778 17.1964 23.7261 16.9194C23.7753 16.637 23.7003 16.3556 23.5084 16.123C23.3221 15.8961 23.0668 15.7716 22.7871 15.7685C22.5136 15.7654 22.2434 15.878 22.0093 16.0726C21.902 16.1596 21.7873 16.2537 21.6775 16.3487C20.3921 17.4298 19.1067 18.5109 17.7967 19.6123C17.7581 19.5793 17.722 19.5479 17.686 19.5155L17.6861 19.5154M23.2758 17.6542L17.6861 19.5154M18.5899 21.6174L18.5894 21.6178C18.3502 21.8199 18.1003 21.9675 17.8158 21.9709C17.5288 21.9743 17.2794 21.8302 17.0433 21.6288C16.4233 21.1037 15.8019 20.5791 15.1801 20.0542C14.2166 19.2407 13.2522 18.4264 12.2906 17.6085C12.0597 17.4137 11.9062 17.1672 11.8696 16.8939C11.8326 16.6167 11.9204 16.3458 12.1101 16.1206C12.2952 15.9008 12.5371 15.7619 12.8147 15.7499C13.0882 15.738 13.3515 15.8514 13.5819 16.0461L18.5899 21.6174ZM18.5899 21.6174C19.0616 21.2173 19.5333 20.8186 20.0053 20.4197M18.5899 21.6174L20.0053 20.4197M17.6861 19.5154L17.6794 19.5098M17.6861 19.5154L17.6794 19.5098M17.6794 19.5098C16.9957 18.9326 16.3133 18.3554 15.6309 17.7781M17.6794 19.5098L15.6309 17.7781M20.0053 20.4197L20.0063 20.4188M20.0053 20.4197L20.0063 20.4188M20.0063 20.4188C20.4779 20.0202 20.9496 19.6215 21.4214 19.2213L20.0063 20.4188ZM15.6309 17.7781L15.6308 17.778M15.6309 17.7781L15.6308 17.778M15.6308 17.778C14.9484 17.2008 14.2659 16.6235 13.582 16.0462L15.6308 17.778Z" fill="url(#paint1_linear)"/>
<path d="M23.2758 17.6542L23.2752 17.6548C22.9669 17.9161 22.6572 18.1773 22.3479 18.4384L22.3478 18.4385L22.3474 18.4388C22.038 18.6998 21.729 18.9605 21.4214 19.2212L23.2758 17.6542ZM23.2758 17.6542C23.5149 17.4503 23.6778 17.1964 23.7261 16.9194C23.7753 16.637 23.7003 16.3556 23.5084 16.123C23.3221 15.8961 23.0668 15.7716 22.7871 15.7685C22.5136 15.7654 22.2434 15.878 22.0093 16.0726C21.902 16.1596 21.7873 16.2537 21.6775 16.3487C20.3921 17.4298 19.1067 18.5109 17.7967 19.6123C17.7581 19.5793 17.722 19.5479 17.686 19.5155L17.6861 19.5154M23.2758 17.6542L17.6861 19.5154M18.5899 21.6174L18.5894 21.6178C18.3502 21.8199 18.1003 21.9675 17.8158 21.9709C17.5288 21.9743 17.2794 21.8302 17.0433 21.6288C16.4233 21.1037 15.8019 20.5791 15.1801 20.0542C14.2166 19.2407 13.2522 18.4264 12.2906 17.6085C12.0597 17.4137 11.9062 17.1672 11.8696 16.8939C11.8326 16.6167 11.9204 16.3458 12.1101 16.1206C12.2952 15.9008 12.5371 15.7619 12.8147 15.7499C13.0882 15.738 13.3515 15.8514 13.5819 16.0461L18.5899 21.6174ZM18.5899 21.6174C19.0616 21.2173 19.5333 20.8186 20.0053 20.4197M18.5899 21.6174L20.0053 20.4197M17.6861 19.5154L17.6794 19.5098M17.6861 19.5154L17.6794 19.5098M17.6794 19.5098C16.9957 18.9326 16.3133 18.3554 15.6309 17.7781M17.6794 19.5098L15.6309 17.7781M20.0053 20.4197L20.0063 20.4188M20.0053 20.4197L20.0063 20.4188M20.0063 20.4188C20.4779 20.0202 20.9496 19.6215 21.4214 19.2213L20.0063 20.4188ZM15.6309 17.7781L15.6308 17.778M15.6309 17.7781L15.6308 17.778M15.6308 17.778C14.9484 17.2008 14.2659 16.6235 13.582 16.0462L15.6308 17.778Z" stroke="url(#paint2_linear)" stroke-width="0.564423"/>
<defs>
<linearGradient id="paint0_linear" x1="111.731" y1="-4.2881" x2="41.7724" y2="24.2738" gradientUnits="userSpaceOnUse">
<stop stop-color="#C99A6C"/>
<stop offset="0.2022" stop-color="#EFD7B9"/>
<stop offset="0.4438" stop-color="#DBBA95"/>
<stop offset="0.691" stop-color="#C09362"/>
<stop offset="0.8539" stop-color="#EFDBC0"/>
<stop offset="1" stop-color="#B98C5A"/>
</linearGradient>
<linearGradient id="paint1_linear" x1="26.0554" y1="16.7856" x2="17.6448" y2="24.028" gradientUnits="userSpaceOnUse">
<stop offset="0.229167" stop-color="#DBBA95"/>
<stop offset="0.75" stop-color="#C09362"/>
<stop offset="1" stop-color="#B98C5A"/>
</linearGradient>
<linearGradient id="paint2_linear" x1="36.1178" y1="15.2474" x2="20.6154" y2="27.9057" gradientUnits="userSpaceOnUse">
<stop stop-color="#C99A6C"/>
<stop offset="0.2022" stop-color="#EFD7B9"/>
<stop offset="0.4438" stop-color="#DBBA95"/>
<stop offset="0.691" stop-color="#C09362"/>
<stop offset="0.8539" stop-color="#EFDBC0"/>
<stop offset="1" stop-color="#B98C5A"/>
</linearGradient>
</defs>
</svg>
