<svg width="24" height="18" viewBox="0 0 24 18" fill="none" xmlns="http://www.w3.org/2000/svg">
<path d="M22.2857 0.427734H1.71429C1.25963 0.427734 0.823593 0.608346 0.502103 0.929837C0.180612 1.25133 0 1.68736 0 2.14202V15.8563C0 16.311 0.180612 16.747 0.502103 17.0685C0.823593 17.39 1.25963 17.5706 1.71429 17.5706H22.2857C22.7404 17.5706 23.1764 17.39 23.4979 17.0685C23.8194 16.747 24 16.311 24 15.8563V2.14202C24 1.68736 23.8194 1.25133 23.4979 0.929837C23.1764 0.608346 22.7404 0.427734 22.2857 0.427734ZM20.4 2.14202L12 7.95345L3.6 2.14202H20.4ZM1.71429 15.8563V2.92202L11.5114 9.70202C11.6549 9.80156 11.8254 9.8549 12 9.8549C12.1746 9.8549 12.3451 9.80156 12.4886 9.70202L22.2857 2.92202V15.8563H1.71429Z" fill="url(#paint0_linear)"/>
<defs>
<linearGradient id="paint0_linear" x1="50.8514" y1="-1.94745" x2="9.54187" y2="21.6642" gradientUnits="userSpaceOnUse">
<stop stop-color="#C99A6C"/>
<stop offset="0.2022" stop-color="#EFD7B9"/>
<stop offset="0.4438" stop-color="#DBBA95"/>
<stop offset="0.691" stop-color="#C09362"/>
<stop offset="0.8539" stop-color="#EFDBC0"/>
<stop offset="1" stop-color="#B98C5A"/>
</linearGradient>
</defs>
</svg>
