<svg width="71" height="80" viewBox="0 0 71 80" fill="none" xmlns="http://www.w3.org/2000/svg">
<g clip-path="url(#clip0)">
<path d="M28.1314 69.5113C28.1314 69.7099 28.1314 69.8661 28.1314 70.0224C28.1314 72.7811 28.1292 75.5399 28.1336 78.2986C28.1344 78.7324 28.0347 79.1171 27.7044 79.4161C27.1813 79.8908 26.4544 79.8558 25.9106 79.3172C24.9352 78.3515 23.968 77.3768 22.9978 76.4059C20.7933 74.2007 18.5851 71.9977 16.3881 69.7843C16.1805 69.5752 15.9737 69.5046 15.688 69.5053C11.8229 69.5135 7.95858 69.512 4.09349 69.5098C1.61225 69.5098 0 67.8901 0 65.4007C0 51.9268 0 17.5465 0 4.07266C0 1.62415 1.63234 0 4.09126 0C19.2838 0 51.6634 0 66.8567 0C69.2642 0 70.9092 1.63085 70.9092 4.03025C70.9107 17.5443 70.9107 51.964 70.9085 65.478C70.9085 67.8782 69.2665 69.5098 66.8574 69.5105C59.8742 69.512 35.7039 69.5113 28.7207 69.5113C28.5384 69.5113 28.3554 69.5113 28.1314 69.5113ZM25.45 75.3851C25.4977 75.3539 25.5445 75.3226 25.5921 75.2921C25.5921 75.1478 25.5921 75.0035 25.5921 74.8591C25.5921 72.7536 25.5921 70.6481 25.5921 68.5418C25.5921 67.4214 26.0437 66.972 27.1709 66.972C34.6742 66.972 59.3638 66.972 66.8671 66.972C67.87 66.972 68.3699 66.4772 68.3699 65.4817C68.3707 51.9677 68.3707 17.548 68.3699 4.03397C68.3699 3.02808 67.8804 2.54076 66.8723 2.54076C51.6656 2.54076 19.2733 2.54076 4.06671 2.54151C3.0132 2.54151 2.54151 3.01916 2.54151 4.08456C2.54076 17.5718 2.54076 51.9655 2.54076 65.4527C2.54076 66.4832 3.02511 66.9712 4.05257 66.9712C8.15722 66.972 12.2619 66.9772 16.3673 66.9653C16.9134 66.9638 17.3322 67.1431 17.7147 67.5285C20.1937 70.0246 22.6868 72.5081 25.171 74.999C25.2811 75.1099 25.3578 75.2557 25.45 75.3851Z" fill="#1A7F84"/>
<path d="M29.905 38.3085C29.905 37.1196 29.8328 35.9262 29.9214 34.744C30.0716 32.7263 30.9793 31.0292 32.3751 29.5851C33.2597 28.67 34.2842 27.9334 35.3511 27.2489C36.2684 26.6604 37.2118 26.1054 38.0823 25.4529C40.2429 23.8317 40.5576 20.8059 38.8516 18.7048C37.8353 17.4534 36.5236 16.8411 34.9359 16.7116C33.9107 16.6283 32.8929 16.6395 31.9249 16.9839C29.8566 17.7198 28.7748 19.2829 28.3999 21.3877C28.3024 21.9345 28.3017 22.5037 28.1581 23.0364C27.5859 25.1657 25.5749 26.4209 23.3258 26.092C21.3341 25.8011 19.7546 23.9612 19.7836 21.8847C19.8751 15.394 24.5579 9.57221 30.8759 8.41975C34.3124 7.7933 37.6924 7.98302 40.844 9.57667C44.7776 11.5661 47.395 14.7095 48.2029 19.0954C48.9224 23.0014 48.287 26.6946 45.747 29.9035C44.5372 31.4317 42.9942 32.5693 41.3648 33.6042C40.5702 34.1086 39.7838 34.6264 38.993 35.1361C38.5503 35.421 38.3606 35.7953 38.3725 36.3473C38.4067 37.9462 38.3955 39.5458 38.3799 41.1446C38.3606 43.2174 37.0147 44.8661 34.991 45.3289C32.4457 45.9107 29.8745 43.8959 29.8403 41.2838C29.8276 40.292 29.838 39.3003 29.838 38.3085C29.8603 38.3085 29.8827 38.3085 29.905 38.3085ZM32.698 38.313C32.6786 38.313 32.6593 38.313 32.6399 38.313C32.6399 39.2177 32.637 40.1231 32.6407 41.0278C32.6451 41.9459 33.2649 42.5992 34.1175 42.5954C34.9746 42.591 35.5713 41.9452 35.572 41.0137C35.5735 39.3523 35.5661 37.691 35.5772 36.0296C35.5795 35.6985 35.6167 35.36 35.6926 35.0379C35.9426 33.9777 36.6858 33.2828 37.5399 32.7054C38.74 31.8937 39.9877 31.1512 41.1766 30.3239C45.0714 27.6142 46.2395 23.7038 45.3869 19.3759C44.7151 15.9632 42.5642 13.5876 39.5004 12.0594C37.3978 11.0111 35.1249 10.7857 32.7999 10.9858C30.1349 11.215 27.8129 12.2015 25.9238 14.1195C23.8258 16.2504 22.7246 18.8253 22.5944 21.8088C22.5587 22.6242 23.1666 23.276 23.9262 23.3124C24.787 23.3533 25.4387 22.7916 25.5184 21.9405C25.5437 21.6697 25.5593 21.3974 25.5965 21.128C25.9305 18.6974 27.0718 16.7369 29.0591 15.2943C30.2956 14.3971 31.7189 13.9968 33.2277 13.8904C35.0341 13.7632 36.8227 13.9075 38.4283 14.7951C41.1126 16.2801 42.6743 18.498 42.7025 21.6801C42.7264 24.3622 41.6736 26.4528 39.4617 27.9565C38.7244 28.4579 37.9521 28.908 37.2178 29.4132C36.383 29.9883 35.5289 30.5493 34.7618 31.2085C33.5751 32.2278 32.8125 33.5298 32.7091 35.1182C32.6422 36.1792 32.698 37.2483 32.698 38.313Z" fill="url(#paint0_linear)"/>
<path d="M28.4014 54.0707C28.4043 50.896 30.9399 48.3657 34.1175 48.3672C37.2758 48.3687 39.8463 50.9355 39.8411 54.0819C39.8359 57.2416 37.2453 59.8084 34.0692 59.8002C30.9429 59.7928 28.3984 57.2193 28.4014 54.0707ZM37.002 54.0811C37.0005 52.4666 35.7075 51.1683 34.1071 51.1728C32.5001 51.1773 31.2189 52.4718 31.2196 54.0893C31.2204 55.6867 32.544 57.0021 34.1339 56.9872C35.7171 56.9723 37.0035 55.6696 37.002 54.0811Z" fill="url(#paint1_linear)"/>
</g>
<defs>
<linearGradient id="paint0_linear" x1="80.5861" y1="2.91298" x2="20.9278" y2="21.6303" gradientUnits="userSpaceOnUse">
<stop stop-color="#C99A6C"/>
<stop offset="0.2022" stop-color="#EFD7B9"/>
<stop offset="0.4438" stop-color="#DBBA95"/>
<stop offset="0.691" stop-color="#C09362"/>
<stop offset="0.8539" stop-color="#EFDBC0"/>
<stop offset="1" stop-color="#B98C5A"/>
</linearGradient>
<linearGradient id="paint1_linear" x1="52.64" y1="46.7831" x2="30.2527" y2="55.9286" gradientUnits="userSpaceOnUse">
<stop stop-color="#C99A6C"/>
<stop offset="0.2022" stop-color="#EFD7B9"/>
<stop offset="0.4438" stop-color="#DBBA95"/>
<stop offset="0.691" stop-color="#C09362"/>
<stop offset="0.8539" stop-color="#EFDBC0"/>
<stop offset="1" stop-color="#B98C5A"/>
</linearGradient>
<clipPath id="clip0">
<rect width="70.91" height="79.7487" fill="white"/>
</clipPath>
</defs>
</svg>
