<svg width="16" height="16" viewBox="0 0 16 16" fill="none" xmlns="http://www.w3.org/2000/svg">
<path d="M15.7372 5.88567C15.2758 4.03894 14.2238 2.53282 12.6105 1.4095C10.8998 0.218521 8.98462 -0.221008 6.91829 0.103483C5.42162 0.338715 4.08638 0.98093 2.9493 2.01208C1.38368 3.43217 0.509847 5.20447 0.352286 7.27902C0.231779 8.86539 0.586533 10.3886 1.40656 11.8071C1.40752 11.8132 1.40785 11.8229 1.4072 11.8287C1.32021 12.06 1.22419 12.294 1.13107 12.5205C1.09434 12.6098 1.0576 12.699 1.02152 12.7883C0.929687 13.0145 0.837857 13.241 0.746349 13.4676C0.520157 14.0257 0.286233 14.6028 0.0545635 15.1696C-0.0443551 15.4116 -0.0079453 15.6407 0.157026 15.815C0.2727 15.9372 0.414795 16 0.565267 16C0.639053 16 0.715095 15.9849 0.790814 15.9542C0.952564 15.8885 1.11464 15.8231 1.27671 15.758C1.85056 15.5263 2.4444 15.2866 3.0247 15.0407C3.20224 14.9656 3.3279 14.7713 3.36044 14.6183C3.40458 14.4111 3.33885 14.21 3.18516 14.0804C3.01954 13.9409 2.77885 13.909 2.55685 13.9976C2.24527 14.122 1.93885 14.247 1.61728 14.3782C1.65498 14.2844 1.69268 14.191 1.73038 14.0972C1.98525 13.4634 2.24882 12.8079 2.52012 12.1693C2.6519 11.859 2.63096 11.597 2.44955 11.2938C1.55252 9.79246 1.27413 8.17484 1.62179 6.48568C1.92918 4.99276 2.67252 3.74184 3.83119 2.76773C5.50733 1.35859 7.43479 0.867181 9.56041 1.30671C11.0316 1.6109 12.2734 2.35913 13.2507 3.53046C14.6288 5.18191 15.1176 7.08149 14.7032 9.17699C14.411 10.6541 13.6692 11.9057 12.4983 12.8969C10.9247 14.229 9.08837 14.7423 7.04105 14.4227C6.18751 14.2893 5.35621 13.9699 4.57002 13.4727C4.41729 13.376 4.24813 13.3425 4.09315 13.3776C3.94976 13.4105 3.82539 13.5011 3.74323 13.6329C3.65784 13.7695 3.63271 13.9271 3.67266 14.0766C3.71101 14.2216 3.80928 14.3495 3.94912 14.4368C5.75962 15.5653 7.71801 15.9211 9.77017 15.4947C11.5069 15.1338 12.9626 14.2654 14.0965 12.9143C15.8329 10.8439 16.3855 8.47902 15.7372 5.88567Z" fill="white"/>
<path d="M7.43791 11.4018C8.08298 12.0382 8.90301 12.3705 9.74559 12.3705C10.1944 12.3705 10.6497 12.2764 11.0886 12.0833C11.5116 11.8974 11.8338 11.6006 12.1451 11.3135C12.1734 11.2871 12.2021 11.261 12.2308 11.2346C12.5247 10.9652 12.6919 10.614 12.7015 10.245C12.7112 9.87603 12.5627 9.5161 12.283 9.23156C12.0487 8.99343 11.8087 8.75401 11.5764 8.52264L11.4394 8.38634C10.8695 7.81792 10.1065 7.79278 9.49587 8.32254C9.17978 8.59644 8.89334 8.58741 8.59368 8.29386C8.39552 8.09955 8.19575 7.89912 8.00243 7.70546C7.93766 7.64069 7.87322 7.57592 7.80846 7.51115C7.49495 7.19761 7.48592 6.89632 7.77978 6.56281C8.24376 6.0366 8.25214 5.26646 7.79911 4.77118C7.43663 4.37483 7.05223 3.99073 6.65655 3.6295C6.15294 3.16967 5.35901 3.1861 4.84863 3.66623C4.71298 3.79384 4.587 3.92209 4.4739 4.0468C3.92518 4.65228 3.63905 5.37763 3.62326 6.20287V6.20996C3.63196 7.12994 3.95643 7.91878 4.58764 8.55455C5.43667 9.40976 6.43906 10.4164 7.43791 11.4018ZM6.89918 5.84261C6.36077 6.43746 6.25927 7.21695 6.64044 7.82855C7.04321 8.47495 7.58839 9.03435 8.21734 9.44682C8.8028 9.8306 9.6167 9.74424 10.1973 9.2364C10.4035 9.05594 10.4683 9.05756 10.6594 9.24864L10.8804 9.46937C11.0657 9.65401 11.2571 9.8451 11.444 10.0339C11.4887 10.079 11.5416 10.1477 11.5397 10.2186C11.5377 10.2901 11.48 10.3571 11.432 10.4006C11.3821 10.4461 11.3328 10.4921 11.2835 10.5382C11.0654 10.7432 10.8591 10.9365 10.5991 11.0425C10.303 11.1634 10.0256 11.2201 9.75364 11.2175C9.18107 11.2136 8.70259 11.0264 8.33173 10.661L8.01596 10.35C7.14213 9.49 6.23865 8.60063 5.37609 7.70352C4.98331 7.29493 4.76808 6.7771 4.77033 6.24541C4.77259 5.71565 4.98879 5.19138 5.37963 4.76892C5.47179 4.66935 5.55621 4.58525 5.63772 4.5121C5.68219 4.47215 5.74019 4.44508 5.7998 4.44508C5.84652 4.44508 5.8942 4.46183 5.93674 4.50276C6.28182 4.8353 6.62079 5.1743 6.94429 5.51007C6.97683 5.54422 7.07607 5.64702 6.89918 5.84261Z" fill="white"/>
</svg>
