<svg width="15" height="12" viewBox="0 0 15 12" fill="none" xmlns="http://www.w3.org/2000/svg">
<path d="M8.86367 4.39801H2.3278L5.50301 1.17978C5.76926 0.909906 5.76926 0.472274 5.50301 0.202403C5.23676 -0.0674677 4.805 -0.0674677 4.53875 0.202403L0.199686 4.60033C-0.0665621 4.8702 -0.0665621 5.30783 0.199686 5.5777L4.53875 9.9758C4.805 10.2457 5.23676 10.2457 5.50301 9.9758C5.76926 9.70593 5.76926 9.26829 5.50301 8.99842L2.32797 5.78019H8.86367C11.4996 5.78019 13.6364 7.94607 13.6364 10.6178V11.3089C13.6364 11.6906 13.9417 12 14.3182 12C14.6947 12 15 11.6906 15 11.3089V10.6178C15 7.18258 12.2526 4.39801 8.86367 4.39801Z" fill="#1A7F84"/>
</svg>
