<svg width="66" height="80" viewBox="0 0 66 80" fill="none" xmlns="http://www.w3.org/2000/svg">
<g clip-path="url(#clip0)">
<path d="M61.0779 69.4505C61.5319 69.4505 61.9411 69.4465 62.3504 69.4513C63.9202 69.4697 65.0463 70.5879 65.0543 72.1528C65.0631 73.8713 65.0639 75.5898 65.0543 77.3074C65.0455 78.8556 63.925 79.9922 62.3831 79.9938C56.5892 80.001 50.7944 80.001 45.0004 79.993C43.4986 79.9906 42.3708 78.8556 42.3636 77.361C42.3548 75.6025 42.354 73.8441 42.3636 72.0865C42.3716 70.631 43.4706 69.5064 44.9261 69.4553C45.3769 69.4393 45.8285 69.4529 46.2904 69.4529C46.3072 69.3442 46.328 69.2674 46.3288 69.1907C46.3312 68.3938 46.3304 67.5962 46.3304 66.8304C43.5945 67.1214 40.8817 66.9327 38.1745 66.9655C35.4706 66.9983 32.7666 66.9727 30.0626 66.9727C21.6574 66.9727 13.253 66.9735 4.84776 66.9719C2.89592 66.9711 1.37809 65.8345 0.934486 64.0282C0.849762 63.6829 0.815393 63.3176 0.815393 62.9611C0.808999 43.4739 0.8082 23.9874 0.811397 4.50018C0.811397 2.09035 2.42514 0.513374 4.88293 0.513374C16.7786 0.510177 28.6727 0.510976 40.5676 0.510976C41.9264 0.510976 43.2851 0.507779 44.6439 0.511776C47.0434 0.519768 48.6795 2.15589 48.6803 4.55693C48.6827 13.8014 48.6835 23.0451 48.6731 32.2896C48.6731 32.6205 48.7642 32.8107 49.0424 32.9961C52.2203 35.1166 55.22 37.4537 57.7529 40.3375C59.007 41.7658 60.1284 43.2948 60.6983 45.134C60.9229 45.8597 61.0595 46.6446 61.0627 47.4031C61.0899 54.5559 61.0787 61.7087 61.0787 68.8614C61.0779 69.0444 61.0779 69.2267 61.0779 69.4505ZM46.4119 46.9827C46.4119 36.7288 46.4119 26.5619 46.4119 16.4079C32.0249 16.4079 17.6722 16.4079 3.28996 16.4079C3.28996 16.5549 3.28996 16.6732 3.28996 16.7907C3.28996 32.1761 3.28917 47.5614 3.29076 62.9467C3.29076 63.9546 3.83987 64.4917 4.85416 64.4917C18.135 64.4917 31.4158 64.4854 44.6967 64.5045C45.7333 64.5061 46.344 63.8611 46.332 62.8828C46.3224 62.0971 46.3192 61.3106 46.336 60.5249C46.3416 60.258 46.2529 60.0853 46.0499 59.9159C43.2236 57.5652 40.4077 55.2033 37.5831 52.851C35.3003 50.9503 35.0486 47.4775 37.0436 45.2922C39.0593 43.0838 42.4347 43.0071 44.56 45.1228C45.1619 45.7231 45.7597 46.3281 46.4119 46.9827ZM46.2992 13.8749C46.3096 13.771 46.328 13.6679 46.328 13.5656C46.3296 10.5419 46.3336 7.51826 46.3272 4.49459C46.3248 3.51547 45.7725 2.99114 44.7614 2.99114C31.467 2.98954 18.1734 2.98954 4.87893 2.99114C3.81349 2.99114 3.28996 3.52426 3.28917 4.5937C3.28837 7.53745 3.28917 10.4812 3.28917 13.4249C3.28917 13.568 3.28917 13.7111 3.28917 13.8757C17.6314 13.8749 31.933 13.8749 46.2992 13.8749ZM48.8114 35.7712C48.8114 35.9798 48.8114 36.1349 48.8114 36.2892C48.8114 40.1121 48.8114 43.9351 48.8114 47.7588C48.8114 48.4646 48.8122 49.1712 48.8106 49.8769C48.809 50.4292 48.6004 50.8608 48.0736 51.095C47.5493 51.3284 47.0617 51.2165 46.5902 50.7473C45.3161 49.4781 44.0541 48.1968 42.772 46.9364C41.6954 45.8773 39.8394 45.9357 38.8212 47.0379C37.7261 48.2224 37.8117 49.9233 39.037 50.9783C40.1671 51.9518 41.3061 52.915 42.4523 53.8693C44.2842 55.3943 46.1186 56.9178 47.9673 58.4228C48.57 58.9136 48.8393 59.4779 48.8282 60.2795C48.7874 63.2097 48.8122 66.1407 48.8122 69.0716C48.8122 69.2283 48.8122 69.3849 48.8122 69.5608C52.138 69.5608 55.4182 69.5608 58.7136 69.5608C58.7216 69.4281 58.7336 69.3242 58.7336 69.2195C58.7344 61.9596 58.736 54.6998 58.7288 47.4399C58.7288 47.1106 58.6809 46.7741 58.6065 46.4528C58.2684 44.9869 57.4476 43.7736 56.5196 42.6322C54.376 39.9962 51.7863 37.8493 49.0328 35.8871C48.9832 35.8511 48.9241 35.8288 48.8114 35.7712ZM44.8381 77.3745C44.9996 77.3825 45.1051 77.3913 45.2106 77.3921C50.8687 77.4345 56.5268 77.4729 62.1849 77.5248C62.519 77.528 62.5846 77.4073 62.5822 77.1076C62.571 75.5362 62.5774 73.9656 62.575 72.3942C62.575 72.2927 62.5566 72.1912 62.5462 72.0929C56.6755 72.0929 50.8359 72.0929 44.9596 72.0929C44.9197 73.8569 44.8797 75.5953 44.8381 77.3745Z" fill="#1A7F84"/>
<path d="M19.2281 35.6376C19.4999 35.3339 19.7541 35.027 20.0322 34.744C20.8643 33.9 21.7043 33.0639 22.5444 32.2287C23.0855 31.69 23.4843 31.614 24.1589 31.9601C27.7932 33.8233 29.8386 36.8222 30.4564 40.8265C30.5292 41.2981 30.5691 41.7809 30.5635 42.2581C30.5467 43.6112 29.8402 44.5912 28.7907 45.3569C27.6086 46.2193 26.2562 46.7045 24.8447 47.0106C20.678 47.9146 16.5234 47.881 12.4015 46.7364C11.2154 46.4071 10.102 45.9004 9.15721 45.0811C8.20607 44.2563 7.69693 43.2252 7.76247 41.9543C7.99666 37.456 10.0388 34.0878 14.0472 31.9633C14.6858 31.6252 15.1158 31.698 15.637 32.1975C16.7232 33.2382 17.8046 34.2852 18.8876 35.3283C18.9724 35.4098 19.0619 35.4874 19.2281 35.6376ZM23.637 34.4763C22.4125 35.7024 21.2207 36.9013 20.0242 38.0946C19.376 38.7412 18.7198 38.7428 18.0764 38.1026C16.9726 37.0036 15.8704 35.9022 14.7738 34.7952C14.6722 34.6929 14.6187 34.5442 14.5412 34.4147C11.8332 36.1683 10.4137 38.523 10.1283 41.5955C10.0396 42.5498 10.4281 43.1732 11.217 43.5713C11.878 43.9046 12.5613 44.2291 13.2711 44.4233C16.549 45.3185 19.8692 45.3577 23.203 44.7798C24.5186 44.552 25.7918 44.1819 26.9508 43.485C27.7397 43.011 28.1497 42.3724 27.9379 41.4244C27.9123 41.3085 27.9155 41.1862 27.8987 41.0671C27.5007 38.2305 26.046 36.078 23.637 34.4763Z" fill="url(#paint0_linear)"/>
<path d="M13.7149 25.6583C13.7277 22.6802 16.0784 20.3479 19.0573 20.3575C22.053 20.367 24.3909 22.7257 24.3773 25.7254C24.3637 28.6867 21.9922 31.0206 19.0109 31.0087C16.0384 30.9951 13.7021 28.6348 13.7149 25.6583ZM16.1983 25.6799C16.1983 27.3048 17.4323 28.5317 19.0621 28.5269C20.659 28.5229 21.8979 27.28 21.8971 25.6831C21.8963 24.0661 20.6518 22.8328 19.0253 22.8376C17.422 22.8424 16.1983 24.0725 16.1983 25.6799Z" fill="url(#paint1_linear)"/>
<path d="M18.3571 60.5272C15.1072 60.5272 11.8573 60.5272 8.60666 60.5264C8.42043 60.5264 8.23259 60.5256 8.04876 60.5032C7.42612 60.4305 7.03767 59.9797 7.02568 59.3323C7.01369 58.6433 7.37257 58.1757 8 58.0806C8.19663 58.051 8.39805 58.0422 8.59707 58.0422C15.0968 58.0406 21.5974 58.0406 28.0971 58.0422C28.2697 58.0422 28.444 58.0462 28.615 58.0662C29.308 58.1477 29.7212 58.6177 29.7116 59.3027C29.7021 60.0068 29.2648 60.464 28.5463 60.5176C28.4136 60.5272 28.2801 60.5272 28.1467 60.5272C24.884 60.528 21.6205 60.5272 18.3571 60.5272Z" fill="url(#paint2_linear)"/>
<path d="M18.3493 53.9489C15.0075 53.9489 11.6665 53.9505 8.32473 53.9473C7.4647 53.9465 7.00032 53.4701 7.0275 52.6397C7.04988 51.9451 7.49507 51.5031 8.23681 51.4767C8.82188 51.4567 9.40775 51.4703 9.99362 51.4703C16.0905 51.4703 22.1874 51.4695 28.2851 51.4711C29.2603 51.4711 29.8565 52.1433 29.6703 53.0209C29.5448 53.6108 29.1212 53.9441 28.453 53.9465C26.8289 53.9529 25.2047 53.9489 23.5806 53.9489C21.8366 53.9489 20.0933 53.9489 18.3493 53.9489Z" fill="url(#paint3_linear)"/>
<path d="M36.2595 32.3707C34.6234 32.3707 32.9873 32.3787 31.3511 32.3675C30.4264 32.3611 29.9148 31.6897 30.1266 30.7897C30.2297 30.3493 30.5039 30.0623 30.9435 29.9544C31.1225 29.9105 31.3112 29.8929 31.4958 29.8921C34.6881 29.8881 37.8813 29.8873 41.0736 29.8913C42.0015 29.8921 42.5147 30.3813 42.4675 31.1949C42.4276 31.8807 41.9248 32.3643 41.2079 32.3683C39.5589 32.3771 37.9092 32.3707 36.2595 32.3707Z" fill="url(#paint4_linear)"/>
<path d="M34.3481 24.5638C33.3371 24.5638 32.3252 24.587 31.3149 24.5566C30.4045 24.5294 29.9241 23.8628 30.1256 22.9788C30.2327 22.5097 30.5771 22.1852 31.0575 22.118C31.2413 22.0924 31.4284 22.0829 31.6146 22.0829C33.4506 22.0805 35.2865 22.0805 37.1224 22.0829C37.2815 22.0829 37.4422 22.0916 37.5996 22.1108C38.2414 22.1892 38.6243 22.6408 38.6275 23.3145C38.6307 23.9915 38.2582 24.5015 37.6188 24.5279C36.5302 24.5726 35.4384 24.5398 34.3481 24.5398C34.3481 24.5478 34.3481 24.5558 34.3481 24.5638Z" fill="url(#paint5_linear)"/>
<path d="M38.8701 37.7127C39.6414 37.7127 40.4119 37.7079 41.1832 37.7143C41.9969 37.7207 42.4773 38.1874 42.4749 38.9555C42.4725 39.7197 41.9873 40.1864 41.1728 40.1896C39.6438 40.1944 38.1156 40.1952 36.5866 40.1896C35.7753 40.1864 35.2917 39.7125 35.2949 38.946C35.2981 38.1786 35.7777 37.7207 36.597 37.7151C37.3547 37.7087 38.1124 37.7127 38.8701 37.7127Z" fill="url(#paint6_linear)"/>
<path d="M24.7976 9.67574C23.4932 9.67574 22.1879 9.69012 20.8835 9.67014C20.0187 9.65655 19.4696 8.84529 19.7302 8.01803C19.862 7.60161 20.1394 7.33864 20.5662 7.25152C20.7476 7.21475 20.9355 7.19717 21.1209 7.19717C23.5835 7.19397 26.0469 7.19317 28.5094 7.19637C29.3455 7.19717 29.7763 7.4945 29.9202 8.14751C30.1048 8.98596 29.6061 9.65895 28.7508 9.67094C27.4336 9.68933 26.1156 9.67574 24.7976 9.67574Z" fill="#1A7F84"/>
<path d="M35.4656 9.67617C35.026 9.67537 34.5864 9.68816 34.1468 9.67297C33.4666 9.64979 32.963 9.14625 32.9351 8.48364C32.9055 7.78667 33.3219 7.25915 34.0389 7.22398C34.982 7.17762 35.93 7.17762 36.8731 7.21838C37.6117 7.25035 38.0441 7.77868 38.0169 8.48924C37.9889 9.21099 37.5341 9.65459 36.7836 9.67457C36.3456 9.68576 35.9052 9.67617 35.4656 9.67617Z" fill="#1A7F84"/>
</g>
<defs>
<linearGradient id="paint0_linear" x1="56.0809" y1="29.5476" x2="17.3047" y2="52.2617" gradientUnits="userSpaceOnUse">
<stop stop-color="#C99A6C"/>
<stop offset="0.2022" stop-color="#EFD7B9"/>
<stop offset="0.4438" stop-color="#DBBA95"/>
<stop offset="0.691" stop-color="#C09362"/>
<stop offset="0.8539" stop-color="#EFDBC0"/>
<stop offset="1" stop-color="#B98C5A"/>
</linearGradient>
<linearGradient id="paint1_linear" x1="36.3067" y1="18.8817" x2="15.4431" y2="27.4086" gradientUnits="userSpaceOnUse">
<stop stop-color="#C99A6C"/>
<stop offset="0.2022" stop-color="#EFD7B9"/>
<stop offset="0.4438" stop-color="#DBBA95"/>
<stop offset="0.691" stop-color="#C09362"/>
<stop offset="0.8539" stop-color="#EFDBC0"/>
<stop offset="1" stop-color="#B98C5A"/>
</linearGradient>
<linearGradient id="paint2_linear" x1="55.0936" y1="57.6965" x2="51.6109" y2="70.6693" gradientUnits="userSpaceOnUse">
<stop stop-color="#C99A6C"/>
<stop offset="0.2022" stop-color="#EFD7B9"/>
<stop offset="0.4438" stop-color="#DBBA95"/>
<stop offset="0.691" stop-color="#C09362"/>
<stop offset="0.8539" stop-color="#EFDBC0"/>
<stop offset="1" stop-color="#B98C5A"/>
</linearGradient>
<linearGradient id="paint3_linear" x1="55.0765" y1="51.1216" x2="51.5984" y2="64.0838" gradientUnits="userSpaceOnUse">
<stop stop-color="#C99A6C"/>
<stop offset="0.2022" stop-color="#EFD7B9"/>
<stop offset="0.4438" stop-color="#DBBA95"/>
<stop offset="0.691" stop-color="#C09362"/>
<stop offset="0.8539" stop-color="#EFDBC0"/>
<stop offset="1" stop-color="#B98C5A"/>
</linearGradient>
<linearGradient id="paint4_linear" x1="56.3341" y1="29.5444" x2="50.8348" y2="40.7413" gradientUnits="userSpaceOnUse">
<stop stop-color="#C99A6C"/>
<stop offset="0.2022" stop-color="#EFD7B9"/>
<stop offset="0.4438" stop-color="#DBBA95"/>
<stop offset="0.691" stop-color="#C09362"/>
<stop offset="0.8539" stop-color="#EFDBC0"/>
<stop offset="1" stop-color="#B98C5A"/>
</linearGradient>
<linearGradient id="paint5_linear" x1="48.1905" y1="21.7359" x2="41.6012" y2="30.966" gradientUnits="userSpaceOnUse">
<stop stop-color="#C99A6C"/>
<stop offset="0.2022" stop-color="#EFD7B9"/>
<stop offset="0.4438" stop-color="#DBBA95"/>
<stop offset="0.691" stop-color="#C09362"/>
<stop offset="0.8539" stop-color="#EFDBC0"/>
<stop offset="1" stop-color="#B98C5A"/>
</linearGradient>
<linearGradient id="paint6_linear" x1="50.5079" y1="37.367" x2="43.6597" y2="45.453" gradientUnits="userSpaceOnUse">
<stop stop-color="#C99A6C"/>
<stop offset="0.2022" stop-color="#EFD7B9"/>
<stop offset="0.4438" stop-color="#DBBA95"/>
<stop offset="0.691" stop-color="#C09362"/>
<stop offset="0.8539" stop-color="#EFDBC0"/>
<stop offset="1" stop-color="#B98C5A"/>
</linearGradient>
<clipPath id="clip0">
<rect width="64.2517" height="79.4892" fill="white" transform="translate(0.80957 0.510742)"/>
</clipPath>
</defs>
</svg>
