<svg width="16" height="16" viewBox="0 0 16 16" fill="none" xmlns="http://www.w3.org/2000/svg">
<path d="M8.00103 15.9953C6.50683 15.9953 5.01229 16.008 3.51842 15.9917C2.13754 15.9767 1.10063 15.3475 0.418024 14.1496C0.135715 13.6544 0.00272664 13.1109 0.00206003 12.5405C-0.000273096 9.51379 -0.000939705 6.48713 0.00172673 3.46046C0.00305995 2.06792 0.87965 0.784676 2.17454 0.260849C2.6015 0.0882391 3.04379 0.000268157 3.50409 0.000268157C6.51483 0.000601381 9.52556 -0.00106474 12.5363 0.00126783C13.9288 0.0022675 15.2184 0.88131 15.7384 2.17155C15.9137 2.60674 16.0003 3.05693 16 3.52577C15.999 6.51645 16 9.5068 15.999 12.4975C15.9987 13.9353 15.1211 15.2262 13.7839 15.7534C13.3779 15.9137 12.9546 15.9953 12.5166 15.9953C11.0118 15.995 9.50623 15.995 8.00103 15.9953ZM8.0087 1.06658C6.51183 1.06658 5.01462 1.06692 3.51775 1.06625C3.24911 1.06625 2.98813 1.10757 2.73316 1.19321C1.73758 1.52776 1.06863 2.44779 1.0683 3.49511C1.06697 6.49946 1.0683 9.50413 1.06763 12.5085C1.06763 12.786 1.1163 13.0556 1.20962 13.3155C1.55859 14.2862 2.47418 14.9283 3.50942 14.9287C6.50349 14.9297 9.49757 14.929 12.4916 14.9293C12.7946 14.9293 13.0859 14.873 13.3696 14.7671C14.2885 14.4238 14.9314 13.5105 14.9321 12.5255C14.9344 9.5098 14.9328 6.49446 14.9331 3.47879C14.9331 3.20421 14.8834 2.9373 14.7914 2.68005C14.4458 1.7147 13.5272 1.06825 12.5 1.06725C11.0028 1.06592 9.50556 1.06692 8.0087 1.06658Z" fill="white"/>
<path d="M8.00403 3.73237C10.3645 3.7357 12.27 5.64774 12.2667 8.00996C12.2633 10.3682 10.3448 12.2712 7.97137 12.2622C5.64024 12.2532 3.70707 10.3445 3.73407 7.94398C3.7604 5.62941 5.64757 3.73137 8.00403 3.73237ZM8.00103 11.1966C9.76588 11.1962 11.1988 9.76471 11.1998 8.00096C11.2004 6.22821 9.76788 4.79868 7.99103 4.79902C6.23785 4.79935 4.80164 6.23421 4.80064 7.9863C4.79931 9.76338 6.22885 11.1969 8.00103 11.1966Z" fill="white"/>
<path d="M13.3329 3.73837C13.3312 4.32751 12.8509 4.80035 12.2563 4.79868C11.6734 4.79702 11.1984 4.31518 11.1998 3.7267C11.2011 3.13857 11.6827 2.66406 12.2767 2.66605C12.8599 2.66805 13.3346 3.14989 13.3329 3.73837Z" fill="white"/>
</svg>
