<svg width="80" height="80" viewBox="0 0 80 80" fill="none" xmlns="http://www.w3.org/2000/svg">
<g clip-path="url(#clip0)">
<path d="M29.3164 66.6546C29.3164 66.8621 29.3164 67.0247 29.3164 67.1871C29.3164 70.0621 29.3139 72.9363 29.3189 75.8113C29.3197 76.263 29.2155 76.6638 28.8713 76.9763C28.3263 77.4705 27.5687 77.4347 27.002 76.873C25.986 75.8663 24.9776 74.8513 23.9667 73.8396C21.6689 71.5413 19.3679 69.2463 17.0793 66.9397C16.8634 66.7222 16.6476 66.6488 16.35 66.6488C12.3221 66.6572 8.29503 66.6555 4.26711 66.6538C1.68018 66.653 0 64.9655 0 62.3713C0 48.3313 0 34.2921 0 20.2521C0 17.7005 1.70018 16.008 4.26294 16.008C20.0963 16.008 35.9287 16.008 51.7621 16.008C54.2715 16.008 55.985 17.708 55.9858 20.208C55.9875 34.2896 55.9875 48.3713 55.985 62.4521C55.985 64.953 54.274 66.6538 51.7637 66.6538C44.4863 66.6555 37.2089 66.6546 29.9306 66.6546C29.7406 66.6546 29.5497 66.6546 29.3164 66.6546ZM26.5219 72.7746C26.5711 72.7421 26.6203 72.7097 26.6694 72.6772C26.6694 72.5263 26.6694 72.3763 26.6694 72.2255C26.6694 70.0313 26.6694 67.8371 26.6694 65.643C26.6694 64.4755 27.1403 64.0071 28.3146 64.0071C36.1338 64.0071 43.9529 64.0071 51.7721 64.0071C52.8172 64.0071 53.3381 63.4913 53.3381 62.4546C53.3389 48.3738 53.3389 34.2921 53.3389 20.2105C53.3389 19.1621 52.8288 18.6546 51.7779 18.6546C35.9312 18.6546 20.0846 18.6546 4.23711 18.6555C3.13949 18.6555 2.64778 19.153 2.64694 20.2638C2.64694 34.318 2.64611 48.3713 2.64611 62.4255C2.64611 63.4996 3.15116 64.008 4.22211 64.008C8.50005 64.0088 12.7772 64.0138 17.0551 64.0022C17.6243 64.0005 18.0602 64.1871 18.4594 64.5888C21.043 67.1896 23.6408 69.778 26.2302 72.3738C26.3461 72.4888 26.4253 72.6405 26.5219 72.7746Z" fill="#1A7F84"/>
<path d="M74.6553 29.4676C75.8296 29.7351 76.8572 30.2276 77.7314 31.0142C79.1799 32.3184 79.9658 33.9517 79.9783 35.8967C80.0067 40.4101 80.0092 44.9242 79.9808 49.4376C79.9583 53.0151 77.0097 55.9326 73.4327 55.9851C73.3493 55.9859 73.2651 55.9951 73.1826 55.9859C72.3242 55.8917 71.675 55.9951 71.2074 56.9434C70.719 57.9342 69.7156 58.5001 68.5905 58.5759C67.3345 58.6609 66.0552 58.7242 64.8101 58.5817C62.7174 58.3426 61.3464 56.6742 61.3422 54.5676C61.3347 50.8734 61.3397 47.1792 61.3397 43.4851C61.3397 39.3051 61.3397 35.1242 61.3406 30.9442C61.3414 28.3601 63.0299 26.6701 65.6193 26.6767C66.6044 26.6792 67.5971 26.6384 68.5722 26.7467C70.0065 26.9059 71.0032 27.7451 71.635 29.0301C71.6958 29.1534 71.7908 29.2601 71.87 29.3751C71.9092 29.3559 71.9492 29.3367 71.9883 29.3184C71.9883 28.4642 72.0267 27.6076 71.9817 26.7559C71.765 22.6084 70.6582 18.7092 68.4971 15.1576C64.4067 8.43339 58.4786 4.33505 50.7036 2.99672C49.3702 2.76755 48 2.70922 46.6432 2.66755C44.8672 2.61339 43.0878 2.63255 41.3102 2.65755C33.3193 2.77089 26.7861 5.94339 21.6606 12.0534C21.5806 12.1492 21.5056 12.2501 21.4247 12.3451C20.8922 12.9667 20.1296 13.0717 19.5412 12.6059C18.9403 12.1301 18.8411 11.3051 19.3804 10.6867C20.283 9.65172 21.1714 8.59422 22.1665 7.65172C26.4661 3.57755 31.5725 1.13505 37.4331 0.283387C38.3382 0.15172 39.2566 0.0467202 40.1692 0.0433869C43.0987 0.0333869 46.0415 -0.0907798 48.9551 0.132554C55.8075 0.65672 61.6814 3.44589 66.5294 8.31755C70.7591 12.5684 73.356 17.6867 74.2911 23.6092C74.5411 25.1926 74.5453 26.8151 74.652 28.4201C74.6745 28.7634 74.6553 29.1092 74.6553 29.4676ZM71.9875 53.3392C72.5151 53.3392 72.9726 53.3467 73.4302 53.3376C75.557 53.2976 77.3264 51.5451 77.3339 49.4126C77.3514 44.9142 77.3439 40.4159 77.3356 35.9176C77.3339 34.9359 76.9747 34.0776 76.328 33.3392C75.1662 32.0134 73.6444 31.8709 72.0342 32.0184C72.0175 32.0559 71.9975 32.0792 71.9975 32.1034C71.9933 32.8942 71.9908 33.6859 71.9875 34.4767C71.9833 35.3709 71.4525 35.9784 70.6715 35.9851C69.8931 35.9909 69.3422 35.3767 69.3406 34.4926C69.3381 33.2567 69.3431 32.0209 69.3389 30.7859C69.3364 29.8551 68.7955 29.3234 67.8562 29.3209C67.037 29.3184 66.2177 29.3159 65.3985 29.3217C64.5476 29.3284 63.9883 29.8809 63.9883 30.7317C63.9858 38.6867 63.9858 46.6426 63.9875 54.5976C63.9875 55.4426 64.5526 55.9984 65.4018 56.0051C66.1936 56.0109 66.9845 56.0076 67.7762 56.0067C68.8205 56.0059 69.3389 55.4909 69.3389 54.4526C69.3397 51.4817 69.3389 48.5101 69.3389 45.5392C69.3389 45.0117 69.3214 44.4834 69.3447 43.9567C69.3881 42.9859 70.3757 42.3884 71.2308 42.8126C71.7725 43.0817 71.9892 43.5467 71.9883 44.1409C71.9842 47.0284 71.9867 49.9167 71.9867 52.8042C71.9875 52.9684 71.9875 53.1317 71.9875 53.3392Z" fill="#1A7F84"/>
<path d="M45.3446 72.0073C46.608 72.0073 47.8715 72.0048 49.1358 72.0081C50.9185 72.0123 52.2078 72.8048 52.9945 74.4156C53.0512 74.5315 53.2254 74.6632 53.3437 74.6632C55.1206 74.6565 56.9049 74.7331 58.671 74.5865C62.7772 74.2448 66.1359 72.3898 68.7362 69.2106C70.8839 66.5856 71.9507 63.5431 72.0057 60.1498C72.0198 59.2631 72.5732 58.6598 73.355 58.6765C74.1351 58.6931 74.6635 59.3156 74.6501 60.2023C74.5268 68.3515 68.8295 75.2881 60.8287 76.9457C59.5619 77.2082 58.2417 77.2448 56.9424 77.3098C55.779 77.3682 54.6097 77.3298 53.4437 77.3157C53.1845 77.3123 53.0662 77.394 52.9512 77.6323C52.2194 79.1448 50.996 79.959 49.3183 79.979C46.6522 80.0107 43.9861 80.0023 41.32 79.9832C39.2881 79.9682 37.7063 78.5515 37.3762 76.5031C37.087 74.7056 38.238 72.8365 40.0423 72.2423C40.4824 72.0973 40.9641 72.029 41.4283 72.0181C42.7335 71.9881 44.0394 72.0073 45.3446 72.0073ZM45.3337 74.6548C44.0286 74.6548 42.7235 74.6523 41.4192 74.6556C40.5816 74.6581 39.9823 75.2248 39.9857 76.0015C39.989 76.7748 40.5899 77.339 41.4283 77.3398C44.0244 77.3423 46.6205 77.3423 49.2166 77.3398C50.0609 77.339 50.6651 76.7831 50.671 76.0131C50.6776 75.2223 50.0717 74.6565 49.2066 74.6548C47.9157 74.6515 46.6247 74.654 45.3337 74.6548Z" fill="#1A7F84"/>
<path d="M42.0902 31.4517C41.9369 31.8109 41.8502 32.1042 41.6969 32.3567C41.2568 33.08 40.7976 33.7917 40.3284 34.4959C40.1884 34.7059 40.1834 34.8634 40.2917 35.0967C40.5834 35.7242 40.8459 36.3659 41.0885 37.0142C41.1776 37.2525 41.2977 37.37 41.5444 37.4192C42.3328 37.5775 43.117 37.7575 43.9029 37.9275C44.8589 38.1342 45.2122 38.5692 45.2139 39.5534C45.2156 40.7475 45.2172 41.9417 45.2131 43.1367C45.2097 44.0517 44.8672 44.4817 43.9746 44.6884C43.1645 44.8759 42.3469 45.0367 41.5419 45.2425C41.3785 45.2842 41.191 45.445 41.1193 45.5992C40.8176 46.2525 40.5434 46.9192 40.2901 47.5934C40.2342 47.7417 40.2475 47.9717 40.3276 48.105C40.7643 48.83 41.2343 49.535 41.6869 50.25C42.1577 50.9942 42.0952 51.5609 41.4702 52.1909C40.5993 53.0675 39.725 53.9417 38.8482 54.8125C38.2315 55.4242 37.6706 55.4867 36.943 55.0267C36.2388 54.5825 35.5362 54.1359 34.8412 53.6767C34.6253 53.5342 34.4578 53.5067 34.2028 53.6284C33.5785 53.9259 32.9335 54.1825 32.2842 54.4225C32.0409 54.5125 31.9425 54.64 31.8925 54.8859C31.7192 55.7417 31.5275 56.5942 31.3283 57.4442C31.1633 58.1467 30.7257 58.525 30.0023 58.5367C28.6697 58.5575 27.3354 58.5575 26.0027 58.5384C25.261 58.5275 24.8226 58.1484 24.6526 57.4209C24.4542 56.57 24.2867 55.7125 24.0742 54.8659C24.0325 54.7009 23.8708 54.5117 23.7158 54.44C23.0624 54.1392 22.394 53.8684 21.7215 53.6134C21.5823 53.5609 21.3672 53.5642 21.2447 53.6375C20.508 54.0817 19.7904 54.5575 19.0628 55.0159C18.3236 55.4817 17.771 55.4267 17.156 54.8192C16.2667 53.9409 15.3816 53.0584 14.499 52.1734C13.894 51.5659 13.8315 50.9884 14.289 50.2659C14.7416 49.5509 15.1966 48.8367 15.6625 48.13C15.7883 47.9384 15.8075 47.7884 15.705 47.5667C15.41 46.9259 15.1691 46.2592 14.8741 45.6175C14.8024 45.4609 14.624 45.2884 14.4632 45.2475C13.6173 45.0317 12.7597 44.8617 11.9088 44.665C11.1679 44.4934 10.7836 44.0384 10.7753 43.2817C10.7611 41.9767 10.762 40.6709 10.7745 39.3659C10.782 38.6042 11.1553 38.1517 11.9004 37.9775C12.7372 37.7817 13.5781 37.6 14.4199 37.4275C14.6582 37.3784 14.7974 37.2917 14.8899 37.0425C15.1399 36.3684 15.4466 35.7142 15.7042 35.0425C15.7567 34.9042 15.7508 34.6884 15.6767 34.5659C15.2241 33.8184 14.7391 33.09 14.2732 32.35C13.8398 31.6625 13.8981 31.0792 14.464 30.5067C15.3725 29.5892 16.2859 28.6751 17.2051 27.7684C17.7452 27.2359 18.3344 27.1734 18.9812 27.5767C19.7229 28.0392 20.4597 28.5109 21.1897 28.9917C21.3856 29.1209 21.5398 29.1267 21.7573 29.0275C22.3999 28.7359 23.0649 28.4917 23.705 28.1959C23.8625 28.1234 24.0325 27.9409 24.0734 27.7784C24.2876 26.9317 24.4534 26.0734 24.6518 25.2234C24.8243 24.4851 25.2902 24.1059 26.0419 24.1001C27.3337 24.0901 28.6255 24.0917 29.9165 24.0992C30.6982 24.1042 31.1616 24.4751 31.3391 25.2351C31.5375 26.0859 31.7067 26.9434 31.9184 27.7901C31.9559 27.9409 32.115 28.1117 32.2609 28.1784C32.916 28.4776 33.5935 28.7267 34.2478 29.0275C34.4719 29.13 34.622 29.1059 34.8137 28.9801C35.5204 28.5142 36.2346 28.0601 36.9497 27.6067C37.6498 27.1634 38.2415 27.2242 38.8274 27.8059C39.7242 28.6959 40.6293 29.5792 41.4993 30.495C41.7502 30.7575 41.8944 31.1259 42.0902 31.4517ZM38.9574 50.88C38.5257 50.2067 38.0815 49.4875 37.6114 48.7859C37.2206 48.2025 37.2506 47.6642 37.5598 47.0334C38.0332 46.0675 38.4565 45.0692 38.7974 44.0492C39.0283 43.3584 39.4091 42.9692 40.11 42.8367C40.8184 42.7025 41.5177 42.525 42.2253 42.3867C42.4861 42.335 42.6028 42.2342 42.5845 41.95C42.5595 41.5625 42.5528 41.1709 42.5861 40.785C42.6161 40.4367 42.4928 40.2992 42.1519 40.2375C41.4293 40.1067 40.7168 39.9234 39.9967 39.7767C39.355 39.6459 39.0241 39.2542 38.8149 38.6384C38.4857 37.6717 38.1457 36.6925 37.6589 35.8C37.2289 35.0109 37.2131 34.3684 37.7365 33.6492C38.1898 33.0267 38.5765 32.3559 38.9449 31.7809C38.454 31.2759 38.0123 30.8217 37.5539 30.3501C36.8964 30.7709 36.2055 31.1842 35.5462 31.6434C34.8987 32.0942 34.3128 32.0667 33.6135 31.6975C32.7368 31.235 31.8092 30.8375 30.8624 30.5484C30.0732 30.3075 29.6256 29.9059 29.4873 29.09C29.3539 28.3042 29.1481 27.5301 28.9764 26.7617C28.2905 26.7617 27.6562 26.7617 27.0062 26.7617C26.8253 27.5934 26.637 28.4026 26.4769 29.2184C26.3386 29.9225 25.9286 30.2875 25.2427 30.5134C24.2609 30.8367 23.2891 31.225 22.3724 31.7C21.6706 32.0642 21.0864 32.0917 20.4388 31.6409C19.7712 31.1759 19.0712 30.7567 18.4403 30.3526C17.9502 30.8442 17.5027 31.2942 17.0343 31.765C17.4685 32.4434 17.9136 33.1634 18.3844 33.865C18.7778 34.4517 18.732 34.9925 18.4236 35.6184C17.9602 36.5584 17.5335 37.5275 17.211 38.5225C16.9718 39.26 16.5817 39.6809 15.825 39.8209C15.0241 39.9684 14.2323 40.165 13.4081 40.3467C13.4081 40.9175 13.4198 41.4575 13.4031 41.9967C13.3956 42.2467 13.4981 42.325 13.7281 42.3709C14.4624 42.5167 15.1899 42.6975 15.9233 42.845C16.6093 42.9834 16.9685 43.3859 17.1918 44.055C17.5235 45.0492 17.9169 46.0317 18.3928 46.9642C18.7436 47.6525 18.772 48.2275 18.3336 48.8617C17.8694 49.5334 17.446 50.2334 17.0318 50.88C17.5118 51.3609 17.9594 51.81 18.4361 52.2884C19.1145 51.8542 19.8338 51.41 20.5347 50.9392C21.1189 50.5475 21.6564 50.5825 22.2865 50.8925C23.2391 51.3617 24.2259 51.7784 25.2327 52.1142C25.9327 52.3475 26.3486 52.72 26.4828 53.4442C26.6161 54.1667 26.7961 54.88 26.9412 55.6C26.9878 55.8325 27.0887 55.9225 27.3312 55.9125C27.7612 55.8942 28.193 55.8884 28.6222 55.9142C28.9089 55.9309 29.0072 55.8075 29.0597 55.5534C29.2156 54.7925 29.3923 54.0367 29.5531 53.2775C29.6814 52.67 30.0632 52.3592 30.6432 52.1525C31.67 51.7859 32.6943 51.39 33.6685 50.905C34.3303 50.5759 34.8828 50.545 35.4921 50.9609C36.178 51.4292 36.8889 51.8609 37.5598 52.29C38.0348 51.81 38.4815 51.36 38.9574 50.88Z" fill="url(#paint0_linear)"/>
<path d="M27.9429 49.459C23.4091 49.3907 19.7846 45.7065 19.8512 41.234C19.9188 36.724 23.6308 33.1098 28.1196 33.1865C32.5817 33.2623 36.2046 36.9823 36.1279 41.4107C36.0504 45.8965 32.3601 49.5257 27.9429 49.459ZM22.4915 41.3198C22.4899 44.3323 24.9601 46.8123 27.9738 46.824C30.9782 46.8357 33.4818 44.3515 33.4885 41.3507C33.496 38.314 31.0157 35.8273 27.9838 35.829C24.9718 35.8307 22.494 38.3073 22.4915 41.3198Z" fill="url(#paint1_linear)"/>
</g>
<defs>
<linearGradient id="paint0_linear" x1="83.7595" y1="19.3186" x2="16.3239" y2="46.8436" gradientUnits="userSpaceOnUse">
<stop stop-color="#C99A6C"/>
<stop offset="0.2022" stop-color="#EFD7B9"/>
<stop offset="0.4438" stop-color="#DBBA95"/>
<stop offset="0.691" stop-color="#C09362"/>
<stop offset="0.8539" stop-color="#EFDBC0"/>
<stop offset="1" stop-color="#B98C5A"/>
</linearGradient>
<linearGradient id="paint1_linear" x1="54.342" y1="30.9304" x2="22.4817" y2="43.9413" gradientUnits="userSpaceOnUse">
<stop stop-color="#C99A6C"/>
<stop offset="0.2022" stop-color="#EFD7B9"/>
<stop offset="0.4438" stop-color="#DBBA95"/>
<stop offset="0.691" stop-color="#C09362"/>
<stop offset="0.8539" stop-color="#EFDBC0"/>
<stop offset="1" stop-color="#B98C5A"/>
</linearGradient>
<clipPath id="clip0">
<rect width="80" height="80" fill="white"/>
</clipPath>
</defs>
</svg>
