<svg width="9" height="17" viewBox="0 0 9 17" fill="none" xmlns="http://www.w3.org/2000/svg">
<path d="M2.24159 12.4154C2.24159 11.2418 2.24159 10.0682 2.24159 8.8946C2.24159 8.76424 2.24159 8.76424 2.10425 8.76424C1.78507 8.76424 1.46588 8.76525 1.1467 8.7639C0.663259 8.76188 0.263327 8.50521 0.0873432 8.06515C0.0352382 7.93479 0.0097033 7.78653 0.00728784 7.64603C-0.00271908 7.10871 4.14463e-05 6.57106 0.00142171 6.0334C0.00280198 5.42313 0.487965 4.9412 1.11357 4.9314C1.45277 4.926 1.79232 4.92769 2.13152 4.9314C2.21675 4.93242 2.24539 4.91013 2.2447 4.82265C2.2409 4.33025 2.23952 3.83751 2.24539 3.34511C2.25056 2.92667 2.31475 2.51532 2.45657 2.12018C2.74332 1.32045 3.28059 0.733482 4.0594 0.363336C4.62048 0.0965333 5.21779 -0.00613506 5.83856 0.000281708C6.32165 0.00534758 6.80475 0.000281708 7.28784 0.00365896C7.63084 0.00602303 7.92 0.130981 8.14498 0.387314C8.31993 0.586572 8.41172 0.820278 8.41241 1.08269C8.41379 1.62879 8.41034 2.17455 8.40551 2.72066C8.40102 3.23028 8.10565 3.6288 7.61117 3.78719C7.51455 3.81826 7.40827 3.83143 7.30647 3.83312C6.95865 3.83886 6.61047 3.83717 6.26265 3.83447C6.19225 3.8338 6.16741 3.8544 6.1681 3.92498C6.17121 4.22893 6.1719 4.53289 6.16775 4.83684C6.16672 4.9135 6.19536 4.93174 6.26817 4.9314C6.80578 4.92938 7.34374 4.92397 7.88135 4.93275C8.3289 4.93985 8.66741 5.14147 8.87756 5.53154C9.01524 5.78652 9.02939 6.05569 8.95692 6.33431C8.87411 6.65245 8.8051 6.9743 8.72332 7.29277C8.64947 7.58085 8.59909 7.88042 8.4797 8.14992C8.30233 8.55114 7.94795 8.74668 7.50558 8.76154C7.09771 8.77505 6.68915 8.76458 6.28059 8.76492C6.15706 8.76492 6.15671 8.76525 6.15671 8.88515C6.15671 11.2043 6.15637 13.5231 6.15706 15.8423C6.15706 16.0935 6.10288 16.3279 5.95002 16.5336C5.72918 16.8315 5.4269 16.9889 5.05388 16.9939C4.48452 17.002 3.91516 17.002 3.3458 16.9939C2.84408 16.9868 2.43379 16.6795 2.28887 16.2097C2.25608 16.104 2.2447 15.9882 2.24435 15.8771C2.24125 14.7231 2.24228 13.5694 2.24228 12.4154C2.24194 12.4154 2.24194 12.4154 2.24159 12.4154ZM5.04284 11.799C5.04284 10.4708 5.04284 9.14249 5.04284 7.81422C5.04284 7.67542 5.04284 7.67508 5.18363 7.67508C5.91689 7.67508 6.65016 7.6744 7.38308 7.67609C7.45106 7.67609 7.5004 7.66596 7.51593 7.59031C7.53698 7.48865 7.5632 7.38767 7.5877 7.28669C7.67673 6.9152 7.76472 6.54302 7.85616 6.17186C7.8924 6.02495 7.89136 6.01955 7.73746 6.01955C6.88066 6.01955 6.02386 6.01921 5.16706 6.02023C5.10392 6.02023 5.05561 6.01888 5.05595 5.93411C5.05802 5.09283 5.05423 4.25122 5.0594 3.40995C5.06113 3.14889 5.17845 2.94457 5.42724 2.82636C5.55733 2.76456 5.69639 2.75173 5.83856 2.75173C6.28439 2.7524 6.72987 2.75206 7.17569 2.75173C7.28784 2.75173 7.29233 2.74767 7.29302 2.63757C7.29647 2.16206 7.29957 1.68654 7.30233 1.21103C7.30302 1.09485 7.3013 1.0935 7.18225 1.09316C6.73953 1.09282 6.29646 1.09991 5.85409 1.09046C5.4614 1.08201 5.08045 1.12896 4.71399 1.26878C4.19639 1.46635 3.81061 1.80306 3.5801 2.30424C3.40274 2.68958 3.35305 3.09789 3.35132 3.51397C3.34822 4.30458 3.35029 5.09554 3.35029 5.88615C3.35029 6.01854 3.35029 6.01888 3.21192 6.01888C2.55077 6.01888 1.88928 6.01888 1.22813 6.01921C1.11944 6.01921 1.11322 6.02529 1.11357 6.12695C1.11495 6.6055 1.11702 7.08372 1.11909 7.56228C1.11944 7.67035 1.1253 7.67542 1.23779 7.67542C1.43345 7.67575 1.62875 7.67542 1.82441 7.67542C2.29611 7.67542 2.76747 7.67744 3.23918 7.67373C3.32751 7.67305 3.36133 7.70041 3.3496 7.78484C3.34615 7.80983 3.34891 7.8355 3.34891 7.86083C3.3496 10.5005 3.34994 13.1401 3.35063 15.7798C3.35063 15.9054 3.35098 15.9058 3.48072 15.9061C3.96106 15.9064 4.44104 15.9061 4.92138 15.9061C5.04353 15.9061 5.04387 15.9058 5.04387 15.7842C5.04284 14.4556 5.04284 13.1273 5.04284 11.799Z" fill="white"/>
</svg>
