<svg width="16" height="16" viewBox="0 0 16 16" fill="none" xmlns="http://www.w3.org/2000/svg">
<path d="M7.27092 8.72911C7.27092 8.83337 7.27092 8.90663 7.27092 8.97988C7.27092 11.0464 7.27058 13.1132 7.27126 15.1797C7.27126 15.6253 7.48047 15.9034 7.87267 15.9862C8.25192 16.0662 8.65638 15.7879 8.71397 15.4028C8.72828 15.3081 8.72896 15.2107 8.72896 15.1143C8.72965 13.0648 8.72964 11.015 8.72964 8.96557C8.72964 8.89777 8.72964 8.82996 8.72964 8.72911C8.81006 8.72911 8.88025 8.72911 8.95079 8.72911C11.029 8.72911 13.1068 8.72945 15.1851 8.72877C15.6219 8.72877 15.8986 8.52297 15.9841 8.13966C16.0706 7.75192 15.7929 7.34305 15.3997 7.28547C15.3104 7.27218 15.2188 7.27082 15.1281 7.27082C13.0786 7.27014 11.0286 7.27014 8.97907 7.27014C8.90581 7.27014 8.83255 7.27014 8.72964 7.27014C8.72964 7.18666 8.72964 7.11579 8.72964 7.04492C8.72964 4.96685 8.72999 2.88912 8.7293 0.811054C8.72896 0.37527 8.52145 0.0999659 8.13607 0.0151259C7.75648 -0.0683511 7.35065 0.203546 7.28727 0.587881C7.27262 0.67681 7.27126 0.768805 7.27126 0.859437C7.27058 2.91468 7.27058 4.96992 7.27058 7.02516C7.27058 7.09773 7.27058 7.17064 7.27058 7.27014C7.18369 7.27014 7.11247 7.27014 7.04092 7.27014C4.96851 7.27014 2.8961 7.2698 0.823689 7.27048C0.375269 7.27048 0.097563 7.4773 0.0137398 7.86776C-0.0673574 8.24699 0.207964 8.65279 0.591642 8.7131C0.680917 8.72707 0.772578 8.72843 0.863216 8.72843C2.91859 8.72911 4.97396 8.72911 7.02933 8.72911C7.10225 8.72911 7.17449 8.72911 7.27092 8.72911Z" fill="white"/>
</svg>
