<svg width="234" height="67" viewBox="0 0 234 67" fill="none" xmlns="http://www.w3.org/2000/svg">
<g clip-path="url(#clip0)">
<path d="M100.036 42.9799H98.7223V21.3789L88.9559 35.4647L79.1896 21.3789V42.9799H77.8755V17.2461L88.9559 33.2135L100.036 17.2461V42.9799Z" fill="#1A7F84"/>
<path d="M107.902 38.6243C108.291 39.3747 108.77 40.0336 109.349 40.5974C109.925 41.1611 110.565 41.6068 111.265 41.9305C111.966 42.2543 112.667 42.4181 113.368 42.4181C114.32 42.4181 115.147 42.2429 115.848 41.8925C116.549 41.542 117.139 41.1535 117.611 40.7269C118.164 40.2279 118.624 39.6642 119.002 39.0357L120.129 39.5994C119.68 40.3765 119.127 41.0659 118.476 41.6639C117.874 42.2162 117.162 42.6962 116.335 43.1113C115.509 43.5227 114.518 43.7322 113.368 43.7322C112.393 43.7322 111.444 43.5265 110.53 43.1113C109.616 42.6962 108.816 42.121 108.127 41.382C107.437 40.6431 106.889 39.7861 106.474 38.8109C106.058 37.8358 105.853 36.7807 105.853 35.6571C105.853 34.5296 106.058 33.4783 106.474 32.5032C106.885 31.5243 107.437 30.6672 108.127 29.9283C108.816 29.1893 109.616 28.6142 110.53 28.199C111.444 27.7876 112.389 27.5781 113.368 27.5781C114.294 27.5781 115.196 27.78 116.072 28.18C116.948 28.5799 117.733 29.1322 118.419 29.8331C119.108 30.5339 119.661 31.3681 120.072 32.3318C120.483 33.2955 120.693 34.343 120.693 35.4666L119.942 36.217H107.171C107.27 37.0702 107.514 37.8701 107.902 38.6243ZM111.189 29.3836C110.488 29.7112 109.856 30.1492 109.292 30.6977C108.729 31.2462 108.26 31.8861 107.883 32.6137C107.506 33.3412 107.27 34.103 107.171 34.9067H119.379C119.28 34.1068 119.055 33.3412 118.704 32.6137C118.354 31.8861 117.908 31.25 117.371 30.6977C116.834 30.1454 116.221 29.7074 115.532 29.3836C114.842 29.0598 114.122 28.896 113.372 28.896C112.618 28.896 111.89 29.056 111.189 29.3836Z" fill="#1A7F84"/>
<path d="M136.843 42.9805V40.3522H136.656C136.329 40.9769 135.906 41.5406 135.38 42.0434C134.904 42.4929 134.321 42.889 133.632 43.228C132.943 43.5671 132.074 43.7346 131.023 43.7346C130.097 43.7346 129.202 43.5328 128.338 43.1328C127.473 42.7329 126.711 42.1768 126.044 41.4607C125.382 40.7484 124.856 39.8951 124.468 38.9048C124.079 37.9145 123.885 36.8327 123.885 35.6557C123.885 34.4787 124.079 33.3969 124.468 32.4066C124.856 31.4163 125.382 30.5668 126.044 29.8507C126.707 29.1385 127.473 28.5785 128.338 28.1786C129.202 27.7786 130.097 27.5768 131.023 27.5768C132.074 27.5768 132.95 27.752 133.651 28.1024C134.352 28.4528 134.927 28.8413 135.38 29.268C135.906 29.7708 136.333 30.3307 136.656 30.9592H136.843V18.1875H138.157V42.9805H136.843ZM125.686 38.3601C126.01 39.1867 126.444 39.899 126.982 40.5008C127.519 41.1026 128.139 41.5711 128.84 41.9101C129.541 42.2491 130.269 42.4167 131.019 42.4167C131.819 42.4167 132.573 42.2682 133.274 41.9673C133.975 41.6663 134.588 41.274 135.114 40.7827C135.639 40.2951 136.058 39.7314 136.371 39.0914C136.683 38.4515 136.839 37.8078 136.839 37.1565V34.1511C136.839 33.4998 136.683 32.8561 136.371 32.2161C136.058 31.5762 135.639 31.0125 135.114 30.5249C134.588 30.0374 133.975 29.6412 133.274 29.3441C132.573 29.0432 131.823 28.8947 131.019 28.8947C130.269 28.8947 129.541 29.0623 128.84 29.4013C128.139 29.7403 127.519 30.2088 126.982 30.8106C126.444 31.4124 126.01 32.1247 125.686 32.9513C125.359 33.7779 125.199 34.6806 125.199 35.6557C125.199 36.6308 125.363 37.5336 125.686 38.3601Z" fill="#1A7F84"/>
<path d="M153.694 17.7384C152.079 18.4393 150.662 19.4029 149.451 20.6295C148.236 21.856 147.28 23.292 146.579 24.9298C145.878 26.5715 145.528 28.3275 145.528 30.2054C145.528 32.0832 145.878 33.843 146.579 35.4847C147.28 37.1225 148.24 38.5585 149.451 39.7851C150.666 41.0116 152.079 41.9752 153.694 42.6761C155.309 43.377 157.031 43.7274 158.859 43.7274C159.835 43.7274 160.749 43.636 161.602 43.4455C162.455 43.2551 163.225 43.0265 163.914 42.7485C164.603 42.4742 165.217 42.1657 165.754 41.8267C166.291 41.4877 166.862 41.0192 167.464 40.4174C168.542 39.4651 169.429 38.3757 170.13 37.1492L166.184 34.8943C165.681 35.7703 165.068 36.5474 164.344 37.2216C163.743 37.8234 162.985 38.3681 162.07 38.8557C161.156 39.3432 160.086 39.587 158.859 39.587C157.732 39.587 156.65 39.3432 155.61 38.8557C154.57 38.3681 153.649 37.7015 152.849 36.8635C152.049 36.0255 151.409 35.0276 150.933 33.8773C150.457 32.7231 150.221 31.4966 150.221 30.1939C150.221 28.8684 150.457 27.6343 150.933 26.4954C151.409 25.3565 152.045 24.3661 152.849 23.5281C153.649 22.6901 154.57 22.0274 155.61 21.536C156.65 21.0484 157.732 20.8047 158.859 20.8047C159.987 20.8047 160.97 21.0104 161.808 21.4255C162.646 21.8369 163.392 22.3207 164.044 22.873C164.722 23.4748 165.308 24.1642 165.811 24.9375L169.753 22.6825C169.052 21.555 168.176 20.5533 167.125 19.6772C166.222 18.9268 165.091 18.2374 163.724 17.6089C162.36 16.9842 160.737 16.6719 158.859 16.6719C157.031 16.6833 155.309 17.0375 153.694 17.7384Z" fill="url(#paint0_linear)"/>
<path d="M173.318 17.4375V42.9808H177.451V33.7744C177.451 33.4011 177.55 33.024 177.752 32.6469C177.954 32.2699 178.217 31.927 178.541 31.6147C178.868 31.3024 179.241 31.051 179.668 30.8643C180.095 30.6777 180.544 30.5825 181.02 30.5825C181.972 30.5825 182.742 30.8719 183.332 31.4471C183.919 32.0223 184.216 32.7384 184.216 33.5878V42.977H188.349V33.5878C188.349 32.6355 188.174 31.7518 187.823 30.9405C187.473 30.1254 187.008 29.4131 186.433 28.7998C185.858 28.1866 185.199 27.7028 184.46 27.3524C183.721 27.002 182.951 26.8268 182.148 26.8268C181.397 26.8268 180.75 26.941 180.213 27.1658C179.676 27.3905 179.23 27.6533 178.88 27.9542C178.453 28.278 178.102 28.6551 177.828 29.0817H177.451V17.4375H173.318Z" fill="url(#paint1_linear)"/>
<path d="M192.661 42.9808H196.793V27.5771H192.661V42.9808ZM193.019 18.1688C192.531 18.6564 192.287 19.2277 192.287 19.8791C192.287 20.5304 192.531 21.1018 193.019 21.5893C193.506 22.0769 194.078 22.3207 194.729 22.3207C195.38 22.3207 195.952 22.0769 196.439 21.5893C196.927 21.1018 197.171 20.5304 197.171 19.8791C197.171 19.2277 196.927 18.6602 196.439 18.1688C195.952 17.6813 195.38 17.4375 194.729 17.4375C194.078 17.4375 193.506 17.6813 193.019 18.1688Z" fill="url(#paint2_linear)"/>
<path d="M208.38 27.1652C207.843 27.3899 207.398 27.6527 207.047 27.9536C206.621 28.2774 206.27 28.6545 205.996 29.0811H205.619V27.5766H201.486V42.9764H205.619V33.7738C205.619 33.4006 205.718 33.0235 205.92 32.6464C206.118 32.2693 206.385 31.9265 206.708 31.6141C207.032 31.3018 207.409 31.0504 207.836 30.8637C208.262 30.6771 208.712 30.5819 209.188 30.5819C210.14 30.5819 210.91 30.8714 211.5 31.4465C212.09 32.0217 212.384 32.7378 212.384 33.5872V42.9764H216.517V33.5872C216.517 32.6349 216.341 31.7512 215.991 30.9399C215.64 30.1248 215.176 29.4125 214.601 28.7992C214.025 28.186 213.366 27.7022 212.627 27.3518C211.889 27.0014 211.119 26.8262 210.319 26.8262C209.565 26.8262 208.921 26.9404 208.38 27.1652Z" fill="url(#paint3_linear)"/>
<path d="M224.42 39.5064C224.032 39.1941 223.838 38.8475 223.838 38.4742C223.838 38.0971 224.02 37.7543 224.382 37.4419C224.744 37.1296 225.251 36.9734 225.902 36.9734C226.477 36.9734 226.999 36.981 227.46 36.9925C227.925 37.0039 228.344 37.0229 228.717 37.0496C229.144 37.0991 229.517 37.1372 229.844 37.1639C229.669 37.6895 229.433 38.1542 229.132 38.5542C228.858 38.9313 228.488 39.2626 228.024 39.5483C227.559 39.8378 226.98 39.9787 226.275 39.9787C225.426 39.9749 224.809 39.8188 224.42 39.5064ZM224.211 27.1652C223.533 27.3899 222.946 27.6527 222.443 27.9536C221.891 28.2774 221.415 28.6545 221.015 29.0811L223.457 31.8998C223.731 31.6484 224.032 31.4237 224.359 31.2256C224.634 31.077 224.965 30.9323 225.354 30.7914C225.742 30.6542 226.173 30.5857 226.649 30.5857C227.498 30.5857 228.245 30.9133 228.885 31.5646C229.524 32.2159 229.841 33.0158 229.841 33.9681C229.517 33.8157 229.14 33.6938 228.713 33.591C228.363 33.492 227.948 33.4044 227.475 33.3282C226.999 33.252 226.473 33.2139 225.898 33.2139C223.921 33.2139 222.36 33.7015 221.221 34.6804C220.082 35.6555 219.51 36.9201 219.51 38.4742C219.51 39.2246 219.648 39.9216 219.926 40.5577C220.2 41.1976 220.581 41.7538 221.072 42.2299C221.56 42.706 222.15 43.0755 222.84 43.3383C223.529 43.6011 224.298 43.7306 225.148 43.7306C225.898 43.7306 226.546 43.6164 227.083 43.3916C227.62 43.1669 228.077 42.9041 228.454 42.6032C228.854 42.2794 229.193 41.9023 229.467 41.4757H229.844V42.9764H233.977V33.9643C233.977 32.9892 233.791 32.0598 233.413 31.1837C233.036 30.3076 232.526 29.5496 231.875 28.9097C231.223 28.2698 230.446 27.7632 229.547 27.3899C228.645 27.0128 227.681 26.8262 226.656 26.8262C225.7 26.8262 224.889 26.9404 224.211 27.1652Z" fill="url(#paint4_linear)"/>
<path d="M82.6253 50.8727C82.9643 51.0327 83.2462 51.2079 83.4709 51.4021C83.7375 51.6269 83.9661 51.8859 84.1565 52.1716L83.5928 52.5296C83.4366 52.2973 83.25 52.0916 83.0405 51.9164C82.8424 51.7526 82.6139 51.6078 82.3548 51.4859C82.0958 51.364 81.7911 51.2993 81.4407 51.2993C81.0864 51.2993 80.7398 51.3793 80.4046 51.5355C80.0694 51.6916 79.7761 51.9049 79.5209 52.1716C79.2657 52.4382 79.06 52.7505 78.9039 53.1124C78.7515 53.4743 78.6753 53.859 78.6753 54.2703C78.6753 54.6817 78.7515 55.0664 78.9039 55.4283C79.0562 55.7901 79.2619 56.1063 79.5209 56.3729C79.7761 56.6396 80.0732 56.849 80.4046 57.009C80.7398 57.1652 81.0864 57.2452 81.4407 57.2452C81.8292 57.2452 82.1644 57.1766 82.4463 57.0471C82.7243 56.9138 82.9605 56.7653 83.1433 56.6015C83.3642 56.4186 83.5471 56.2053 83.6956 55.9654V54.9902H81.9016V54.3237H84.3622V56.1672C84.1718 56.4948 83.9356 56.7843 83.6537 57.0357C83.4976 57.1919 83.349 57.3176 83.2081 57.4052C83.0671 57.4928 82.911 57.5766 82.7319 57.6489C82.5567 57.7251 82.3587 57.7861 82.1415 57.8356C81.9282 57.8851 81.6921 57.908 81.4407 57.908C80.9836 57.908 80.5417 57.8127 80.1189 57.6223C79.6961 57.4318 79.3229 57.169 79.0067 56.8376C78.6906 56.5062 78.4354 56.1215 78.2449 55.6797C78.0545 55.2378 77.9592 54.7693 77.9592 54.2703C77.9592 53.7714 78.0545 53.3028 78.2449 52.861C78.4354 52.4191 78.6906 52.0344 79.0067 51.7031C79.3229 51.3717 79.6961 51.1088 80.1189 50.9184C80.5417 50.7279 80.9836 50.6289 81.4407 50.6289C81.894 50.6289 82.2901 50.7089 82.6253 50.8727Z" fill="#878787"/>
<path d="M91.9498 50.8359V51.5025H88.9293V53.8603H91.1309V54.5269H88.9293V57.037H92.0527V57.6998H88.2627V50.8359H91.9498Z" fill="#878787"/>
<path d="M98.5396 50.8059C98.7833 50.924 98.9852 51.0497 99.149 51.1944C99.3394 51.3582 99.5032 51.5448 99.6404 51.7581L99.0766 52.1162C98.9738 51.9676 98.8519 51.8305 98.7072 51.7048C98.5853 51.5944 98.4405 51.4991 98.2729 51.4191C98.1053 51.3353 97.9111 51.2972 97.694 51.2972C97.2559 51.2972 96.9169 51.4115 96.6731 51.6362C96.4294 51.861 96.3113 52.139 96.3113 52.478C96.3113 52.7447 96.3951 52.958 96.5665 53.1218C96.7379 53.2856 96.9474 53.4303 97.2026 53.556C97.454 53.6817 97.732 53.8036 98.0291 53.914C98.3262 54.0283 98.6005 54.1654 98.8557 54.3292C99.1071 54.493 99.3204 54.6949 99.4918 54.9349C99.6632 55.1748 99.747 55.4796 99.747 55.8567C99.747 56.1233 99.6899 56.3823 99.5718 56.6299C99.4575 56.8775 99.2937 57.0984 99.0919 57.285C98.8862 57.4717 98.6462 57.624 98.3643 57.7345C98.0825 57.8488 97.7777 57.9021 97.4426 57.9021C97.0312 57.9021 96.6807 57.8259 96.3913 57.6774C96.1018 57.5288 95.8618 57.3612 95.679 57.186C95.458 56.9765 95.279 56.7365 95.1343 56.4699L95.698 56.1119C95.8085 56.3252 95.9418 56.5118 96.1094 56.6756C96.2579 56.828 96.4408 56.9575 96.6579 57.0679C96.8712 57.1822 97.134 57.2355 97.4426 57.2355C97.6901 57.2355 97.9072 57.2012 98.1015 57.1289C98.2958 57.0565 98.4634 56.9575 98.5967 56.8318C98.7338 56.7061 98.8405 56.5575 98.9128 56.3899C98.989 56.2223 99.0233 56.0433 99.0233 55.8528C99.0233 55.571 98.9395 55.3424 98.7681 55.1672C98.5967 54.992 98.3872 54.8358 98.132 54.7063C97.8806 54.5768 97.6025 54.4549 97.3054 54.3368C97.0083 54.2188 96.7341 54.0855 96.4789 53.9255C96.2275 53.7693 96.0142 53.575 95.8428 53.3465C95.6714 53.118 95.5876 52.8247 95.5876 52.4704C95.5876 52.2381 95.6409 52.0133 95.7513 51.7924C95.8618 51.5753 96.0104 51.3772 96.197 51.202C96.3836 51.0268 96.6046 50.8897 96.8636 50.783C97.1188 50.6764 97.393 50.623 97.6901 50.623C98.0139 50.6307 98.2958 50.6916 98.5396 50.8059Z" fill="#878787"/>
<path d="M105.331 57.6998H104.664V51.5025H102.718V50.8359H107.277V51.5025H105.331V57.6998Z" fill="#878787"/>
<path d="M114.507 57.6981L114.046 56.4183H110.82L110.359 57.6981H109.643L112.408 50.4229H112.458L115.223 57.6981H114.507ZM113.791 55.7555L112.458 52.1179H112.408L111.075 55.7555H113.791ZM112.671 49.4325C112.591 49.3868 112.515 49.3335 112.45 49.2726C112.385 49.2154 112.321 49.1621 112.256 49.1126C112.191 49.0669 112.122 49.0402 112.046 49.0402C111.993 49.0402 111.936 49.0783 111.875 49.1545C111.818 49.2307 111.787 49.3449 111.787 49.5011L111.326 49.3983C111.326 49.1088 111.399 48.884 111.54 48.7202C111.684 48.5565 111.833 48.4727 111.989 48.4727C112.103 48.4727 112.206 48.4955 112.286 48.545C112.366 48.5907 112.442 48.6441 112.507 48.705C112.572 48.7621 112.637 48.8155 112.701 48.865C112.766 48.9145 112.835 48.9374 112.911 48.9374C112.964 48.9374 113.021 48.8993 113.079 48.8231C113.136 48.7469 113.166 48.6326 113.166 48.4765L113.627 48.5793C113.627 48.865 113.555 49.0935 113.41 49.2573C113.265 49.4211 113.117 49.5011 112.96 49.5011C112.854 49.5049 112.755 49.4782 112.671 49.4325Z" fill="#878787"/>
<path d="M118.282 52.861C118.472 52.4191 118.727 52.0344 119.044 51.7031C119.36 51.3717 119.733 51.1088 120.156 50.9184C120.579 50.7279 121.02 50.6289 121.478 50.6289C121.942 50.6289 122.384 50.7241 122.803 50.9184C123.222 51.1088 123.592 51.3717 123.908 51.7031C124.224 52.0344 124.479 52.4191 124.673 52.861C124.864 53.3028 124.959 53.7714 124.959 54.2703C124.959 54.7693 124.864 55.2378 124.673 55.6797C124.479 56.1215 124.228 56.5062 123.908 56.8376C123.592 57.169 123.222 57.4318 122.803 57.6223C122.384 57.8127 121.942 57.908 121.478 57.908C121.02 57.908 120.579 57.8127 120.156 57.6223C119.733 57.4318 119.364 57.169 119.044 56.8376C118.727 56.5062 118.472 56.1215 118.282 55.6797C118.091 55.2378 117.996 54.7693 117.996 54.2703C117.996 53.7675 118.091 53.299 118.282 52.861ZM124.014 53.1086C123.862 52.7467 123.656 52.4344 123.401 52.1678C123.146 51.9011 122.849 51.6878 122.517 51.5316C122.186 51.3755 121.839 51.2955 121.478 51.2955C121.123 51.2955 120.777 51.3755 120.441 51.5316C120.106 51.6878 119.813 51.9011 119.554 52.1678C119.299 52.4344 119.093 52.7467 118.941 53.1086C118.788 53.4704 118.712 53.8552 118.712 54.2665C118.712 54.6779 118.788 55.0626 118.941 55.4245C119.093 55.7863 119.299 56.1025 119.554 56.3691C119.809 56.6357 120.106 56.8452 120.441 57.0052C120.777 57.1614 121.12 57.2414 121.478 57.2414C121.839 57.2414 122.186 57.1652 122.517 57.0052C122.849 56.8491 123.142 56.6357 123.401 56.3691C123.656 56.1025 123.862 55.7863 124.014 55.4245C124.167 55.0626 124.247 54.6779 124.247 54.2665C124.247 53.859 124.171 53.4704 124.014 53.1086Z" fill="#878787"/>
<path d="M136.836 55.5807C136.885 55.4589 136.923 55.3179 136.957 55.1541C136.992 54.9942 137.007 54.8189 137.007 54.6285H137.62C137.62 54.8761 137.594 55.1046 137.533 55.3217C137.475 55.5388 137.411 55.7255 137.342 55.8893C137.255 56.0797 137.156 56.2588 137.056 56.4225L138.233 57.7024H137.415L136.649 56.8834C136.5 57.0739 136.325 57.2453 136.127 57.3938C135.944 57.531 135.727 57.649 135.476 57.7519C135.228 57.8547 134.935 57.9043 134.6 57.9043C134.264 57.9043 133.96 57.8509 133.682 57.7443C133.404 57.6376 133.167 57.4929 132.969 57.31C132.771 57.1272 132.619 56.9101 132.509 56.6701C132.398 56.4302 132.345 56.175 132.345 55.9083C132.345 55.5884 132.425 55.3027 132.588 55.0589C132.752 54.8151 132.935 54.6056 133.141 54.4342C133.373 54.2285 133.636 54.0571 133.929 53.9124C133.777 53.7676 133.64 53.6115 133.518 53.4401C133.407 53.2839 133.312 53.1049 133.232 52.9106C133.148 52.7164 133.11 52.503 133.11 52.2707C133.11 52.0383 133.152 51.825 133.24 51.627C133.324 51.4289 133.438 51.2575 133.583 51.1089C133.727 50.9604 133.895 50.8461 134.085 50.7623C134.276 50.6785 134.482 50.6328 134.699 50.6328C134.916 50.6328 135.121 50.6747 135.312 50.7547C135.502 50.8347 135.67 50.949 135.815 51.0937C135.959 51.2385 136.074 51.4022 136.158 51.5851C136.241 51.7679 136.287 51.9622 136.287 52.1679C136.287 52.4535 136.211 52.7125 136.059 52.9373C135.906 53.162 135.735 53.3525 135.552 53.5124C135.335 53.7029 135.083 53.8705 134.802 54.0152L136.645 55.9616C136.721 55.8436 136.782 55.7179 136.836 55.5807ZM133.659 54.7504C133.484 54.8951 133.327 55.0627 133.202 55.2532C133.076 55.4436 133.011 55.6645 133.011 55.9083C133.011 56.3197 133.148 56.6511 133.423 56.9063C133.693 57.1615 134.089 57.291 134.6 57.291C134.859 57.291 135.087 57.2453 135.289 57.1577C135.491 57.0701 135.662 56.9672 135.807 56.8491C135.971 56.7273 136.112 56.5825 136.238 56.4187L134.291 54.3161C134.055 54.4418 133.845 54.5866 133.659 54.7504ZM135.045 53.2344C135.201 53.1049 135.339 52.9525 135.457 52.7773C135.571 52.6059 135.632 52.4002 135.632 52.1679C135.632 51.9088 135.544 51.6879 135.365 51.5127C135.19 51.3337 134.969 51.2461 134.71 51.2461C134.451 51.2461 134.23 51.3413 134.051 51.5279C133.876 51.7146 133.785 51.9622 133.785 52.2707C133.785 52.4459 133.819 52.6173 133.887 52.7773C133.956 52.9373 134.036 53.082 134.124 53.2039C134.219 53.3486 134.329 53.482 134.451 53.6039C134.668 53.501 134.866 53.3753 135.045 53.2344Z" fill="#878787"/>
<path d="M149.939 54.1004C149.809 54.386 149.626 54.6336 149.39 54.8469C149.154 55.0641 148.868 55.2317 148.533 55.3612C148.198 55.4869 147.825 55.5516 147.417 55.5516H146.495V57.7037H145.829V50.8398H147.417C147.828 50.8398 148.198 50.9046 148.533 51.0303C148.868 51.156 149.154 51.3274 149.39 51.5445C149.626 51.7616 149.809 52.0092 149.939 52.2911C150.068 52.573 150.133 52.8777 150.133 53.1976C150.133 53.5138 150.072 53.8185 149.939 54.1004ZM148.247 54.7517C148.495 54.6641 148.704 54.5422 148.88 54.386C149.051 54.2337 149.188 54.0547 149.28 53.849C149.371 53.6433 149.417 53.4262 149.417 53.1938C149.417 52.9615 149.371 52.7444 149.28 52.5387C149.188 52.333 149.055 52.154 148.88 52.0016C148.704 51.8492 148.495 51.7273 148.247 51.6397C148.004 51.5483 147.726 51.5064 147.417 51.5064H146.495V54.8888H147.417C147.726 54.885 148.004 54.8393 148.247 54.7517Z" fill="#878787"/>
<path d="M157.926 57.6998L156.338 54.9344H154.597V57.6998H153.93V50.8359H155.98C156.349 50.8359 156.681 50.8893 156.978 50.9997C157.275 51.1102 157.526 51.2549 157.736 51.4416C157.945 51.6282 158.105 51.8415 158.219 52.0929C158.33 52.3405 158.387 52.6071 158.387 52.889C158.387 53.2623 158.315 53.5708 158.17 53.807C158.025 54.0431 157.869 54.2298 157.698 54.3631C157.492 54.5269 157.26 54.6526 157 54.7326V54.7821L158.745 57.7036H157.926V57.6998ZM156.696 54.1612C156.909 54.0888 157.084 53.9898 157.229 53.8641C157.374 53.7384 157.48 53.5899 157.557 53.4223C157.633 53.2547 157.671 53.0756 157.671 52.8852C157.671 52.6947 157.633 52.5157 157.557 52.3481C157.48 52.1805 157.374 52.0358 157.229 51.9063C157.084 51.7806 156.909 51.6815 156.696 51.6092C156.486 51.5368 156.246 51.5025 155.98 51.5025H154.597V54.2679H155.98C156.246 54.2679 156.486 54.2336 156.696 54.1612Z" fill="#878787"/>
<path d="M162.112 52.861C162.303 52.4191 162.558 52.0344 162.878 51.7031C163.194 51.3717 163.564 51.1088 163.99 50.9184C164.413 50.7279 164.855 50.6289 165.312 50.6289C165.777 50.6289 166.218 50.7241 166.637 50.9184C167.056 51.1088 167.426 51.3717 167.742 51.7031C168.058 52.0344 168.313 52.4191 168.508 52.861C168.698 53.3028 168.793 53.7714 168.793 54.2703C168.793 54.7693 168.698 55.2378 168.508 55.6797C168.313 56.1215 168.062 56.5062 167.742 56.8376C167.426 57.169 167.056 57.4318 166.637 57.6223C166.218 57.8127 165.777 57.908 165.312 57.908C164.855 57.908 164.413 57.8127 163.99 57.6223C163.567 57.4318 163.198 57.169 162.878 56.8376C162.562 56.5062 162.303 56.1215 162.112 55.6797C161.922 55.2378 161.827 54.7693 161.827 54.2703C161.827 53.7675 161.922 53.299 162.112 52.861ZM167.845 53.1086C167.693 52.7467 167.487 52.4344 167.228 52.1678C166.973 51.9011 166.679 51.6878 166.348 51.5316C166.017 51.3755 165.67 51.2955 165.308 51.2955C164.954 51.2955 164.607 51.3755 164.272 51.5316C163.937 51.6878 163.644 51.9011 163.388 52.1678C163.133 52.4344 162.927 52.7467 162.775 53.1086C162.623 53.4704 162.543 53.8552 162.543 54.2665C162.543 54.6779 162.619 55.0626 162.775 55.4245C162.927 55.7863 163.133 56.1025 163.388 56.3691C163.644 56.6357 163.941 56.8452 164.272 57.0052C164.607 57.1614 164.954 57.2414 165.308 57.2414C165.67 57.2414 166.017 57.1652 166.348 57.0052C166.679 56.8491 166.973 56.6357 167.228 56.3691C167.483 56.1025 167.689 55.7863 167.845 55.4245C167.997 55.0626 168.073 54.6779 168.073 54.2665C168.073 53.859 167.997 53.4704 167.845 53.1086Z" fill="#878787"/>
<path d="M173.307 52.5258H173.257V57.6985H172.591V50.6289H172.743L176.636 56.0111H176.689V50.8346H177.352V57.9042H177.2L173.307 52.5258Z" fill="#878787"/>
<path d="M183.557 57.6998H182.894V51.5025H180.948V50.8359H185.507V51.5025H183.557V57.6998Z" fill="#878787"/>
<path d="M193.708 50.8359V55.4487C193.708 55.8181 193.651 56.1533 193.533 56.4581C193.415 56.7628 193.255 57.0218 193.053 57.2389C192.847 57.456 192.607 57.6198 192.325 57.7379C192.047 57.8522 191.739 57.9131 191.404 57.9131C191.068 57.9131 190.764 57.856 190.482 57.7379C190.2 57.6198 189.96 57.456 189.754 57.2389C189.549 57.0218 189.389 56.7628 189.274 56.4581C189.156 56.1533 189.099 55.8181 189.099 55.4487V50.8359H189.766V55.4487C189.766 56.0162 189.914 56.4581 190.215 56.7704C190.516 57.0865 190.912 57.2427 191.404 57.2427C191.895 57.2427 192.291 57.0865 192.592 56.7704C192.893 56.4542 193.041 56.0162 193.041 55.4487V50.8359H193.708Z" fill="#878787"/>
<path d="M202.168 57.6996L201.707 56.4198H198.481L198.02 57.6996H197.304L200.069 50.4244H200.119L202.888 57.6996H202.168ZM201.448 55.7532L200.115 52.1156H200.065L198.736 55.7532H201.448ZM199.441 49.1978L200.774 48.3789L201.082 48.9426L199.646 49.6092L199.441 49.1978Z" fill="#878787"/>
<path d="M210.472 57.6998L208.883 54.9344H207.143V57.6998H206.476V50.8359H208.525C208.895 50.8359 209.226 50.8893 209.523 50.9997C209.82 51.1102 210.072 51.2549 210.281 51.4416C210.491 51.6282 210.651 51.8415 210.761 52.0929C210.876 52.3405 210.933 52.6071 210.933 52.889C210.933 53.2623 210.86 53.5708 210.719 53.807C210.575 54.0431 210.418 54.2298 210.247 54.3631C210.041 54.5269 209.809 54.6526 209.55 54.7326V54.7821L211.291 57.7036H210.472V57.6998ZM209.241 54.1612C209.455 54.0888 209.63 53.9898 209.775 53.8641C209.919 53.7384 210.026 53.5899 210.102 53.4223C210.178 53.2547 210.217 53.0756 210.217 52.8852C210.217 52.6947 210.178 52.5157 210.102 52.3481C210.026 52.1805 209.919 52.0358 209.775 51.9063C209.63 51.7806 209.455 51.6815 209.241 51.6092C209.028 51.5368 208.792 51.5025 208.525 51.5025H207.143V54.2679H208.525C208.792 54.2679 209.028 54.2336 209.241 54.1612Z" fill="#878787"/>
<path d="M215.549 50.8359H214.883V57.6998H215.549V50.8359Z" fill="#878787"/>
<path d="M219.628 52.861C219.819 52.4191 220.074 52.0344 220.394 51.7031C220.71 51.3717 221.08 51.1088 221.506 50.9184C221.929 50.7279 222.371 50.6289 222.828 50.6289C223.293 50.6289 223.735 50.7241 224.154 50.9184C224.573 51.1088 224.942 51.3717 225.258 51.7031C225.574 52.0344 225.83 52.4191 226.024 52.861C226.214 53.3028 226.309 53.7714 226.309 54.2703C226.309 54.7693 226.214 55.2378 226.024 55.6797C225.83 56.1215 225.578 56.5062 225.258 56.8376C224.942 57.169 224.573 57.4318 224.154 57.6223C223.735 57.8127 223.293 57.908 222.828 57.908C222.371 57.908 221.929 57.8127 221.506 57.6223C221.084 57.4318 220.71 57.169 220.394 56.8376C220.078 56.5062 219.819 56.1215 219.628 55.6797C219.438 55.2378 219.343 54.7693 219.343 54.2703C219.343 53.7675 219.438 53.299 219.628 52.861ZM225.361 53.1086C225.209 52.7467 225.003 52.4344 224.744 52.1678C224.489 51.9011 224.195 51.6878 223.864 51.5316C223.533 51.3755 223.186 51.2955 222.824 51.2955C222.47 51.2955 222.123 51.3755 221.788 51.5316C221.453 51.6878 221.16 51.9011 220.904 52.1678C220.649 52.4344 220.444 52.7467 220.291 53.1086C220.139 53.4704 220.059 53.8552 220.059 54.2665C220.059 54.6779 220.135 55.0626 220.291 55.4245C220.444 55.7863 220.649 56.1025 220.904 56.3691C221.16 56.6357 221.457 56.8452 221.788 57.0052C222.123 57.1614 222.47 57.2414 222.824 57.2414C223.186 57.2414 223.533 57.1652 223.864 57.0052C224.195 56.8491 224.489 56.6357 224.744 56.3691C224.999 56.1025 225.205 55.7863 225.361 55.4245C225.513 55.0626 225.59 54.6779 225.59 54.2665C225.593 53.859 225.513 53.4704 225.361 53.1086Z" fill="#878787"/>
<path d="M232.796 50.8059C233.04 50.924 233.242 51.0497 233.406 51.1944C233.596 51.3582 233.76 51.5448 233.897 51.7581L233.333 52.1162C233.231 51.9676 233.109 51.8305 232.964 51.7048C232.842 51.5944 232.697 51.4991 232.53 51.4191C232.362 51.3353 232.168 51.2972 231.951 51.2972C231.513 51.2972 231.174 51.4115 230.93 51.6362C230.686 51.861 230.568 52.139 230.568 52.478C230.568 52.7447 230.652 52.958 230.823 53.1218C230.995 53.2856 231.204 53.4303 231.459 53.556C231.711 53.6817 231.989 53.8036 232.282 53.914C232.579 54.0283 232.853 54.1654 233.105 54.3292C233.356 54.493 233.57 54.6949 233.741 54.9349C233.912 55.1748 233.996 55.4796 233.996 55.8567C233.996 56.1233 233.939 56.3823 233.821 56.6299C233.703 56.8775 233.547 57.0984 233.341 57.285C233.135 57.4717 232.895 57.624 232.613 57.7345C232.332 57.8488 232.027 57.9021 231.692 57.9021C231.28 57.9021 230.934 57.8259 230.64 57.6774C230.347 57.5288 230.111 57.3612 229.928 57.186C229.711 56.9765 229.528 56.7365 229.387 56.4699L229.951 56.1119C230.061 56.3252 230.199 56.5118 230.362 56.6756C230.511 56.828 230.698 56.9575 230.911 57.0679C231.128 57.1822 231.387 57.2355 231.696 57.2355C231.939 57.2355 232.164 57.2012 232.354 57.1289C232.549 57.0565 232.716 56.9575 232.853 56.8318C232.991 56.7061 233.097 56.5575 233.173 56.3899C233.246 56.2223 233.288 56.0433 233.288 55.8528C233.288 55.571 233.204 55.3424 233.032 55.1672C232.861 54.992 232.648 54.8358 232.396 54.7063C232.141 54.5768 231.867 54.4549 231.57 54.3368C231.273 54.2188 230.998 54.0855 230.743 53.9255C230.492 53.7693 230.279 53.575 230.107 53.3465C229.936 53.118 229.852 52.8247 229.852 52.4704C229.852 52.2381 229.905 52.0133 230.016 51.7924C230.126 51.5753 230.275 51.3772 230.461 51.202C230.648 51.0268 230.873 50.8897 231.128 50.783C231.383 50.6764 231.657 50.623 231.951 50.623C232.271 50.6307 232.553 50.6916 232.796 50.8059Z" fill="#878787"/>
<path d="M10.9966 24.119C9.43867 24.119 8.17407 25.3836 8.17407 26.9415V39.1914C8.17407 40.7454 9.43867 42.0139 10.9966 42.0139H38.4939V40.0484H10.9966C10.5242 40.0484 10.1395 39.6637 10.1395 39.1914V26.9377C10.1395 26.4654 10.5242 26.0807 10.9966 26.0807H55.0975C55.5698 26.0807 55.9583 26.4654 55.9583 26.9377V39.1876C55.9583 39.6599 55.5698 40.0446 55.0975 40.0446H43.5295V42.01H55.0975C56.6554 42.01 57.92 40.7454 57.92 39.1876V26.9377C57.92 25.3836 56.6554 24.1152 55.0975 24.1152H10.9966V24.119Z" fill="url(#paint5_linear)"/>
<path d="M39.1682 8.18945H26.9222C25.3681 8.18945 24.1035 9.45405 24.1035 11.0119V22.5876H26.069V11.0119C26.069 10.5396 26.4537 10.1549 26.9222 10.1549H39.172C39.6443 10.1549 40.0291 10.5396 40.0291 11.0119V55.1129C40.0291 55.5852 39.6443 55.9699 39.172 55.9699H26.9222C26.4499 55.9699 26.069 55.5852 26.069 55.1129V27.6498H24.1035V55.1129C24.1035 56.667 25.3681 57.9354 26.9222 57.9354H39.172C40.7299 57.9354 41.9945 56.6708 41.9945 55.1129V11.0119C41.9907 9.45786 40.7261 8.18945 39.1682 8.18945Z" fill="#1A7F84"/>
<path d="M46.2188 3.20987C47.3844 4.25354 48.3824 5.42291 49.1899 6.62275C49.308 6.79416 49.4527 6.9389 49.6279 7.05317C58.2058 12.5458 63.9118 22.1445 63.9118 33.0612C63.9118 50.0838 50.0698 63.9296 33.051 63.9448C24.8426 63.9372 18.1653 57.26 18.1653 49.0477C18.1653 47.1165 18.5462 45.2768 19.2204 43.5817H16.8741C16.2875 45.3034 15.9485 47.1356 15.9485 49.0477C15.9485 53.3481 17.7197 57.1381 20.1917 60.2767C21.1097 61.4385 23.3913 63.3354 26.4881 64.5847C29.1201 65.6474 32.7273 66.4664 37.0543 65.8722C53.3912 63.8763 66.0905 49.9276 66.0905 33.0612C66.0905 19.9086 58.3696 8.53489 47.2244 3.21368C46.5578 2.89372 45.8836 2.60042 45.1904 2.32617C45.5827 2.63851 45.8951 2.92038 46.2188 3.20987Z" fill="url(#paint6_linear)"/>
<path d="M50.142 17.0759C50.142 13.3011 48.9041 9.81967 46.8168 6.99337C46.7939 6.95909 46.7672 6.92481 46.7406 6.89434C46.4092 6.4563 46.0626 6.02969 45.6969 5.62593C45.6779 5.60689 45.6626 5.58784 45.6436 5.5688C45.2551 5.146 44.8475 4.74224 44.4209 4.35753L44.4285 4.36134C41.945 2.12925 38.2731 0.163788 33.0052 0C14.8019 0.0304722 0 14.8514 0 33.0624C0 45.8607 7.30952 56.9792 17.971 62.4719C18.6414 62.8185 20.3059 63.5879 19.167 62.609C17.9786 61.5805 16.9159 60.2893 16.0474 58.9942C15.9065 58.7847 15.7313 58.6095 15.5256 58.4648C7.47331 52.8845 2.17876 43.5829 2.17876 33.0624C2.17876 16.0398 16.0208 2.194 33.0395 2.17876C41.248 2.18638 47.9252 8.86361 47.9252 17.0759C47.9252 18.9728 47.5519 20.7782 46.9006 22.4504C46.8891 22.4809 46.8777 22.5075 46.8663 22.538H49.2126C49.7992 20.8201 50.142 18.988 50.142 17.0759Z" fill="#1A7F84"/>
</g>
<defs>
<linearGradient id="paint0_linear" x1="197.656" y1="12.9233" x2="148.28" y2="31.2542" gradientUnits="userSpaceOnUse">
<stop stop-color="#C99A6C"/>
<stop offset="0.2022" stop-color="#EFD7B9"/>
<stop offset="0.4438" stop-color="#DBBA95"/>
<stop offset="0.691" stop-color="#C09362"/>
<stop offset="0.8539" stop-color="#EFDBC0"/>
<stop offset="1" stop-color="#B98C5A"/>
</linearGradient>
<linearGradient id="paint1_linear" x1="287.5" y1="-21.5" x2="171.121" y2="-9.40074" gradientUnits="userSpaceOnUse">
<stop stop-color="#C99A6C"/>
<stop offset="0.2022" stop-color="#EFD7B9"/>
<stop offset="0.4438" stop-color="#DBBA95"/>
<stop offset="0.691" stop-color="#C09362"/>
<stop offset="0.8539" stop-color="#EFDBC0"/>
<stop offset="1" stop-color="#B98C5A"/>
</linearGradient>
<linearGradient id="paint2_linear" x1="197" y1="19" x2="177.1" y2="13.9708" gradientUnits="userSpaceOnUse">
<stop stop-color="#C99A6C"/>
<stop offset="0.2022" stop-color="#EFD7B9"/>
<stop offset="0.4438" stop-color="#DBBA95"/>
<stop offset="0.691" stop-color="#C09362"/>
<stop offset="0.8539" stop-color="#EFDBC0"/>
<stop offset="1" stop-color="#B98C5A"/>
</linearGradient>
<linearGradient id="paint3_linear" x1="233.333" y1="24.5885" x2="203.34" y2="35.9846" gradientUnits="userSpaceOnUse">
<stop stop-color="#C99A6C"/>
<stop offset="0.2022" stop-color="#EFD7B9"/>
<stop offset="0.4438" stop-color="#DBBA95"/>
<stop offset="0.691" stop-color="#C09362"/>
<stop offset="0.8539" stop-color="#EFDBC0"/>
<stop offset="1" stop-color="#B98C5A"/>
</linearGradient>
<linearGradient id="paint4_linear" x1="285" y1="-6" x2="218.138" y2="31.1752" gradientUnits="userSpaceOnUse">
<stop stop-color="#C99A6C"/>
<stop offset="0.2022" stop-color="#EFD7B9"/>
<stop offset="0.717462" stop-color="#DBBA95"/>
<stop offset="1" stop-color="#B98C5A"/>
</linearGradient>
<linearGradient id="paint5_linear" x1="113.576" y1="21.6353" x2="63.9174" y2="77.9836" gradientUnits="userSpaceOnUse">
<stop stop-color="#C99A6C"/>
<stop offset="0.2022" stop-color="#EFD7B9"/>
<stop offset="0.4438" stop-color="#DBBA95"/>
<stop offset="0.691" stop-color="#C09362"/>
<stop offset="0.8539" stop-color="#EFDBC0"/>
<stop offset="1" stop-color="#B98C5A"/>
</linearGradient>
<linearGradient id="paint6_linear" x1="122.19" y1="-6.50601" x2="18.3924" y2="26.8277" gradientUnits="userSpaceOnUse">
<stop stop-color="#C99A6C"/>
<stop offset="0.2022" stop-color="#EFD7B9"/>
<stop offset="0.4438" stop-color="#DBBA95"/>
<stop offset="0.691" stop-color="#C09362"/>
<stop offset="0.8539" stop-color="#EFDBC0"/>
<stop offset="1" stop-color="#B98C5A"/>
</linearGradient>
<clipPath id="clip0">
<rect width="234" height="66.0752" fill="white"/>
</clipPath>
</defs>
</svg>
