<svg width="362" height="103" viewBox="0 0 362 103" fill="none" xmlns="http://www.w3.org/2000/svg">
<g clip-path="url(#clip0)">
<path d="M154.805 66.3706H152.776V33.0145L137.695 54.7657L122.614 33.0145V66.3706H120.584V26.6327L137.695 51.2895L154.805 26.6327V66.3706Z" fill="white"/>
<path d="M166.951 59.6424C167.551 60.8011 168.292 61.8187 169.186 62.6892C170.074 63.5597 171.062 64.2479 172.145 64.7478C173.227 65.2478 174.309 65.5007 175.392 65.5007C176.862 65.5007 178.138 65.2302 179.221 64.689C180.303 64.1479 181.215 63.5479 181.944 62.8892C182.797 62.1186 183.509 61.2481 184.091 60.2776L185.832 61.1481C185.138 62.348 184.285 63.4127 183.279 64.3361C182.35 65.189 181.25 65.9301 179.974 66.5712C178.697 67.2065 177.168 67.53 175.392 67.53C173.886 67.53 172.421 67.2123 171.01 66.5712C169.598 65.9301 168.363 65.0419 167.298 63.9008C166.233 62.7598 165.386 61.4363 164.745 59.9306C164.104 58.4248 163.787 56.7956 163.787 55.0604C163.787 53.3194 164.104 51.696 164.745 50.1902C165.381 48.6786 166.233 47.3552 167.298 46.2141C168.363 45.073 169.598 44.1848 171.01 43.5437C172.421 42.9085 173.88 42.585 175.392 42.585C176.821 42.585 178.215 42.8967 179.568 43.5143C180.921 44.1319 182.132 44.9848 183.191 46.067C184.256 47.1493 185.108 48.4374 185.744 49.9255C186.379 51.4136 186.702 53.0312 186.702 54.7663L185.544 55.925H165.822C165.975 57.2426 166.351 58.4778 166.951 59.6424ZM172.027 45.373C170.945 45.8788 169.968 46.5552 169.098 47.4022C168.227 48.2492 167.504 49.2374 166.922 50.3608C166.339 51.4842 165.975 52.6606 165.822 53.9017H184.673C184.52 52.6665 184.173 51.4842 183.632 50.3608C183.091 49.2374 182.403 48.2551 181.573 47.4022C180.744 46.5493 179.797 45.8729 178.732 45.373C177.668 44.873 176.556 44.6201 175.397 44.6201C174.233 44.6201 173.109 44.8671 172.027 45.373Z" fill="white"/>
<path d="M211.642 66.3709V62.3125H211.353C210.848 63.2771 210.195 64.1476 209.383 64.924C208.648 65.6181 207.748 66.2298 206.683 66.7533C205.619 67.2768 204.277 67.5356 202.654 67.5356C201.225 67.5356 199.843 67.2238 198.507 66.6062C197.172 65.9886 195.996 65.1299 194.966 64.0241C193.943 62.9242 193.131 61.6066 192.531 60.0774C191.931 58.5481 191.631 56.8776 191.631 55.0601C191.631 53.2426 191.931 51.5722 192.531 50.0429C193.131 48.5136 193.943 47.2019 194.966 46.0962C195.99 44.9962 197.172 44.1316 198.507 43.514C199.843 42.8964 201.225 42.5847 202.654 42.5847C204.277 42.5847 205.63 42.8552 206.713 43.3964C207.795 43.9375 208.683 44.5375 209.383 45.1962C210.195 45.9726 210.853 46.8373 211.353 47.8078H211.642V28.0859H213.671V66.3709H211.642ZM194.414 59.2362C194.914 60.5126 195.584 61.6125 196.413 62.5419C197.243 63.4712 198.202 64.1947 199.284 64.7181C200.366 65.2416 201.489 65.5004 202.648 65.5004C203.883 65.5004 205.048 65.271 206.13 64.8064C207.213 64.3417 208.16 63.7359 208.971 62.9771C209.783 62.2242 210.43 61.3537 210.912 60.3656C211.395 59.3774 211.636 58.3834 211.636 57.3776V52.7368C211.636 51.731 211.395 50.7369 210.912 49.7488C210.43 48.7606 209.783 47.8901 208.971 47.1372C208.16 46.3844 207.213 45.7727 206.13 45.3139C205.048 44.8492 203.889 44.6198 202.648 44.6198C201.489 44.6198 200.366 44.8786 199.284 45.4021C198.202 45.9256 197.243 46.649 196.413 47.5784C195.584 48.5077 194.914 49.6076 194.414 50.884C193.908 52.1604 193.661 53.5544 193.661 55.0601C193.661 56.5659 193.914 57.9599 194.414 59.2362Z" fill="white"/>
<path d="M237.663 27.3916C235.169 28.4738 232.981 29.9619 231.111 31.8559C229.234 33.7499 227.758 35.9673 226.676 38.4965C225.593 41.0316 225.052 43.7431 225.052 46.6429C225.052 49.5427 225.593 52.2601 226.676 54.7952C227.758 57.3244 229.24 59.5418 231.111 61.4358C232.987 63.3298 235.169 64.8179 237.663 65.9001C240.157 66.9824 242.815 67.5235 245.639 67.5235C247.145 67.5235 248.556 67.3824 249.874 67.0883C251.191 66.7942 252.379 66.4413 253.444 66.0119C254.509 65.5884 255.456 65.112 256.285 64.5885C257.114 64.065 257.997 63.3415 258.926 62.4122C260.59 60.9417 261.961 59.2595 263.043 57.3655L256.95 53.8835C256.173 55.2363 255.226 56.4362 254.109 57.4773C253.179 58.4066 252.009 59.2477 250.597 60.0006C249.186 60.7535 247.533 61.1299 245.639 61.1299C243.898 61.1299 242.227 60.7535 240.622 60.0006C239.016 59.2477 237.592 58.2184 236.357 56.9244C235.122 55.6304 234.134 54.0893 233.399 52.313C232.663 50.5308 232.299 48.6369 232.299 46.6253C232.299 44.5784 232.663 42.6726 233.399 40.914C234.134 39.1553 235.116 37.626 236.357 36.332C237.592 35.038 239.016 34.0145 240.622 33.2558C242.227 32.5029 243.898 32.1265 245.639 32.1265C247.38 32.1265 248.897 32.4441 250.191 33.0852C251.485 33.7204 252.638 34.4674 253.644 35.3203C254.691 36.2496 255.597 37.3143 256.373 38.5083L262.461 35.0262C261.379 33.2852 260.026 31.7383 258.402 30.3854C257.008 29.2267 255.262 28.1621 253.15 27.1916C251.044 26.2269 248.539 25.7446 245.639 25.7446C242.815 25.7623 240.157 26.3093 237.663 27.3916Z" fill="url(#paint0_linear)"/>
<path d="M267.966 26.9267V66.3705H274.348V52.154C274.348 51.5776 274.501 50.9953 274.813 50.413C275.125 49.8307 275.53 49.3013 276.03 48.819C276.536 48.3367 277.113 47.9485 277.771 47.6603C278.43 47.3721 279.124 47.225 279.859 47.225C281.33 47.225 282.518 47.672 283.43 48.5602C284.336 49.4484 284.794 50.5542 284.794 51.8658V66.3646H291.176V51.8658C291.176 50.3953 290.906 49.0308 290.365 47.7779C289.823 46.5192 289.106 45.4193 288.218 44.4723C287.329 43.5253 286.312 42.7783 285.171 42.2372C284.03 41.6961 282.842 41.4255 281.601 41.4255C280.442 41.4255 279.442 41.602 278.613 41.949C277.783 42.296 277.095 42.7019 276.554 43.1665C275.895 43.6665 275.354 44.2488 274.93 44.9076H274.348V26.9267H267.966Z" fill="url(#paint1_linear)"/>
<path d="M297.834 66.3705H304.216V42.5842H297.834V66.3705ZM298.387 28.056C297.635 28.8089 297.258 29.6912 297.258 30.697C297.258 31.7028 297.635 32.5851 298.387 33.3379C299.14 34.0908 300.023 34.4673 301.028 34.4673C302.034 34.4673 302.916 34.0908 303.669 33.3379C304.422 32.5851 304.799 31.7028 304.799 30.697C304.799 29.6912 304.422 28.8148 303.669 28.056C302.916 27.3031 302.034 26.9267 301.028 26.9267C300.023 26.9267 299.14 27.3031 298.387 28.056Z" fill="url(#paint2_linear)"/>
<path d="M322.109 41.9493C321.28 42.2963 320.591 42.7021 320.05 43.1668C319.392 43.6668 318.85 44.2491 318.427 44.9078H317.845V42.5845H311.463V66.3649H317.845V52.1543C317.845 51.5779 317.998 50.9956 318.309 50.4133C318.615 49.831 319.027 49.3016 319.527 48.8193C320.027 48.337 320.609 47.9488 321.268 47.6606C321.927 47.3723 322.621 47.2253 323.356 47.2253C324.826 47.2253 326.015 47.6723 326.926 48.5605C327.838 49.4486 328.291 50.5544 328.291 51.8661V66.3649H334.673V51.8661C334.673 50.3956 334.402 49.031 333.861 47.7782C333.32 46.5195 332.602 45.4196 331.714 44.4726C330.826 43.5256 329.808 42.7786 328.667 42.2375C327.526 41.6963 326.338 41.4258 325.103 41.4258C323.938 41.4258 322.944 41.6022 322.109 41.9493Z" fill="url(#paint3_linear)"/>
<path d="M346.877 61.0065C346.278 60.5242 345.978 59.989 345.978 59.4125C345.978 58.8302 346.26 58.3009 346.819 57.8185C347.377 57.3362 348.16 57.0951 349.166 57.0951C350.054 57.0951 350.859 57.1068 351.571 57.1245C352.289 57.1421 352.936 57.1715 353.512 57.2127C354.171 57.2892 354.747 57.348 355.253 57.3892C354.983 58.2009 354.618 58.9185 354.153 59.5361C353.73 60.1184 353.159 60.6301 352.442 61.0712C351.724 61.5182 350.83 61.7359 349.742 61.7359C348.43 61.73 347.477 61.4888 346.877 61.0065ZM346.554 41.9493C345.507 42.2963 344.601 42.7021 343.825 43.1668C342.972 43.6668 342.237 44.2491 341.619 44.9078L345.389 49.2604C345.813 48.8722 346.278 48.5252 346.783 48.2193C347.207 47.9899 347.719 47.7664 348.319 47.5488C348.918 47.3371 349.583 47.2312 350.318 47.2312C351.63 47.2312 352.783 47.737 353.771 48.7428C354.759 49.7486 355.247 50.9838 355.247 52.4543C354.747 52.219 354.165 52.0308 353.506 51.872C352.965 51.7191 352.324 51.5838 351.595 51.4661C350.86 51.3485 350.048 51.2897 349.16 51.2897C346.107 51.2897 343.695 52.0426 341.937 53.5542C340.178 55.06 339.296 57.0127 339.296 59.4125C339.296 60.5713 339.508 61.6476 339.937 62.6299C340.36 63.6181 340.949 64.4768 341.707 65.2121C342.46 65.9473 343.372 66.5178 344.437 66.9237C345.501 67.3295 346.689 67.5295 348.001 67.5295C349.16 67.5295 350.16 67.3531 350.989 67.006C351.818 66.659 352.524 66.2531 353.106 65.7885C353.724 65.2885 354.247 64.7062 354.671 64.0474H355.253V66.3649H361.635V52.4484C361.635 50.9426 361.347 49.5075 360.765 48.1546C360.182 46.8018 359.394 45.6313 358.388 44.6432C357.383 43.655 356.183 42.8727 354.794 42.2963C353.4 41.714 351.912 41.4258 350.33 41.4258C348.854 41.4258 347.601 41.6022 346.554 41.9493Z" fill="url(#paint4_linear)"/>
<path d="M127.919 78.5582C128.443 78.8052 128.878 79.0758 129.225 79.3758C129.637 79.7228 129.989 80.1228 130.284 80.5639L129.413 81.1168C129.172 80.758 128.884 80.4404 128.56 80.1698C128.254 79.9169 127.901 79.6934 127.501 79.5052C127.101 79.317 126.631 79.217 126.09 79.217C125.543 79.217 125.008 79.3405 124.49 79.5817C123.972 79.8228 123.519 80.1522 123.125 80.5639C122.731 80.9757 122.414 81.458 122.172 82.0167C121.937 82.5755 121.82 83.1696 121.82 83.8048C121.82 84.4401 121.937 85.0341 122.172 85.5929C122.408 86.1517 122.725 86.6399 123.125 87.0516C123.519 87.4634 123.978 87.7869 124.49 88.0339C125.008 88.275 125.543 88.3986 126.09 88.3986C126.69 88.3986 127.207 88.2927 127.643 88.0927C128.072 87.8868 128.437 87.6575 128.719 87.4045C129.06 87.1222 129.342 86.7928 129.572 86.4223V84.9165H126.801V83.8872H130.601V86.734C130.307 87.2398 129.942 87.6869 129.507 88.0751C129.266 88.3162 129.037 88.5103 128.819 88.6456C128.601 88.7809 128.36 88.9103 128.084 89.022C127.813 89.1397 127.507 89.2338 127.172 89.3103C126.843 89.3867 126.478 89.422 126.09 89.422C125.384 89.422 124.702 89.275 124.049 88.9809C123.396 88.6868 122.819 88.2809 122.331 87.7692C121.843 87.2575 121.449 86.6634 121.155 85.9811C120.861 85.2988 120.714 84.5754 120.714 83.8048C120.714 83.0343 120.861 82.3108 121.155 81.6285C121.449 80.9462 121.843 80.3522 122.331 79.8405C122.819 79.3287 123.396 78.9229 124.049 78.6288C124.702 78.3347 125.384 78.1818 126.09 78.1818C126.79 78.1818 127.401 78.3053 127.919 78.5582Z" fill="white"/>
<path d="M142.318 78.4999V79.5293H137.654V83.1701H141.053V84.1995H137.654V88.0756H142.477V89.0991H136.624V78.4999H142.318Z" fill="white"/>
<path d="M152.494 78.4526C152.87 78.6349 153.182 78.829 153.435 79.0525C153.729 79.3054 153.982 79.5936 154.193 79.923L153.323 80.4759C153.164 80.2465 152.976 80.0348 152.752 79.8407C152.564 79.6701 152.341 79.5231 152.082 79.3995C151.823 79.2701 151.523 79.2113 151.188 79.2113C150.511 79.2113 149.988 79.3878 149.611 79.7348C149.235 80.0818 149.053 80.5112 149.053 81.0347C149.053 81.4464 149.182 81.7758 149.447 82.0287C149.711 82.2817 150.035 82.5052 150.429 82.6993C150.817 82.8934 151.247 83.0816 151.705 83.2522C152.164 83.4286 152.588 83.6404 152.982 83.8933C153.37 84.1462 153.699 84.4579 153.964 84.8285C154.229 85.1991 154.358 85.6696 154.358 86.2519C154.358 86.6636 154.27 87.0636 154.087 87.4459C153.911 87.8283 153.658 88.1694 153.346 88.4576C153.029 88.7458 152.658 88.9811 152.223 89.1517C151.788 89.3281 151.317 89.4105 150.8 89.4105C150.164 89.4105 149.623 89.2928 149.176 89.0634C148.729 88.8341 148.359 88.5753 148.076 88.3047C147.735 87.9812 147.459 87.6106 147.235 87.1989L148.106 86.646C148.276 86.9754 148.482 87.2636 148.741 87.5165C148.97 87.7518 149.253 87.9518 149.588 88.1224C149.917 88.2988 150.323 88.3812 150.8 88.3812C151.182 88.3812 151.517 88.3282 151.817 88.2165C152.117 88.1047 152.376 87.9518 152.582 87.7577C152.793 87.5636 152.958 87.3342 153.07 87.0754C153.188 86.8166 153.24 86.5401 153.24 86.246C153.24 85.8108 153.111 85.4579 152.846 85.1873C152.582 84.9167 152.258 84.6756 151.864 84.4756C151.476 84.2756 151.047 84.0874 150.588 83.905C150.129 83.7227 149.705 83.5169 149.311 83.2698C148.923 83.0287 148.594 82.7287 148.329 82.3758C148.064 82.0229 147.935 81.57 147.935 81.0229C147.935 80.6641 148.017 80.3171 148.188 79.976C148.359 79.6407 148.588 79.3348 148.876 79.0643C149.164 78.7937 149.506 78.582 149.905 78.4173C150.3 78.2526 150.723 78.1702 151.182 78.1702C151.682 78.182 152.117 78.2761 152.494 78.4526Z" fill="white"/>
<path d="M162.981 89.0991H161.951V79.5293H158.946V78.4999H165.986V79.5293H162.981V89.0991Z" fill="white"/>
<path d="M177.15 89.0983L176.439 87.122H171.457L170.745 89.0983H169.639L173.909 77.8639H173.986L178.256 89.0983H177.15ZM176.045 86.0985L173.986 80.4814H173.909L171.851 86.0985H176.045ZM174.315 76.3346C174.192 76.2641 174.074 76.1817 173.974 76.0876C173.874 75.9994 173.774 75.917 173.674 75.8406C173.574 75.77 173.468 75.7288 173.351 75.7288C173.268 75.7288 173.18 75.7876 173.086 75.9053C172.998 76.0229 172.951 76.1994 172.951 76.4405L172.239 76.2817C172.239 75.8347 172.351 75.4877 172.568 75.2347C172.792 74.9818 173.021 74.8524 173.262 74.8524C173.439 74.8524 173.598 74.8877 173.721 74.9642C173.845 75.0348 173.962 75.1171 174.062 75.2112C174.162 75.2994 174.262 75.3818 174.362 75.4582C174.462 75.5347 174.568 75.57 174.686 75.57C174.768 75.57 174.856 75.5112 174.945 75.3935C175.033 75.2759 175.08 75.0995 175.08 74.8583L175.792 75.0171C175.792 75.4582 175.68 75.8112 175.456 76.0641C175.233 76.317 175.003 76.4405 174.762 76.4405C174.598 76.4464 174.445 76.4052 174.315 76.3346Z" fill="white"/>
<path d="M182.979 81.6285C183.273 80.9462 183.667 80.3522 184.156 79.8405C184.644 79.3287 185.22 78.9229 185.873 78.6288C186.526 78.3347 187.208 78.1818 187.914 78.1818C188.632 78.1818 189.314 78.3288 189.961 78.6288C190.608 78.9229 191.179 79.3287 191.667 79.8405C192.155 80.3522 192.549 80.9462 192.849 81.6285C193.143 82.3108 193.29 83.0343 193.29 83.8048C193.29 84.5754 193.143 85.2988 192.849 85.9811C192.549 86.6634 192.161 87.2575 191.667 87.7692C191.179 88.2809 190.608 88.6868 189.961 88.9809C189.314 89.275 188.632 89.422 187.914 89.422C187.208 89.422 186.526 89.275 185.873 88.9809C185.22 88.6868 184.65 88.2809 184.156 87.7692C183.667 87.2575 183.273 86.6634 182.979 85.9811C182.685 85.2988 182.538 84.5754 182.538 83.8048C182.538 83.0284 182.685 82.305 182.979 81.6285ZM191.831 82.0109C191.596 81.4521 191.279 80.9698 190.884 80.558C190.49 80.1463 190.032 79.8169 189.52 79.5758C189.008 79.3346 188.473 79.2111 187.914 79.2111C187.367 79.2111 186.832 79.3346 186.314 79.5758C185.797 79.8169 185.344 80.1463 184.944 80.558C184.55 80.9698 184.232 81.4521 183.997 82.0109C183.762 82.5696 183.644 83.1637 183.644 83.7989C183.644 84.4342 183.762 85.0283 183.997 85.587C184.232 86.1458 184.55 86.634 184.944 87.0457C185.338 87.4575 185.797 87.781 186.314 88.028C186.832 88.2692 187.361 88.3927 187.914 88.3927C188.473 88.3927 189.008 88.2751 189.52 88.028C190.032 87.7869 190.484 87.4575 190.884 87.0457C191.279 86.634 191.596 86.1458 191.831 85.587C192.067 85.0283 192.19 84.4342 192.19 83.7989C192.19 83.1696 192.073 82.5696 191.831 82.0109Z" fill="white"/>
<path d="M211.63 85.828C211.706 85.6398 211.765 85.4222 211.818 85.1693C211.871 84.9222 211.894 84.6517 211.894 84.3576H212.841C212.841 84.7399 212.8 85.0928 212.706 85.4281C212.618 85.7634 212.518 86.0516 212.412 86.3045C212.277 86.5986 212.124 86.875 211.971 87.1279L213.788 89.1043H212.524L211.342 87.8396C211.112 88.1337 210.842 88.3984 210.536 88.6278C210.253 88.8396 209.918 89.0219 209.53 89.1807C209.148 89.3395 208.695 89.416 208.177 89.416C207.66 89.416 207.189 89.3336 206.76 89.169C206.33 89.0043 205.966 88.7808 205.66 88.4984C205.354 88.2161 205.119 87.8808 204.948 87.5103C204.777 87.1397 204.695 86.7456 204.695 86.3339C204.695 85.8398 204.819 85.3987 205.071 85.0222C205.324 84.6458 205.607 84.3223 205.924 84.0576C206.283 83.74 206.689 83.4753 207.142 83.2518C206.907 83.0283 206.695 82.7871 206.507 82.5224C206.336 82.2813 206.189 82.0048 206.066 81.7049C205.936 81.4049 205.877 81.0755 205.877 80.7167C205.877 80.3579 205.942 80.0285 206.077 79.7227C206.207 79.4168 206.383 79.1521 206.607 78.9227C206.83 78.6933 207.089 78.5169 207.383 78.3875C207.677 78.2581 207.995 78.1875 208.33 78.1875C208.665 78.1875 208.983 78.2522 209.277 78.3757C209.571 78.4992 209.83 78.6757 210.053 78.8992C210.277 79.1227 210.453 79.3756 210.583 79.658C210.712 79.9403 210.783 80.2403 210.783 80.5579C210.783 80.999 210.665 81.399 210.43 81.746C210.195 82.0931 209.93 82.3872 209.648 82.6342C209.312 82.9283 208.924 83.1871 208.489 83.4106L211.336 86.4162C211.453 86.2339 211.547 86.0398 211.63 85.828ZM206.724 84.5458C206.454 84.7693 206.213 85.0281 206.018 85.3222C205.824 85.6163 205.724 85.9575 205.724 86.3339C205.724 86.9691 205.936 87.4809 206.36 87.8749C206.777 88.269 207.389 88.469 208.177 88.469C208.577 88.469 208.93 88.3984 209.242 88.2631C209.553 88.1279 209.818 87.969 210.042 87.7867C210.295 87.5985 210.512 87.375 210.706 87.1221L207.701 83.8753C207.336 84.0694 207.013 84.2929 206.724 84.5458ZM208.865 82.2048C209.106 82.0048 209.318 81.7696 209.501 81.499C209.677 81.2343 209.771 80.9167 209.771 80.5579C209.771 80.1579 209.636 79.8168 209.359 79.5462C209.089 79.2698 208.748 79.1345 208.348 79.1345C207.948 79.1345 207.607 79.2815 207.33 79.5697C207.06 79.858 206.918 80.2403 206.918 80.7167C206.918 80.9873 206.971 81.252 207.077 81.499C207.183 81.746 207.307 81.9695 207.442 82.1578C207.589 82.3813 207.76 82.5871 207.948 82.7754C208.283 82.6165 208.589 82.4224 208.865 82.2048Z" fill="white"/>
<path d="M231.864 83.5406C231.664 83.9817 231.381 84.364 231.017 84.6934C230.652 85.0287 230.211 85.2875 229.693 85.4875C229.175 85.6816 228.599 85.7815 227.97 85.7815H226.546V89.1048H225.517V78.5057H227.97C228.605 78.5057 229.175 78.6057 229.693 78.7998C230.211 78.9939 230.652 79.2586 231.017 79.5938C231.381 79.9291 231.664 80.3114 231.864 80.7467C232.063 81.1819 232.163 81.6525 232.163 82.1466C232.163 82.6347 232.069 83.1053 231.864 83.5406ZM229.252 84.5464C229.634 84.4111 229.958 84.2228 230.228 83.9817C230.493 83.7464 230.705 83.47 230.846 83.1523C230.987 82.8347 231.058 82.4995 231.058 82.1407C231.058 81.7819 230.987 81.4466 230.846 81.129C230.705 80.8114 230.499 80.5349 230.228 80.2996C229.958 80.0644 229.634 79.8762 229.252 79.7409C228.876 79.5997 228.446 79.535 227.97 79.535H226.546V84.7581H227.97C228.446 84.7522 228.876 84.6816 229.252 84.5464Z" fill="white"/>
<path d="M244.198 89.0991L241.745 84.8288H239.057V89.0991H238.028V78.4999H241.192C241.763 78.4999 242.274 78.5823 242.733 78.7529C243.192 78.9234 243.58 79.1469 243.904 79.4352C244.227 79.7234 244.474 80.0527 244.651 80.4409C244.821 80.8233 244.91 81.235 244.91 81.6703C244.91 82.2467 244.798 82.7231 244.574 83.0878C244.351 83.4525 244.11 83.7407 243.845 83.9465C243.527 84.1995 243.168 84.3936 242.768 84.5171V84.5936L245.462 89.1049H244.198V89.0991ZM242.298 83.6348C242.627 83.5231 242.898 83.3701 243.121 83.176C243.345 82.9819 243.51 82.7525 243.627 82.4937C243.745 82.2349 243.804 81.9585 243.804 81.6644C243.804 81.3703 243.745 81.0938 243.627 80.835C243.51 80.5762 243.345 80.3527 243.121 80.1527C242.898 79.9586 242.627 79.8057 242.298 79.694C241.974 79.5822 241.604 79.5293 241.192 79.5293H239.057V83.7995H241.192C241.604 83.7995 241.974 83.7466 242.298 83.6348Z" fill="white"/>
<path d="M250.662 81.6285C250.956 80.9462 251.35 80.3522 251.844 79.8405C252.332 79.3287 252.903 78.9229 253.562 78.6288C254.215 78.3347 254.897 78.1818 255.603 78.1818C256.32 78.1818 257.003 78.3288 257.65 78.6288C258.297 78.9229 258.867 79.3287 259.355 79.8405C259.843 80.3522 260.238 80.9462 260.538 81.6285C260.832 82.3108 260.979 83.0343 260.979 83.8048C260.979 84.5754 260.832 85.2988 260.538 85.9811C260.238 86.6634 259.849 87.2575 259.355 87.7692C258.867 88.2809 258.297 88.6868 257.65 88.9809C257.003 89.275 256.32 89.422 255.603 89.422C254.897 89.422 254.215 89.275 253.562 88.9809C252.909 88.6868 252.338 88.2809 251.844 87.7692C251.356 87.2575 250.956 86.6634 250.662 85.9811C250.368 85.2988 250.221 84.5754 250.221 83.8048C250.221 83.0284 250.368 82.305 250.662 81.6285ZM259.514 82.0109C259.279 81.4521 258.961 80.9698 258.561 80.558C258.167 80.1463 257.714 79.8169 257.203 79.5758C256.691 79.3346 256.156 79.2111 255.597 79.2111C255.05 79.2111 254.515 79.3346 253.997 79.5758C253.479 79.8169 253.026 80.1463 252.632 80.558C252.238 80.9698 251.921 81.4521 251.685 82.0109C251.45 82.5696 251.327 83.1637 251.327 83.7989C251.327 84.4342 251.444 85.0283 251.685 85.587C251.921 86.1458 252.238 86.634 252.632 87.0457C253.026 87.4575 253.485 87.781 253.997 88.028C254.515 88.2692 255.05 88.3927 255.597 88.3927C256.156 88.3927 256.691 88.2751 257.203 88.028C257.714 87.7869 258.167 87.4575 258.561 87.0457C258.955 86.634 259.273 86.1458 259.514 85.587C259.749 85.0283 259.867 84.4342 259.867 83.7989C259.867 83.1696 259.749 82.5696 259.514 82.0109Z" fill="white"/>
<path d="M267.949 81.1109H267.872V89.0985H266.843V78.1818H267.078L273.089 86.4928H273.172V78.4994H274.195V89.4161H273.96L267.949 81.1109Z" fill="white"/>
<path d="M283.777 89.0991H282.753V79.5293H279.748V78.4999H286.788V79.5293H283.777V89.0991Z" fill="white"/>
<path d="M299.452 78.4999V85.6229C299.452 86.1934 299.364 86.711 299.181 87.1816C298.999 87.6521 298.752 88.0521 298.44 88.3874C298.123 88.7226 297.752 88.9755 297.317 89.1579C296.887 89.3343 296.411 89.4284 295.893 89.4284C295.376 89.4284 294.905 89.3402 294.47 89.1579C294.035 88.9755 293.664 88.7226 293.347 88.3874C293.029 88.0521 292.782 87.6521 292.605 87.1816C292.423 86.711 292.335 86.1934 292.335 85.6229V78.4999H293.364V85.6229C293.364 86.4993 293.594 87.1816 294.058 87.6639C294.523 88.1521 295.135 88.3932 295.893 88.3932C296.652 88.3932 297.264 88.1521 297.729 87.6639C298.193 87.1757 298.423 86.4993 298.423 85.6229V78.4999H299.452Z" fill="white"/>
<path d="M312.516 89.0984L311.804 87.1221H306.822L306.11 89.0984H305.004L309.275 77.864H309.351L313.627 89.0984H312.516ZM311.404 86.0927L309.345 80.4756H309.269L307.216 86.0927H311.404ZM308.304 75.97L310.363 74.7054L310.839 75.576L308.622 76.6053L308.304 75.97Z" fill="white"/>
<path d="M325.338 89.0991L322.885 84.8288H320.197V89.0991H319.168V78.4999H322.332C322.903 78.4999 323.415 78.5823 323.874 78.7529C324.332 78.9234 324.721 79.1469 325.044 79.4352C325.368 79.7234 325.615 80.0527 325.785 80.4409C325.962 80.8233 326.05 81.235 326.05 81.6703C326.05 82.2467 325.938 82.7231 325.72 83.0878C325.497 83.4525 325.256 83.7407 324.991 83.9465C324.673 84.1995 324.315 84.3936 323.915 84.5171V84.5936L326.603 89.1049H325.338V89.0991ZM323.438 83.6348C323.768 83.5231 324.038 83.3701 324.262 83.176C324.485 82.9819 324.65 82.7525 324.768 82.4937C324.885 82.2349 324.944 81.9585 324.944 81.6644C324.944 81.3703 324.885 81.0938 324.768 80.835C324.65 80.5762 324.485 80.3527 324.262 80.1527C324.038 79.9586 323.768 79.8057 323.438 79.694C323.109 79.5822 322.744 79.5293 322.332 79.5293H320.197V83.7995H322.332C322.744 83.7995 323.109 83.7466 323.438 83.6348Z" fill="white"/>
<path d="M333.179 78.4999H332.149V89.0991H333.179V78.4999Z" fill="white"/>
<path d="M339.478 81.6285C339.772 80.9462 340.166 80.3522 340.66 79.8405C341.149 79.3287 341.719 78.9229 342.378 78.6288C343.031 78.3347 343.713 78.1818 344.419 78.1818C345.136 78.1818 345.819 78.3288 346.466 78.6288C347.113 78.9229 347.683 79.3287 348.172 79.8405C348.66 80.3522 349.054 80.9462 349.354 81.6285C349.648 82.3108 349.795 83.0343 349.795 83.8048C349.795 84.5754 349.648 85.2988 349.354 85.9811C349.054 86.6634 348.666 87.2575 348.172 87.7692C347.683 88.2809 347.113 88.6868 346.466 88.9809C345.819 89.275 345.136 89.422 344.419 89.422C343.713 89.422 343.031 89.275 342.378 88.9809C341.725 88.6868 341.149 88.2809 340.66 87.7692C340.172 87.2575 339.772 86.6634 339.478 85.9811C339.184 85.2988 339.037 84.5754 339.037 83.8048C339.037 83.0284 339.184 82.305 339.478 81.6285ZM348.33 82.0109C348.095 81.4521 347.777 80.9698 347.378 80.558C346.983 80.1463 346.53 79.8169 346.019 79.5758C345.507 79.3346 344.972 79.2111 344.413 79.2111C343.866 79.2111 343.331 79.3346 342.813 79.5758C342.296 79.8169 341.843 80.1463 341.449 80.558C341.054 80.9698 340.737 81.4521 340.502 82.0109C340.266 82.5696 340.143 83.1637 340.143 83.7989C340.143 84.4342 340.26 85.0283 340.502 85.587C340.737 86.1458 341.054 86.634 341.449 87.0457C341.843 87.4575 342.301 87.781 342.813 88.028C343.331 88.2692 343.866 88.3927 344.413 88.3927C344.972 88.3927 345.507 88.2751 346.019 88.028C346.53 87.7869 346.983 87.4575 347.378 87.0457C347.772 86.634 348.089 86.1458 348.33 85.587C348.566 85.0283 348.683 84.4342 348.683 83.7989C348.689 83.1696 348.566 82.5696 348.33 82.0109Z" fill="white"/>
<path d="M359.812 78.4526C360.188 78.6349 360.5 78.829 360.753 79.0525C361.047 79.3054 361.3 79.5936 361.512 79.923L360.641 80.4759C360.482 80.2465 360.294 80.0348 360.07 79.8407C359.882 79.6701 359.659 79.5231 359.4 79.3995C359.141 79.2701 358.841 79.2113 358.506 79.2113C357.83 79.2113 357.306 79.3878 356.93 79.7348C356.553 80.0818 356.371 80.5112 356.371 81.0347C356.371 81.4464 356.5 81.7758 356.765 82.0287C357.03 82.2817 357.353 82.5052 357.747 82.6993C358.135 82.8934 358.565 83.0816 359.018 83.2522C359.476 83.4286 359.9 83.6404 360.288 83.8933C360.676 84.1462 361.006 84.4579 361.27 84.8285C361.535 85.1991 361.664 85.6696 361.664 86.2519C361.664 86.6636 361.576 87.0636 361.394 87.4459C361.212 87.8283 360.97 88.1694 360.653 88.4576C360.335 88.7458 359.965 88.9811 359.529 89.1517C359.094 89.3281 358.624 89.4105 358.106 89.4105C357.471 89.4105 356.935 89.2928 356.483 89.0634C356.03 88.8341 355.665 88.5753 355.383 88.3047C355.047 87.9812 354.765 87.6106 354.547 87.1989L355.418 86.646C355.589 86.9754 355.8 87.2636 356.053 87.5165C356.283 87.7518 356.571 87.9518 356.9 88.1224C357.235 88.2988 357.635 88.3812 358.112 88.3812C358.488 88.3812 358.835 88.3282 359.129 88.2165C359.429 88.1047 359.688 87.9518 359.9 87.7577C360.112 87.5636 360.276 87.3342 360.394 87.0754C360.506 86.8166 360.57 86.5401 360.57 86.246C360.57 85.8108 360.441 85.4579 360.176 85.1873C359.912 84.9167 359.582 84.6756 359.194 84.4756C358.8 84.2756 358.377 84.0874 357.918 83.905C357.459 83.7227 357.035 83.5169 356.641 83.2698C356.253 83.0287 355.924 82.7287 355.659 82.3758C355.394 82.0229 355.265 81.57 355.265 81.0229C355.265 80.6641 355.347 80.3171 355.518 79.976C355.688 79.6407 355.918 79.3348 356.206 79.0643C356.494 78.7937 356.841 78.582 357.235 78.4173C357.629 78.2526 358.053 78.1702 358.506 78.1702C359 78.182 359.435 78.2761 359.812 78.4526Z" fill="white"/>
<path d="M17.3105 37.2443C14.9048 37.2443 12.952 39.1971 12.952 41.6028V60.5189C12.952 62.9187 14.9048 64.8774 17.3105 64.8774H59.7717V61.8423H17.3105C16.5811 61.8423 15.9871 61.2482 15.9871 60.5189V41.5969C15.9871 40.8676 16.5811 40.2735 17.3105 40.2735H85.4108C86.1401 40.2735 86.7401 40.8676 86.7401 41.5969V60.513C86.7401 61.2424 86.1401 61.8364 85.4108 61.8364H67.5475V64.8715H85.4108C87.8164 64.8715 89.7692 62.9187 89.7692 60.513V41.5969C89.7692 39.1971 87.8164 37.2385 85.4108 37.2385H17.3105V37.2443Z" fill="url(#paint5_linear)"/>
<path d="M60.8128 12.646H41.9026C39.5028 12.646 37.55 14.5988 37.55 17.0045V34.8795H40.5851V17.0045C40.5851 16.2751 41.1792 15.681 41.9026 15.681H60.8187C61.5481 15.681 62.1421 16.2751 62.1421 17.0045V85.1047C62.1421 85.8341 61.5481 86.4281 60.8187 86.4281H41.9026C41.1733 86.4281 40.5851 85.8341 40.5851 85.1047V42.6965H37.55V85.1047C37.55 87.5045 39.5028 89.4632 41.9026 89.4632H60.8187C63.2244 89.4632 65.1772 87.5104 65.1772 85.1047V17.0045C65.1713 14.6047 63.2185 12.646 60.8128 12.646Z" fill="white"/>
<path d="M71.7002 4.95804C73.5001 6.56967 75.0411 8.3754 76.2881 10.2282C76.4704 10.4929 76.6939 10.7164 76.9645 10.8928C90.2105 19.3745 99.0215 34.1968 99.0215 51.0542C99.0215 77.3403 77.6468 98.7209 51.3666 98.7444C38.6912 98.7327 28.3803 88.4217 28.3803 75.7404C28.3803 72.7583 28.9685 69.9174 30.0096 67.2999H26.3863C25.4805 69.9586 24.957 72.7877 24.957 75.7404C24.957 82.3811 27.6921 88.2335 31.5094 93.0802C32.927 94.8741 36.4502 97.8033 41.2322 99.7326C45.2965 101.374 50.8667 102.638 57.5485 101.721C82.7758 98.6385 102.386 77.0991 102.386 51.0542C102.386 30.7441 90.4634 13.1809 73.253 4.96392C72.2237 4.46984 71.1826 4.01694 70.1121 3.59344C70.718 4.07576 71.2003 4.51102 71.7002 4.95804Z" fill="url(#paint6_linear)"/>
<path d="M77.7585 26.3684C77.7585 20.5395 75.8469 15.1635 72.6236 10.7991C72.5883 10.7462 72.5472 10.6932 72.506 10.6462C71.9943 9.96977 71.459 9.311 70.8944 8.68752C70.865 8.65811 70.8414 8.6287 70.812 8.59929C70.2121 7.9464 69.5827 7.32293 68.9239 6.72886L68.9357 6.73474C65.1007 3.28796 59.4306 0.25292 51.296 0C23.1865 0.0470549 0.32959 22.9334 0.32959 51.0546C0.32959 70.8177 11.6169 87.9869 28.0802 96.4685C29.1155 97.0038 31.6858 98.1919 29.9271 96.6803C28.092 95.0922 26.451 93.0982 25.1099 91.0984C24.8923 90.7749 24.6217 90.5043 24.3041 90.2808C11.8698 81.6639 3.69402 67.3003 3.69402 51.0546C3.69402 24.7685 25.0687 3.38796 51.3489 3.36443C64.0243 3.37619 74.3353 13.6871 74.3353 26.3684C74.3353 29.2976 73.7588 32.0856 72.753 34.6677C72.7354 34.7148 72.7177 34.756 72.7001 34.803H76.3233C77.2291 32.1503 77.7585 29.3211 77.7585 26.3684Z" fill="white"/>
</g>
<defs>
<linearGradient id="paint0_linear" x1="305.548" y1="19.9561" x2="229.302" y2="48.2626" gradientUnits="userSpaceOnUse">
<stop stop-color="#C99A6C"/>
<stop offset="0.2022" stop-color="#EFD7B9"/>
<stop offset="0.4438" stop-color="#DBBA95"/>
<stop offset="0.691" stop-color="#C09362"/>
<stop offset="0.8539" stop-color="#EFDBC0"/>
<stop offset="1" stop-color="#B98C5A"/>
</linearGradient>
<linearGradient id="paint1_linear" x1="444.285" y1="-33.2002" x2="264.572" y2="-14.5167" gradientUnits="userSpaceOnUse">
<stop stop-color="#C99A6C"/>
<stop offset="0.2022" stop-color="#EFD7B9"/>
<stop offset="0.4438" stop-color="#DBBA95"/>
<stop offset="0.691" stop-color="#C09362"/>
<stop offset="0.8539" stop-color="#EFDBC0"/>
<stop offset="1" stop-color="#B98C5A"/>
</linearGradient>
<linearGradient id="paint2_linear" x1="304.535" y1="29.3395" x2="273.806" y2="21.5734" gradientUnits="userSpaceOnUse">
<stop stop-color="#C99A6C"/>
<stop offset="0.2022" stop-color="#EFD7B9"/>
<stop offset="0.4438" stop-color="#DBBA95"/>
<stop offset="0.691" stop-color="#C09362"/>
<stop offset="0.8539" stop-color="#EFDBC0"/>
<stop offset="1" stop-color="#B98C5A"/>
</linearGradient>
<linearGradient id="paint3_linear" x1="360.64" y1="37.9704" x2="314.325" y2="55.5682" gradientUnits="userSpaceOnUse">
<stop stop-color="#C99A6C"/>
<stop offset="0.2022" stop-color="#EFD7B9"/>
<stop offset="0.4438" stop-color="#DBBA95"/>
<stop offset="0.691" stop-color="#C09362"/>
<stop offset="0.8539" stop-color="#EFDBC0"/>
<stop offset="1" stop-color="#B98C5A"/>
</linearGradient>
<linearGradient id="paint4_linear" x1="440.424" y1="-9.26411" x2="337.176" y2="48.1415" gradientUnits="userSpaceOnUse">
<stop stop-color="#C99A6C"/>
<stop offset="0.2022" stop-color="#EFD7B9"/>
<stop offset="0.717462" stop-color="#DBBA95"/>
<stop offset="1" stop-color="#B98C5A"/>
</linearGradient>
<linearGradient id="paint5_linear" x1="175.713" y1="33.409" x2="99.0304" y2="120.422" gradientUnits="userSpaceOnUse">
<stop stop-color="#C99A6C"/>
<stop offset="0.2022" stop-color="#EFD7B9"/>
<stop offset="0.4438" stop-color="#DBBA95"/>
<stop offset="0.691" stop-color="#C09362"/>
<stop offset="0.8539" stop-color="#EFDBC0"/>
<stop offset="1" stop-color="#B98C5A"/>
</linearGradient>
<linearGradient id="paint6_linear" x1="189.014" y1="-10.0451" x2="28.7309" y2="41.4285" gradientUnits="userSpaceOnUse">
<stop stop-color="#C99A6C"/>
<stop offset="0.2022" stop-color="#EFD7B9"/>
<stop offset="0.4438" stop-color="#DBBA95"/>
<stop offset="0.691" stop-color="#C09362"/>
<stop offset="0.8539" stop-color="#EFDBC0"/>
<stop offset="1" stop-color="#B98C5A"/>
</linearGradient>
<clipPath id="clip0">
<rect width="361.341" height="102.033" fill="white" transform="translate(0.32959)"/>
</clipPath>
</defs>
</svg>
