<svg width="21" height="20" viewBox="0 0 21 20" fill="none" xmlns="http://www.w3.org/2000/svg">
<path d="M6.875 13.75C5.51526 13.75 4.18605 13.3468 3.05546 12.5914C1.92487 11.8359 1.04368 10.7622 0.523331 9.50595C0.0029788 8.24971 -0.133169 6.86738 0.132104 5.53376C0.397378 4.20014 1.05216 2.97513 2.01364 2.01364C2.97513 1.05216 4.20014 0.397378 5.53376 0.132104C6.86738 -0.133169 8.24971 0.0029788 9.50595 0.523331C10.7622 1.04368 11.8359 1.92487 12.5914 3.05546C13.3468 4.18605 13.75 5.51526 13.75 6.875C13.75 8.69837 13.0257 10.447 11.7364 11.7364C10.447 13.0257 8.69837 13.75 6.875 13.75ZM6.875 1.375C5.78721 1.375 4.72384 1.69757 3.81937 2.30192C2.9149 2.90627 2.20995 3.76525 1.79367 4.77024C1.37738 5.77524 1.26847 6.8811 1.48068 7.948C1.6929 9.0149 2.21673 9.9949 2.98592 10.7641C3.7551 11.5333 4.73511 12.0571 5.80201 12.2693C6.8689 12.4815 7.97477 12.3726 8.97976 11.9563C9.98476 11.5401 10.8437 10.8351 11.4481 9.93064C12.0524 9.02617 12.375 7.9628 12.375 6.875C12.375 5.41631 11.7955 4.01737 10.7641 2.98592C9.73264 1.95447 8.33369 1.375 6.875 1.375Z" fill="#1A7F84"/>
<path d="M18.5625 19.0713C18.0774 19.0719 17.6076 18.9015 17.2357 18.59L13.0213 15.0563C12.8136 14.882 12.6423 14.6686 12.5172 14.4281C12.392 14.1877 12.3154 13.9249 12.2918 13.6549C12.2441 13.1095 12.415 12.5675 12.7669 12.1481C13.1188 11.7288 13.6229 11.4664 14.1683 11.4186C14.7137 11.3709 15.2557 11.5418 15.675 11.8938L19.8894 15.4275C20.2142 15.6995 20.4474 16.0649 20.5572 16.4741C20.667 16.8833 20.6482 17.3164 20.5032 17.7145C20.3582 18.1126 20.0942 18.4564 19.747 18.6991C19.3997 18.9419 18.9862 19.0718 18.5625 19.0713ZM14.3482 12.7875H14.2863C14.1499 12.799 14.02 12.8509 13.9133 12.9366C13.8066 13.0223 13.728 13.1379 13.6873 13.2686C13.6467 13.3993 13.646 13.5391 13.6854 13.6702C13.7247 13.8013 13.8023 13.9176 13.9082 14.0044L18.1225 17.5381C18.1916 17.5964 18.2714 17.6405 18.3575 17.6679C18.4436 17.6953 18.5343 17.7055 18.6243 17.6978C18.7143 17.6902 18.802 17.6648 18.8822 17.6233C18.9625 17.5817 19.0337 17.5247 19.0919 17.4556C19.1499 17.3865 19.1937 17.3065 19.2209 17.2204C19.248 17.1343 19.2579 17.0437 19.25 16.9538C19.2417 16.8633 19.2155 16.7755 19.173 16.6952C19.1306 16.615 19.0726 16.544 19.0025 16.4863L14.7882 12.9456C14.6645 12.8431 14.5088 12.7872 14.3482 12.7875Z" fill="#1A7F84"/>
<path d="M13.0625 13.0625C12.9019 13.0628 12.7462 13.0069 12.6225 12.9044L11 11.5638C10.8596 11.4471 10.7713 11.2794 10.7546 11.0976C10.7378 10.9158 10.794 10.7348 10.9107 10.5944C11.0274 10.454 11.195 10.3657 11.3768 10.3489C11.5586 10.3322 11.7396 10.3883 11.88 10.505L13.4888 11.8456C13.5584 11.9033 13.6159 11.9742 13.6581 12.0542C13.7003 12.1342 13.7263 12.2217 13.7346 12.3118C13.7429 12.4018 13.7333 12.4926 13.7065 12.579C13.6797 12.6653 13.636 12.7455 13.5782 12.815C13.515 12.8908 13.4363 12.9522 13.3473 12.9949C13.2583 13.0376 13.1612 13.0607 13.0625 13.0625Z" fill="#1A7F84"/>
</svg>
