<svg width="12" height="18" viewBox="0 0 12 18" fill="none" xmlns="http://www.w3.org/2000/svg">
<path d="M6 3.375C6.14918 3.375 6.29226 3.43426 6.39775 3.53975C6.50324 3.64524 6.5625 3.78832 6.5625 3.9375V6.1875C6.5625 6.33668 6.50324 6.47976 6.39775 6.58525C6.29226 6.69074 6.14918 6.75 6 6.75C5.85082 6.75 5.70774 6.69074 5.60225 6.58525C5.49676 6.47976 5.4375 6.33668 5.4375 6.1875V3.9375C5.4375 3.78832 5.49676 3.64524 5.60225 3.53975C5.70774 3.43426 5.85082 3.375 6 3.375ZM10.5 12.375C10.5 13.5685 10.0259 14.7131 9.18198 15.557C8.33807 16.4009 7.19347 16.875 6 16.875C4.80653 16.875 3.66193 16.4009 2.81802 15.557C1.97411 14.7131 1.5 13.5685 1.5 12.375V5.625C1.5 4.43153 1.97411 3.28693 2.81802 2.44302C3.66193 1.59911 4.80653 1.125 6 1.125C7.19347 1.125 8.33807 1.59911 9.18198 2.44302C10.0259 3.28693 10.5 4.43153 10.5 5.625V12.375ZM6 0C4.50816 0 3.07742 0.592632 2.02252 1.64752C0.967632 2.70242 0.375 4.13316 0.375 5.625V12.375C0.375 13.8668 0.967632 15.2976 2.02252 16.3525C3.07742 17.4074 4.50816 18 6 18C7.49184 18 8.92258 17.4074 9.97748 16.3525C11.0324 15.2976 11.625 13.8668 11.625 12.375V5.625C11.625 4.13316 11.0324 2.70242 9.97748 1.64752C8.92258 0.592632 7.49184 0 6 0V0Z" fill="white"/>
</svg>
