<svg width="94" height="94" viewBox="0 0 94 94" fill="none" xmlns="http://www.w3.org/2000/svg">
<path fill-rule="evenodd" clip-rule="evenodd" d="M4 47C4 23.2517 23.2521 4 47 4C70.7479 4 90 23.2517 90 47C90 70.7483 70.7479 90 47 90C23.2521 90 4 70.7483 4 47ZM40.3619 62.7173L61.8619 49.2798C62.6473 48.7878 63.125 47.9268 63.125 47.0005C63.125 46.0741 62.6473 45.2133 61.8619 44.7211L40.3619 31.2836C39.5333 30.7653 38.4887 30.7364 37.6344 31.2127C36.7801 31.6864 36.25 32.5854 36.25 33.563V60.438C36.25 61.4155 36.7801 62.3145 37.6344 62.7882C38.0405 63.0139 38.4894 63.1255 38.9375 63.1255C39.4322 63.1255 39.9268 62.9889 40.3619 62.7173Z" stroke="#005102" stroke-width="7"/>
</svg>
