<svg width="89" height="71" viewBox="0 0 89 71" fill="none" xmlns="http://www.w3.org/2000/svg">
<g clip-path="url(#clip0)">
<path d="M44.1666 70.6153C31.7708 70.6153 19.375 70.6171 6.97926 70.6134C3.55825 70.6125 0.882039 68.5226 0.15962 65.2796C0.0496257 64.7847 0.00581444 64.2645 0.00581444 63.7565C-0.00164279 44.8058 -0.00257494 25.8542 0.00115367 6.90349C0.00208583 2.91108 2.93837 0.0102156 6.98299 0.00462272C13.4913 -0.00376666 20.0005 0.00182626 26.5088 0.00182626C44.7604 0.00182626 63.0129 0.00275841 81.2645 0.000894107C82.5751 0.000894107 83.8344 0.218086 84.9707 0.904151C87.1809 2.239 88.3423 4.20398 88.347 6.7907C88.3619 15.5828 88.3535 24.3749 88.3535 33.1669C88.3535 43.3414 88.3488 53.5159 88.3582 63.6903C88.3591 65.1985 87.9853 66.5791 87.0942 67.7964C85.6997 69.699 83.7887 70.6088 81.4481 70.6125C75.6389 70.6218 69.8288 70.6162 64.0196 70.6162C57.4013 70.6153 50.784 70.6153 44.1666 70.6153ZM44.1825 67.8561C44.4313 67.8561 44.6793 67.8561 44.9282 67.8561C57.076 67.8561 69.2238 67.8589 81.3707 67.8468C81.9049 67.8459 82.467 67.7834 82.9685 67.6119C84.6892 67.0237 85.6186 65.5509 85.6195 63.502C85.6214 44.6902 85.6214 25.8784 85.6167 7.06662C85.6167 6.68071 85.5962 6.28641 85.5207 5.90889C85.1833 4.22635 83.6405 2.74329 81.3223 2.74516C56.5298 2.76846 31.7373 2.75914 6.94477 2.761C4.44007 2.761 2.75567 4.42956 2.75567 6.92773C2.75287 25.8486 2.75287 44.7685 2.75567 63.6894C2.75567 66.1866 4.44473 67.8552 6.94663 67.8552C19.3592 67.857 31.7708 67.8561 44.1825 67.8561Z" fill="#1A7F84"/>
<path d="M59.2725 39.6707C59.2725 42.6835 59.3107 45.6971 59.2585 48.7089C59.2278 50.4884 58.4587 52.0386 57.4362 53.461C55.995 55.467 54.1279 57.0303 52.149 58.4695C49.7972 60.18 47.2878 61.636 44.7356 63.0212C44.2835 63.2664 43.8174 63.3092 43.356 63.0594C40.0906 61.2921 36.8794 59.4399 33.9804 57.0974C32.488 55.8921 31.1205 54.5666 30.0784 52.9353C29.1173 51.4317 28.6261 49.7911 28.6279 48.0051C28.6335 42.2435 28.6522 36.4809 28.6373 30.7193C28.6345 29.624 29.1658 28.9836 30.3888 28.9556C35.167 28.8447 39.4027 27.2675 43.0018 24.0758C43.6505 23.5007 44.3599 23.5025 45.0059 24.0786C48.0046 26.7511 51.516 28.2919 55.487 28.8C56.2859 28.9025 57.0941 28.937 57.9004 28.9734C58.7952 29.0144 59.3461 29.5466 59.348 30.4443C59.3527 33.5195 59.3499 36.5946 59.3499 39.6698C59.3247 39.6708 59.2986 39.6707 59.2725 39.6707ZM56.5907 31.6924C56.4425 31.6747 56.381 31.6654 56.3194 31.6598C51.8917 31.3037 47.8918 29.8142 44.3552 27.1165C44.0775 26.9049 43.9106 26.9207 43.6449 27.123C40.1745 29.7703 36.2502 31.259 31.9082 31.6328C31.4635 31.671 31.3852 31.8174 31.3862 32.2145C31.3946 37.4485 31.3983 42.6835 31.3787 47.9175C31.3731 49.3213 31.7795 50.5704 32.5663 51.7151C33.3745 52.8915 34.3877 53.873 35.4821 54.7735C38.0352 56.8727 40.8578 58.5599 43.7549 60.1287C43.9022 60.2089 44.1837 60.1791 44.3375 60.0887C45.9427 59.1462 47.5628 58.2243 49.1232 57.2111C51.146 55.8986 53.0616 54.4398 54.6369 52.5867C55.859 51.1484 56.5991 49.5488 56.5851 47.5941C56.5487 42.484 56.5832 37.3739 56.5888 32.2639C56.5916 32.083 56.5907 31.9012 56.5907 31.6924Z" fill="url(#paint0_linear)"/>
<path d="M44.0325 17.9638C32.32 17.9638 20.6084 17.9638 8.89587 17.9638C8.60038 17.9638 8.30489 17.9731 8.01033 17.9554C7.3168 17.9144 6.77243 17.3486 6.73421 16.6457C6.69972 16.0044 7.16859 15.4004 7.8211 15.268C8.01685 15.2279 8.22193 15.2177 8.42234 15.2177C32.1568 15.2158 55.8923 15.2158 79.6268 15.2158C80.5058 15.2158 81.0595 15.5561 81.2403 16.1983C81.4976 17.1137 80.8544 17.9564 79.8673 17.9601C77.3355 17.9694 74.8038 17.9638 72.2712 17.9638C62.8583 17.9638 53.4454 17.9638 44.0325 17.9638Z" fill="#1A7F84"/>
<path d="M19.0996 9.06704C19.094 10.1875 18.1926 11.0721 17.0722 11.0572C15.9611 11.0423 15.0839 10.1306 15.0988 9.00645C15.1137 7.91023 16.0002 7.04799 17.1104 7.05079C18.2467 7.05358 19.1062 7.92422 19.0996 9.06704Z" fill="#1A7F84"/>
<path d="M24.7954 7.05095C25.9205 7.06493 26.779 7.95048 26.7632 9.08118C26.7473 10.1932 25.8403 11.0741 24.7283 11.0573C23.6274 11.0406 22.7325 10.1159 22.7503 9.015C22.768 7.90573 23.6731 7.03697 24.7954 7.05095Z" fill="#1A7F84"/>
<path d="M11.4473 9.04559C11.4473 10.166 10.5636 11.0572 9.45153 11.0581C8.33761 11.059 7.45113 10.1707 7.4502 9.05119C7.44833 7.92048 8.31431 7.05265 9.44594 7.05078C10.5738 7.04892 11.4473 7.91862 11.4473 9.04559Z" fill="#1A7F84"/>
<path d="M39.911 46.9298C41.0193 45.772 42.0829 44.6646 43.1437 43.5544C45.8255 40.7496 48.5082 37.9466 51.1854 35.1371C51.5759 34.7269 52.0187 34.4836 52.592 34.6076C53.6323 34.8332 54.0331 36.0553 53.3209 36.8718C52.811 37.4563 52.2555 38.0007 51.7195 38.5609C48.1689 42.2746 44.6165 45.9855 41.0696 49.7029C40.6017 50.1932 40.0778 50.4626 39.4104 50.1876C39.1895 50.0972 38.9853 49.9294 38.8166 49.7561C37.7251 48.6309 36.6419 47.4974 35.5625 46.3611C34.9146 45.6788 34.895 44.8725 35.4972 44.2992C36.0957 43.7297 36.8992 43.794 37.5545 44.4726C38.3291 45.2752 39.0981 46.0824 39.911 46.9298Z" fill="url(#paint1_linear)"/>
</g>
<defs>
<linearGradient id="paint0_linear" x1="93.7236" y1="18.1614" x2="29.9687" y2="38.3649" gradientUnits="userSpaceOnUse">
<stop stop-color="#C99A6C"/>
<stop offset="0.2022" stop-color="#EFD7B9"/>
<stop offset="0.4438" stop-color="#DBBA95"/>
<stop offset="0.691" stop-color="#C09362"/>
<stop offset="0.8539" stop-color="#EFDBC0"/>
<stop offset="1" stop-color="#B98C5A"/>
</linearGradient>
<linearGradient id="paint1_linear" x1="74.5117" y1="32.3968" x2="40.0492" y2="49.0593" gradientUnits="userSpaceOnUse">
<stop stop-color="#C99A6C"/>
<stop offset="0.2022" stop-color="#EFD7B9"/>
<stop offset="0.4438" stop-color="#DBBA95"/>
<stop offset="0.691" stop-color="#C09362"/>
<stop offset="0.8539" stop-color="#EFDBC0"/>
<stop offset="1" stop-color="#B98C5A"/>
</linearGradient>
<clipPath id="clip0">
<rect width="88.3589" height="70.6172" fill="white"/>
</clipPath>
</defs>
</svg>
