<svg width="14" height="12" viewBox="0 0 14 12" fill="none" xmlns="http://www.w3.org/2000/svg">
<path d="M0.00166983 6.32389C0.0311692 5.6058 0.36265 5.08259 0.983689 4.785C1.59076 4.49388 2.19161 4.57394 2.68611 5.03245C3.26911 5.57264 3.80554 6.16863 4.36059 6.74117C4.56709 6.95385 4.77203 7.16895 4.97775 7.38325C5.16173 7.5741 5.16173 7.5749 5.34028 7.38891C6.75392 5.91633 8.16524 4.44293 9.58043 2.97278C10.1068 2.42612 10.6207 1.86247 11.1796 1.35382C11.8146 0.775625 12.7656 0.855683 13.3602 1.4824C13.9502 2.10427 14.031 3.09084 13.4837 3.73939C12.9597 4.36045 12.3813 4.93137 11.8208 5.51765C10.0315 7.38648 8.23898 9.25208 6.44806 11.1185C6.07777 11.5042 5.65624 11.7549 5.10972 11.7355C4.65714 11.7193 4.28296 11.5317 3.97089 11.2083C2.8111 10.0074 1.65441 8.80408 0.502383 7.59593C0.17168 7.2482 -0.0200666 6.83093 0.00166983 6.32389Z" fill="#03C96A"/>
</svg>
