<svg width="32" height="32" viewBox="0 0 32 32" fill="none" xmlns="http://www.w3.org/2000/svg">
<rect x="1.26332" y="1.26332" width="29.4734" height="29.4734" rx="14.7367" stroke="url(#paint0_linear)" stroke-width="2.52665"/>
<path d="M15.2111 11.3926L15.2116 11.3932C15.4456 11.6692 15.6795 11.9465 15.9132 12.2235L15.9141 12.2245C16.1475 12.5012 16.3808 12.7777 16.6141 13.0528C16.9726 13.4755 17.3297 13.898 17.6867 14.3204L17.687 14.3207C18.0442 14.7433 18.4011 15.1656 18.7594 15.588L18.7597 15.5884C18.9406 15.8025 19.0728 16.0263 19.0758 16.281C19.0788 16.538 18.9499 16.7612 18.7696 16.9726C18.2995 17.5277 17.8298 18.084 17.3598 18.6406C16.6315 19.5033 15.9025 20.3668 15.1701 21.2278C14.9958 21.4345 14.7751 21.5719 14.5304 21.6046C14.2823 21.6378 14.0397 21.5591 13.838 21.3893C13.6413 21.2236 13.5169 21.007 13.5061 20.7585C13.4955 20.5136 13.597 20.2779 13.7714 20.0716L15.2111 11.3926ZM15.2111 11.3926C15.0285 11.1786 14.8012 11.0327 14.5532 10.9895C14.3003 10.9455 14.0484 11.0126 13.8401 11.1845C13.637 11.3512 13.5256 11.5798 13.5228 11.8301C13.52 12.0751 13.6209 12.3169 13.7951 12.5266C13.8729 12.6226 13.9572 12.7252 14.0422 12.8236C15.0102 13.9744 15.9781 15.1252 16.9642 16.2981C16.9347 16.3327 16.9065 16.365 16.8775 16.3972L16.8774 16.3971M15.2111 11.3926L16.8774 16.3971M16.8774 16.3971L16.8724 16.4031M16.8774 16.3971L16.8724 16.4031M16.8724 16.4031C16.3557 17.0152 15.8389 17.6262 15.322 18.2372M16.8724 16.4031L15.322 18.2372M15.322 18.2372L15.322 18.2373M15.322 18.2372L15.322 18.2373M15.322 18.2373C14.8052 18.8482 14.2883 19.4592 13.7714 20.0715L15.322 18.2373Z" fill="white"/>
<path d="M15.2111 11.3926L15.2116 11.3932C15.4456 11.6692 15.6795 11.9465 15.9132 12.2235L15.9141 12.2245C16.1475 12.5012 16.3808 12.7777 16.6141 13.0528C16.9726 13.4755 17.3297 13.898 17.6867 14.3204L17.687 14.3207C18.0442 14.7433 18.4011 15.1656 18.7594 15.588L18.7597 15.5884C18.9406 15.8025 19.0728 16.0263 19.0758 16.281C19.0788 16.538 18.9499 16.7612 18.7696 16.9726C18.2995 17.5277 17.8298 18.084 17.3598 18.6406C16.6315 19.5033 15.9025 20.3668 15.1701 21.2278C14.9958 21.4345 14.7751 21.5719 14.5304 21.6046C14.2823 21.6378 14.0397 21.5591 13.838 21.3893C13.6413 21.2236 13.5169 21.007 13.5061 20.7585C13.4955 20.5136 13.597 20.2779 13.7714 20.0716L15.2111 11.3926ZM15.2111 11.3926C15.0285 11.1786 14.8012 11.0327 14.5532 10.9895C14.3003 10.9455 14.0484 11.0126 13.8401 11.1845C13.637 11.3512 13.5256 11.5798 13.5228 11.8301C13.52 12.0751 13.6209 12.3169 13.7951 12.5266C13.8729 12.6226 13.9572 12.7252 14.0422 12.8236C15.0102 13.9744 15.9781 15.1252 16.9642 16.2981C16.9347 16.3327 16.9065 16.365 16.8775 16.3972L16.8774 16.3971M15.2111 11.3926L16.8774 16.3971M16.8774 16.3971L16.8724 16.4031M16.8774 16.3971L16.8724 16.4031M16.8724 16.4031C16.3557 17.0152 15.8389 17.6262 15.322 18.2372M16.8724 16.4031L15.322 18.2372M15.322 18.2372L15.322 18.2373M15.322 18.2372L15.322 18.2373M15.322 18.2373C14.8052 18.8482 14.2883 19.4592 13.7714 20.0715L15.322 18.2373Z" fill="url(#paint1_linear)"/>
<path d="M15.2111 11.3926L15.2116 11.3932C15.4456 11.6692 15.6795 11.9465 15.9132 12.2235L15.9141 12.2245C16.1475 12.5012 16.3808 12.7777 16.6141 13.0528C16.9726 13.4755 17.3297 13.898 17.6867 14.3204L17.687 14.3207C18.0442 14.7433 18.4011 15.1656 18.7594 15.588L18.7597 15.5884C18.9406 15.8025 19.0728 16.0263 19.0758 16.281C19.0788 16.538 18.9499 16.7612 18.7696 16.9726C18.2995 17.5277 17.8298 18.084 17.3598 18.6406C16.6315 19.5033 15.9025 20.3668 15.1701 21.2278C14.9958 21.4345 14.7751 21.5719 14.5304 21.6046C14.2823 21.6378 14.0397 21.5591 13.838 21.3893C13.6413 21.2236 13.5169 21.007 13.5061 20.7585C13.4955 20.5136 13.597 20.2779 13.7714 20.0716L15.2111 11.3926ZM15.2111 11.3926C15.0285 11.1786 14.8012 11.0327 14.5532 10.9895C14.3003 10.9455 14.0484 11.0126 13.8401 11.1845C13.637 11.3512 13.5256 11.5798 13.5228 11.8301C13.52 12.0751 13.6209 12.3169 13.7951 12.5266C13.8729 12.6226 13.9572 12.7252 14.0422 12.8236C15.0102 13.9744 15.9781 15.1252 16.9642 16.2981C16.9347 16.3327 16.9065 16.365 16.8775 16.3972L16.8774 16.3971M15.2111 11.3926L16.8774 16.3971M16.8774 16.3971L16.8724 16.4031M16.8774 16.3971L16.8724 16.4031M16.8724 16.4031C16.3557 17.0152 15.8389 17.6262 15.322 18.2372M16.8724 16.4031L15.322 18.2372M15.322 18.2372L15.322 18.2373M15.322 18.2372L15.322 18.2373M15.322 18.2373C14.8052 18.8482 14.2883 19.4592 13.7714 20.0715L15.322 18.2373Z" stroke="url(#paint2_linear)" stroke-width="0.50533"/>
<defs>
<linearGradient id="paint0_linear" x1="67.8019" y1="-4.43369" x2="5.16806" y2="21.1378" gradientUnits="userSpaceOnUse">
<stop stop-color="#C99A6C"/>
<stop offset="0.2022" stop-color="#EFD7B9"/>
<stop offset="0.4438" stop-color="#DBBA95"/>
<stop offset="0.691" stop-color="#C09362"/>
<stop offset="0.8539" stop-color="#EFDBC0"/>
<stop offset="1" stop-color="#B98C5A"/>
</linearGradient>
<linearGradient id="paint1_linear" x1="14.4334" y1="8.90407" x2="20.9175" y2="16.4341" gradientUnits="userSpaceOnUse">
<stop offset="0.229167" stop-color="#DBBA95"/>
<stop offset="0.75" stop-color="#C09362"/>
<stop offset="1" stop-color="#B98C5A"/>
</linearGradient>
<linearGradient id="paint2_linear" x1="13.0563" y1="-0.104821" x2="24.3893" y2="13.7745" gradientUnits="userSpaceOnUse">
<stop stop-color="#C99A6C"/>
<stop offset="0.2022" stop-color="#EFD7B9"/>
<stop offset="0.4438" stop-color="#DBBA95"/>
<stop offset="0.691" stop-color="#C09362"/>
<stop offset="0.8539" stop-color="#EFDBC0"/>
<stop offset="1" stop-color="#B98C5A"/>
</linearGradient>
</defs>
</svg>
