<svg width="24" height="25" viewBox="0 0 24 25" fill="none" xmlns="http://www.w3.org/2000/svg">
<path d="M12.0001 0C9.91584 0.000559156 7.86761 0.543844 6.05703 1.57638C4.24646 2.60892 2.73596 4.09512 1.67419 5.88871C0.612426 7.6823 0.0359939 9.72145 0.00163171 11.8055C-0.0327305 13.8895 0.476161 15.9465 1.47822 17.7742L0.492016 21.2259C0.401565 21.5425 0.397417 21.8775 0.480003 22.1962C0.562589 22.5149 0.728903 22.8058 0.961711 23.0386C1.19452 23.2714 1.48535 23.4377 1.80406 23.5203C2.12278 23.6029 2.45778 23.5987 2.77435 23.5083L6.22623 22.5221C7.83035 23.4023 9.61451 23.904 11.4423 23.9889C13.2701 24.0739 15.0931 23.7397 16.7719 23.0121C18.4507 22.2844 19.9409 21.1825 21.1286 19.7906C22.3163 18.3987 23.1699 16.7536 23.6243 14.9812C24.0787 13.2088 24.1218 11.3559 23.7503 9.56428C23.3788 7.77264 22.6025 6.08968 21.4808 4.64407C20.3592 3.19845 18.9218 2.02846 17.2786 1.22355C15.6354 0.418639 13.8299 0.000123536 12.0001 0ZM12.0001 22.1541C10.1767 22.1554 8.38659 21.6648 6.81851 20.7341C6.71036 20.6699 6.59022 20.6283 6.46546 20.6122C6.34069 20.596 6.21393 20.6054 6.09296 20.64L2.26723 21.7332L3.36016 17.9073C3.39472 17.7864 3.40419 17.6597 3.388 17.5349C3.37181 17.4102 3.33029 17.2901 3.26601 17.182C2.12238 15.2551 1.64813 13.0041 1.91715 10.7796C2.18616 8.55515 3.18334 6.48209 4.75333 4.88339C6.32332 3.28469 8.37797 2.25012 10.5972 1.94084C12.8165 1.63156 15.0757 2.06494 17.023 3.17347C18.9702 4.28199 20.4962 6.00342 21.3632 8.0696C22.2302 10.1358 22.3894 12.4307 21.8162 14.5968C21.243 16.7629 19.9695 18.6787 18.194 20.0456C16.4185 21.4125 14.2408 22.1538 12.0001 22.1541ZM18.0574 13.739L15.6966 12.3899C15.4118 12.2274 15.0889 12.1436 14.761 12.1471C14.4332 12.1506 14.1121 12.2413 13.8309 12.4099L12.4635 13.2304C11.76 12.8246 11.1758 12.2404 10.77 11.5369L11.5904 10.1693C11.759 9.88804 11.8497 9.567 11.8532 9.23911C11.8567 8.91123 11.7729 8.58831 11.6104 8.30351L10.2613 5.94272C10.1107 5.67997 9.89346 5.46157 9.63152 5.30958C9.36958 5.15758 9.07218 5.07735 8.76934 5.07698C7.67026 5.0774 6.61611 5.51321 5.83761 6.28903C5.0591 7.06485 4.61966 8.11749 4.61545 9.21656C4.61356 10.5512 4.87481 11.8731 5.38425 13.1067C5.89368 14.3403 6.64131 15.4613 7.58437 16.4057C8.52742 17.3501 9.64741 18.0993 10.8803 18.6105C12.1131 19.1217 13.4347 19.3848 14.7693 19.3848C14.7741 19.3848 14.7813 19.3875 14.7838 19.3848C15.8829 19.3806 16.9355 18.9411 17.7113 18.1626C18.4871 17.3841 18.9229 16.33 18.9233 15.2309C18.9229 14.9281 18.8427 14.6307 18.6906 14.3687C18.5386 14.1068 18.3202 13.8896 18.0574 13.739ZM14.7813 17.5387C13.6883 17.5402 12.6057 17.3261 11.5956 16.9085C10.5855 16.491 9.66777 15.8782 8.8949 15.1054C8.12204 14.3325 7.50928 13.4147 7.09173 12.4046C6.67418 11.3945 6.46005 10.312 6.46162 9.21898C6.4644 8.62164 6.69883 8.04866 7.11554 7.62067C7.53226 7.19267 8.09877 6.94304 8.69584 6.92431L10.0074 9.21933L8.92418 11.025C8.84757 11.1527 8.80298 11.2969 8.7942 11.4456C8.78542 11.5942 8.81271 11.7427 8.87376 11.8785C9.52241 13.3223 10.6781 14.4779 12.1219 15.1265C12.2576 15.1876 12.4062 15.2149 12.5548 15.2061C12.7034 15.1973 12.8476 15.1527 12.9753 15.0761L14.7809 13.9928L17.0761 15.3043C17.0574 15.9014 16.8077 16.468 16.3797 16.8847C15.9517 17.3015 15.3787 17.5359 14.7813 17.5387Z" fill="url(#paint0_linear)"/>
<defs>
<linearGradient id="paint0_linear" x1="50.852" y1="-3.32552" x2="3.87519" y2="15.8524" gradientUnits="userSpaceOnUse">
<stop stop-color="#C99A6C"/>
<stop offset="0.2022" stop-color="#EFD7B9"/>
<stop offset="0.4438" stop-color="#DBBA95"/>
<stop offset="0.691" stop-color="#C09362"/>
<stop offset="0.8539" stop-color="#EFDBC0"/>
<stop offset="1" stop-color="#B98C5A"/>
</linearGradient>
</defs>
</svg>
